<?xml version="1.0" encoding="UTF-8" standalone="no"?>
<svg width="57px" height="53px" viewBox="0 0 57 53" version="1.1" xmlns="http://www.w3.org/2000/svg" xmlns:xlink="http://www.w3.org/1999/xlink">
    <!-- Generator: Sketch 3.8.1 (29687) - http://www.bohemiancoding.com/sketch -->
    <title>season_icons</title>
    <desc>Created with Sketch.</desc>
    <defs>
        <polygon id="path-1" points="222.7 62.5 222.7 0.524 0.602249803 0.524 0.602249803 62.5 222.7 62.5"></polygon>
    </defs>
    <g id="Page-1" stroke="none" stroke-width="1" fill="none" fill-rule="evenodd">
        <g id="season_icons" transform="translate(-165.000000, -7.000000)">
            <g id="Group-12" transform="translate(77.000000, 0.000000)">
                <mask id="mask-2" fill="white">
                    <use xlink:href="#path-1"></use>
                </mask>
                <g id="Clip-9"></g>
                <path d="M127.19,48.324 C127.296,48.232 127.662,48.231 128.002,48.323 L132.733,49.599 C133.073,49.691 133.401,49.455 133.461,49.074 L133.954,45.966 C134.014,45.586 134.341,45.141 134.68,44.977 L144.541,40.225 C144.88,40.061 144.924,39.762 144.637,39.561 L136.461,33.803 C136.175,33.601 135.99,33.125 136.05,32.745 L136.542,29.637 C136.603,29.257 136.357,28.988 135.997,29.039 L128.72,30.084 C128.36,30.136 128.272,29.935 128.525,29.639 L134.18,23.012 C134.433,22.715 134.392,22.33 134.089,22.155 L131.253,20.518 C130.949,20.343 130.711,19.888 130.721,19.508 L131.053,7.968 C131.064,7.588 130.809,7.442 130.487,7.646 L120.779,13.763 C120.457,13.966 119.945,13.989 119.641,13.814 L116.805,12.177 C116.502,12.002 116.148,12.16 116.017,12.527 L113.105,20.738 C112.975,21.105 112.757,21.129 112.622,20.791 L109.888,13.967 C109.753,13.629 109.397,13.55 109.098,13.793 L106.653,15.773 C106.354,16.015 105.849,16.093 105.531,15.946 L96.457,11.744 C96.139,11.597 95.902,11.784 95.93,12.159 L96.744,23.075 C96.772,23.451 96.55,23.956 96.251,24.198 L93.806,26.179 C93.507,26.421 93.466,26.823 93.715,27.071 L97.185,30.531 C97.434,30.779 97.608,31.099 97.573,31.242 C97.537,31.385 97.214,31.562 96.855,31.637 L88.996,33.273 C88.637,33.348 88.537,33.623 88.774,33.886 L94.021,39.71 C94.257,39.973 94.346,40.488 94.219,40.856 L93.474,43.007 C93.347,43.375 93.533,43.7 93.888,43.73 L104.457,44.608 C104.812,44.638 105.33,44.837 105.608,45.05 L106.896,46.041 C107.174,46.254 107.234,46.702 107.029,47.035 L101.109,56.665 C100.905,56.998 100.588,57.514 100.404,57.811 C100.221,58.107 100.319,58.493 100.623,58.669 L101.787,59.342 C102.091,59.516 102.474,59.408 102.639,59.102 C102.805,58.795 103.093,58.262 103.279,57.919 L108.658,47.98 C108.844,47.636 109.261,47.465 109.585,47.599 L111.156,48.252 C111.48,48.387 111.911,48.737 112.114,49.029 L118.19,57.763 C118.393,58.056 118.769,58.055 119.025,57.762 L120.527,56.045 C120.783,55.753 121.275,55.573 121.621,55.646 L129.296,57.282 C129.642,57.356 129.831,57.131 129.717,56.783 L127.204,49.127 C127.09,48.777 127.084,48.417 127.19,48.324" id="Fill-10" fill="#FFFFFF" mask="url(#mask-2)"></path>
            </g>
        </g>
    </g>
</svg>
