<?xml version="1.0" encoding="UTF-8" standalone="no"?>
<svg width="70px" height="70px" viewBox="0 0 70 70" version="1.1" xmlns="http://www.w3.org/2000/svg" xmlns:xlink="http://www.w3.org/1999/xlink">
    <!-- Generator: Sketch 3.6.1 (26313) - http://www.bohemiancoding.com/sketch -->
    <title>fb</title>
    <desc>Created with Sketch.</desc>
    <defs></defs>
    <g id="Page-1" stroke="none" stroke-width="1" fill="none" fill-rule="evenodd">
        <g id="Background" transform="translate(-10.000000, -15.000000)" fill="#000000">
            <g id="scarpa_social" transform="translate(10.000000, 15.000000)">
                <path d="M43.7044123,36.2290643 L38.0103317,36.2290643 L38.0103317,56.5297442 L29.5717187,56.5297442 L29.5717187,36.2290643 L25.5589733,36.2290643 L25.5589733,29.0566038 L29.5717187,29.0566038 L29.5717187,24.4174786 C29.5717187,21.0991081 31.1490007,15.9015983 38.0865687,15.9015983 L44.3369735,15.9283843 L44.3369735,22.8896477 L39.8008713,22.8896477 C39.0570453,22.8896477 38.0103317,23.2605304 38.0103317,24.8429635 L38.0103317,29.0638154 L44.4410267,29.0638154 L43.7044123,36.2290643 L43.7044123,36.2290643 Z M34.9958791,0 C15.7007035,0 0,15.702764 0,34.9969093 C0,54.2982663 15.7007035,70 34.9958791,70 C54.297236,70 70,54.2982663 70,34.9969093 C70,15.702764 54.297236,0 34.9958791,0 L34.9958791,0 Z" id="fb"></path>
            </g>
        </g>
    </g>
</svg>
