<?xml version="1.0" encoding="UTF-8" standalone="no"?>
<svg width="70px" height="70px" viewBox="0 0 70 70" version="1.1" xmlns="http://www.w3.org/2000/svg" xmlns:xlink="http://www.w3.org/1999/xlink">
    <!-- Generator: Sketch 3.6.1 (26313) - http://www.bohemiancoding.com/sketch -->
    <title>in</title>
    <desc>Created with Sketch.</desc>
    <defs></defs>
    <g id="Page-1" stroke="none" stroke-width="1" fill="none" fill-rule="evenodd">
        <g id="Background" transform="translate(-320.000000, -15.000000)" fill="#FFFFFF">
            <g id="scarpa_social" transform="translate(10.000000, 15.000000)">
                <path d="M366.862961,51.9488679 L358.130908,51.9488679 L358.130908,33.023838 C358.130908,30.803482 357.49104,29.2444846 354.778948,29.2444846 C350.245606,29.2444846 349.370592,33.023838 349.370592,33.023838 L349.370592,51.9488679 L340.637408,51.9488679 L340.637408,21.314965 L349.370592,21.314965 L349.370592,24.2464227 C350.633371,23.3058238 353.750185,21.3375755 358.130908,21.3375755 C360.968486,21.3375755 366.862961,23.0265835 366.862961,33.2804677 L366.862961,51.9488679 L366.862961,51.9488679 Z M332.156328,19.4620304 C329.893049,19.4620304 328.054841,17.6237928 328.054841,15.3389967 C328.054841,13.0745502 329.893049,11.2374431 332.156328,11.2374431 C334.419607,11.2589231 336.257815,13.0960302 336.257815,15.3389967 C336.257815,17.6237928 334.419607,19.4620304 332.156328,19.4620304 L332.156328,19.4620304 Z M327.4975,51.9488679 L336.257815,51.9488679 L336.257815,21.314965 L327.4975,21.314965 L327.4975,51.9488679 Z M344.989869,-7.10542736e-15 C325.681902,-7.10542736e-15 310.004,15.6770245 310.004,34.9864337 C310.004,54.3229755 325.681902,70 344.989869,70 C364.326098,70 380.004,54.3229755 380.004,34.9864337 C380.004,15.6555444 364.326098,-7.10542736e-15 344.989869,-7.10542736e-15 L344.989869,-7.10542736e-15 Z" id="in"></path>
            </g>
        </g>
    </g>
</svg>