<?xml version="1.0" encoding="utf-8"?>
<!-- Generator: Adobe Illustrator 19.0.1, SVG Export Plug-In . SVG Version: 6.00 Build 0)  -->
<svg version="1.1" id="Layer_1" xmlns="http://www.w3.org/2000/svg" xmlns:xlink="http://www.w3.org/1999/xlink" x="0px" y="0px"
	 viewBox="0 0 841.9 386.5" style="enable-background:new 0 0 841.9 386.5;" xml:space="preserve">
<style type="text/css">
	.st0{fill:#294291;}
	.st1{fill:#EB2125;}
	.st2{fill:#F8DA3D;}
	.st3{fill:#ED2227;}
	.st4{fill:#F0DA33;}
	.st5{fill-rule:evenodd;clip-rule:evenodd;fill:#ED1C24;}
	.st6{fill:#ED1C24;}
</style>
<g>
	<polygon class="st0" points="417.5,60.7 418.7,160.3 393.1,147 380.4,135 379.1,60.6 	"/>
	<polygon class="st1" points="419.5,60.7 418.4,160.3 444,147 456.6,135 457.9,60.6 	"/>
	<polygon class="st2" points="379.1,60.6 455.6,60.7 463,57.6 463.5,52 461.4,49 378.3,46.5 371.9,48.8 374.4,57.6 	"/>
	<polygon class="st2" points="380.4,71 380.4,88.7 418.7,127 418.7,108.7 	"/>
	<g>
		<path d="M347,102.5c-2.7-2.6-3.1-6.6-1-9.7c0.3-0.5,0.3-0.9,0.2-1.3c0-0.4-0.3-0.8-0.7-1.1c-1.9-1.3-3.4-3-4.5-5
			c-0.4-0.6-1-0.8-1.5-0.7c-0.9-0.1-1.8,0.4-1.6,1.5c0.2,1.9-0.2,3.6-0.9,5.4c-0.3,0.8-0.8,3-2.4,2.2c-0.6-0.3-0.8-1.8-0.9-2.4
			c-0.5-3.4,1.1-6.4,3.7-8.5c0.3-0.3,0.5-0.6,0.5-0.9c0.4-0.3,0.7-0.9,0.5-1.6c-0.6-2.2-0.2-4.4,1.1-6.3c0.3-0.5,0.3-0.9,0.2-1.3
			c0-0.5-0.1-1.1-0.7-1.5c-1.3-0.9-2.2-2.2-2.6-3.7c0.2-0.6,0-1.3-0.7-1.6c-3.8-1.9-7-4.6-9.4-8c-0.4-0.6-1-0.8-1.6-0.7
			c-0.8-0.1-1.7,0.4-1.5,1.5c1.5,11.3,2.8,23-0.7,34c-2.9-2.7-7.1-4.8-10.3-1.2c-1.9,2.1-1.9,4.8-1.1,7.5c-2.8-2.8-5.7-5.4-8.7-7.9
			c0.2-1.1,0.4-2.2,0.6-3.3c0.9-6.5,0.7-13.3-2.1-19.4c-2.9-6.1-8.4-9.8-14-13.2c0.4-0.3,0.8-0.5,1.2-0.7c0.7-0.3,0.9-0.9,0.8-1.5
			c-0.1-6.1,1.8-12.2,6.5-16.2c0.5-0.5,0.6-1,0.4-1.5c-0.1-0.5-0.4-1-1.1-1.1c-4.6-0.9-9.2-1.8-13.8-2.6c-3.3-0.6-6.4-1-9.7,0.2
			c-0.1,0.1-0.3,0.1-0.4,0.2c-0.3,0-0.6,0.2-0.9,0.5c-1,1-1.8,2.2-2.6,3.3c-0.6-0.8-1.3-1.6-2.1-2.3c-0.5-1-2.1-1.5-2.7-0.2
			c-0.9,1.9-1.7,3.9-2.4,5.9c-1.3-2.6-3.3-4.8-5.8-6.5c-0.1-0.1-0.3-0.2-0.5-0.3c-0.5-0.3-1.1-0.2-1.5,0.1c-0.4,0.2-0.8,0.7-0.8,1.3
			c0,1.5-0.2,2.9-0.6,4.2c-1.4-1-3-1.8-4.6-2.5c-0.7-0.3-1.3,0-1.6,0.5c-0.4,0.2-0.8,0.7-0.7,1.3c0.1,1.9,0.2,3.8,0.3,5.7
			c-2.4-0.5-4.8-0.9-7.1-1.4c-1.1-0.2-1.9,0.7-2,1.6c-0.4,0.5-0.4,1.3,0.2,1.9c4,4.1,3.7,11.8,1.7,17.8c-5.3,1.4-10.7,1.6-16.1,0.7
			c2.7-2.4,5.6-4.5,8.7-6.5c0.6-0.4,0.8-0.9,0.7-1.4c0-0.6-0.3-1.3-1.1-1.5c-1.3-0.3-2.5-0.7-3.7-1.2c3.5-3.6,6.5-7.4,6.9-12.6
			c0.1-0.8-0.4-1.2-0.9-1.4c-0.3-0.2-0.7-0.3-1.2-0.2c-0.6,0.2-1.1,0.3-1.7,0.5c0.3-4.7-0.3-9.3-2-13.8c-0.2-0.5-0.5-0.8-0.9-0.9
			c-0.4-0.5-1.1-0.7-1.8-0.2c-4.7,3.2-8.1,7.9-9.5,13.3c-1.3-0.4-2.6-0.6-3.9-0.6c0.2-2.3,0-4.4-0.7-6.7c-0.4-1.1-1.6-1.3-2.4-0.8
			c-3,0.4-4.1-2.2-5.6-4.3c-1.1-1.5-2.5-2.8-4.4-3.1c-0.9-0.1-1.5,0.4-1.8,1c-0.1,0.2-0.2,0.5-0.3,0.8c-0.2,1.6-0.5,3.1-1,4.6
			c-3.2-0.1-6.4-0.1-9.5,0.1c-1.2,0.1-1.6,1.1-1.5,2c-0.1,0.6,0.1,1.2,0.7,1.5c2.4,1.5,4,3.9,4.5,6.5c-2-2.1-4.4-3.6-7.5-3.9
			c-6.7-0.6-13.4,4.6-18.3-2.6c-0.7-1.1-2.1-0.8-2.7,0c-0.4,0.2-0.7,0.6-0.8,1.2c-1,8.1,1.5,15.9,6.8,22c-1,0.3-2,0.6-2.9,1
			c-0.5,0.2-1,0.6-1.1,1.2c-0.3,0.5-0.4,1.3,0.1,1.9c0.6,0.8,1.3,1.5,2,2.1c-9,3-18,6.2-26.2,11c-3.1,1.8-6.1,3.9-8.9,6.2
			c-13.3,0.9-28.5,1.3-40.4-5.7c-5.6-3.3-9.4-7.9-10.1-14.5c-0.9-8.8,5.5-13.2,12.9-16c0.2,0,0.3,0,0.5-0.1c5.2-1.9,10.4,0.9,13.7,5
			c3,3.7,5.3,11.1,0,14c-0.2,0.1-0.4,0.3-0.5,0.4c-0.2,0-0.4,0-0.7,0.1c-1.2,0.5-2.7-0.3-3.1-1.5c-0.4-1.4,0.5-3.1,0.3-4.6
			c-0.2-2.2-2.3-4.5-4.7-3.6c-5,0.6-9.4,4.3-9.9,9.6c-0.5,5.3,3.2,9.9,8.2,11.3c1.9,0.6,2.8-2.5,0.8-3c-8-2.3-7.4-13.6,0.9-14.7
			c0.2,0,0.5,0,0.8-0.1c1.4-0.6,0.4,3.9,0.4,4.5c0,1.3,0.4,2.5,1.3,3.5c1.7,1.9,4.3,2.3,6.5,1.3c0.2-0.1,0.4-0.2,0.5-0.4
			c0.2,0,0.4-0.1,0.6-0.2c6.3-3.3,5.4-11.8,2.1-17c-3.7-5.8-10.9-10.1-17.7-7.9c-0.2,0-0.4,0-0.6,0.1c-8.5,3.1-15.8,8-15.7,18
			c0.1,8.2,4.9,14.4,11.7,18.4c11.3,6.8,25.4,7.1,38.4,6.4c-3.2,3.6-6.5,9.6-11.2,10.4c-0.2-1.1-0.4-2.2-0.6-3.3
			c-0.3-1-1.2-1.3-1.9-1c-0.7-0.3-1.5-0.1-2,0.6c-0.1,0.1-0.2,0.3-0.3,0.4c-1.8-1.8-3.7-3.4-5.7-4.9c-0.5-0.9-2-1.2-2.8-0.1
			c-1.7,2.5-5.2,2.8-7.1,0.3c-0.3-0.3-0.6-0.5-0.9-0.6c-0.4-0.3-1-0.5-1.5-0.4c-0.9,0.2-1.2,1.1-1.1,1.9c0.2,1.5-0.9,3-2.3,3.4
			c-0.5,0.2-0.8,0.5-1,0.9c-0.5,0.6-0.7,1.4-0.1,2.2c1,1.2,1.9,2.4,2.9,3.5c-0.9-0.1-1.7-0.2-2.6-0.4c-1.1-0.2-1.9,0.8-2,1.6
			c-0.3,2.5-2,4.4-4.2,5.4c-0.8,0.4-1,1.1-0.7,1.7c-0.1,0.3,0,0.7,0.2,1.1c0.9,1.4,1.8,2.6,2.9,3.7c-0.8,0-1.7,0-2.5,0
			c-0.9,0-1.4,0.6-1.5,1.3c-0.2,0.2-0.4,0.6-0.5,1c0,0.2,0,0.3-0.1,0.5c-3.9-2.3-6.8-5.8-8.2-10.2c1.5-0.8,3.4-1.1,5.3-0.5
			c0.6,0.2,1.2,0,1.5-0.4c0.2-0.1,0.4-0.2,0.6-0.4c0.9-1,1.9-1.9,3-2.5c0.7-0.4,0.9-1.1,0.7-1.7c0.2-0.7-0.1-1.5-0.7-1.8
			c-0.1-0.1-0.2-0.1-0.3-0.2c0,0-0.1,0-0.1-0.1c0,0,0,0,0,0c-0.1-0.1-0.2-0.1-0.2-0.2c0,0-0.1-0.2-0.1-0.2c0-0.1-0.1-0.2-0.1-0.2
			c0,0,0-0.1-0.1-0.1c0-0.1-0.1-0.2-0.1-0.3c0,0,0-0.1,0-0.1c0.8-0.4,1.6-0.8,2.4-1c0.6-0.2,1-0.6,1.1-1.1c0.6-0.4,1-1.2,0.5-2
			c-1.8-2.9-2.8-6.1-3-9.5c-0.1-1.3-1.3-1.9-2.4-1.4c-0.7,0.3-1.3,0.7-1.9,1.1C70.6,70.6,60.5,67.8,50.5,68c-1.2,0-1.7,1.1-1.5,2
			c-0.1,0.1-0.1,0.3-0.1,0.5c-0.5,4.2-0.2,8.3,0.6,12.4c-0.5,0-1,0-1.5,0c-0.6,0-1.1,0.3-1.4,0.8c-0.5,0.3-0.9,0.9-0.7,1.7
			c1,3.2,2.5,6.1,4.4,8.7c0,0-0.1,0.1-0.1,0.1c0,0-0.1,0.1-0.1,0.1c-0.1,0.1-0.2,0.1-0.3,0.2c0.3-0.2-0.1,0-0.2,0.1
			c-0.3,0.1-0.6,0.3-0.8,0.5c-1.1,0.3-1.7,2.1-0.5,3c2,1.4,4.3,2.1,6.3,3.3c2,1.3,3.6,3,4.7,5.1c0.1,0.7,0.6,1.3,1.5,1.2
			c1.7,0,3.4-0.3,5.1-0.6c0.3,0,0.6-0.1,0.8-0.3c0.4-0.2,0.5-0.6,0.6-1c0.2-0.7,0.5-1.3,0.8-1.9c1.9,4.9,5.5,8.8,10.2,11.2
			c-0.1,0.6-0.2,1.2-0.2,1.9c-5.1-1.1-10.3-0.7-15.3,1c-0.5-3.1-1.3-6.2-3.3-8.7c-2.3-2.8-6.7-3.5-8.3-6.7c-0.4-0.7-1-0.9-1.6-0.7
			c-0.6-0.1-1.2,0-1.6,0.7c-0.6,1-1.1,2-1.5,3.1c-1.9-0.7-3.9-1.1-6-0.7c-2.9,0.5-5.5,2.2-8.3,3c-0.6,0.2-0.9,0.6-1,1
			c-0.1,0.1-0.1,0.2-0.2,0.2c-0.5,0.8-0.1,1.6,0.6,2.1c0.8,0.6,1.6,1.2,2.4,1.8c-5.2,2-9.4,5.5-12.3,10.1
			c-8.5-0.3-15.5-5.4-18.1-13.6c0-0.1-0.1-0.2-0.2-0.4c-0.8-2.4-0.7-5,1.2-7c1.6-1.7,5.6-3.1,7.7-1.4c2.8,2.3-0.2,7.3,0.6,10.3
			c1.2,4.5,6,5.8,9.8,3.9c1.8-0.9,0.2-3.6-1.6-2.7c-6.7,3.4-4.8-5-4.6-7.7c0.1-1.4,0.1-2.8-0.5-4.1c-1.2-2.6-4.1-3.5-6.8-3.5
			c-6.9,0.1-11,7-8.8,13.2c0,0.1,0.1,0.3,0.2,0.4c2.9,8.8,10.3,14.7,19.4,15.6c-0.2,0.5-0.4,0.9-0.6,1.4c0,0,0,0,0,0.1
			c-0.6,0.8-0.2,2.5,1.2,2.6c4.5,0.5,7.6,4.8,12,6c3.5,0.9,7.2,0.6,10.7,0.1c0,1.9,0.6,3.8,1.7,5.5c0.1,0.8,0.8,1.6,1.9,1.2
			c4.6-1.7,10.3-3,13.4-7.1c0.6,0.3,1.2,0.6,1.8,0.9c0.6,0.3,1.4,0.2,1.9-0.3c0.6-0.2,1.1-0.6,1.2-1.4c0.4-4.9-0.3-9.6-1.9-14.2
			c3.2-1.2,6.5-1.7,9.8-1.6c0,0,0,0.1,0,0.1c0.3,0.8,0.7,1.5,1,2.3c-2.8,2.3-5.1,5.1-6.9,8.3c-0.2,0.4-0.2,0.8-0.1,1.2
			c0,0.6,0.3,1.2,1.1,1.4c3,0.7,5.9,1.3,8.9,1.7c1.1,1.9,2.2,3.8,3.3,5.7c0.6,1,1.8,0.9,2.4,0.3c2.2-0.4,4.3-1.2,6.2-2.4
			c1.2,2,2.7,4.6,5,3.9c1.3-0.4,2.1-1.6,2.9-2.6c0.8-0.9,1.5-1.8,2.3-2.6c1.5,2.1,2.9,4.2,4.4,6.3c0.3,0.4,0.6,0.6,1,0.7
			c0.5,0.3,1.3,0.4,1.9-0.2c2.3-2.4,4.1-5.2,5.2-8.3c0.7,0.3,1.4,0.6,2,0.9c0.4,0.2,0.8,0.2,1.2,0.1c0.8,0.1,1.7-0.4,1.6-1.5
			c-0.1-1.8-0.4-3.5-0.8-5.2c2.9,1,6.1,0.8,9,2c0.3,0.6,1.1,0.8,1.8,0.7c1-0.1,1.7-1.2,1.3-2.2c0.6-5.8,0.6-11.8-3.4-16.1
			c0.1,0,0.2-0.1,0.2-0.1c0,0,0.1-0.1,0.2-0.1c0,0,0.2-0.1,0.2-0.1c0.1,0,0.2-0.1,0.4-0.1c0.8-0.2,1.4-1.1,1.1-1.9
			c-0.1-0.2-0.2-0.4-0.3-0.6c-0.1-0.1-0.2-0.3-0.4-0.4c-1.9-1.6-3.9-2.8-6-3.7c3.4-2.9,6.2-6.3,8.3-10.2c0.1-0.1,0.1-0.2,0.1-0.3
			c0.9-0.3,1.7-0.7,2.6-1c0.1,0,0.2-0.1,0.3-0.1c0.3,0.4,0.6,0.7,1,1c-0.6,0.2-1.2,0.4-1.8,0.7c-0.4,0.2-0.7,0.7-0.7,1.2
			c-0.6,0.4-1,1.2-0.6,2.1c0.9,2.1-1.3,5.6-1.6,7.8c-0.3,1.9-0.1,3.8,0.3,5.7c0.1,0.5,0.3,0.8,0.7,1c0.2,0.5,0.7,0.9,1.4,0.8
			c3-0.3,5.9-1,8.7-2.1c-0.3,0.7-0.5,1.5-0.7,2.3c-0.1,0.3,0,0.5,0,0.8c0,0.3,0.1,0.6,0.4,0.9c2.2,2.5,3.2,5.8,2.7,9.1
			c0,0.3,0,0.5,0.1,0.8c-0.2,1,0.6,2.2,1.9,1.9c2.1-0.5,4.5,3,5.8,4.3c1.6,1.6,3.2,3.2,4.7,4.7c0.1,0.1,0.1,0.1,0.2,0.2
			c0.6,0.8,2,1.1,2.5-0.1c2.4-5.7,8.1-10,12.4-14.3c0.3-0.3,0.4-0.7,0.5-1c0.3-0.3,0.5-0.8,0.3-1.4c-0.9-2.5-0.2-5-0.3-7.5
			c1.9-1,4.2-0.9,6.2-1.9c1.7-0.8,3-2.4,3.5-4.2c0.8,0.1,1.6,0.3,2.4,0.6c0.7,0.3,1.4,0.2,1.9-0.3c0.7-0.3,1.2-0.9,1-1.8
			c-0.9-4.6-2.9-8.8-6-12.2c0.1,0,0.1,0,0.1-0.1c0.2-0.1,0.7-0.2,1-0.3c0.6-0.1,1-0.6,1.1-1.2c0.6-0.5,0.9-1.5,0.1-2.2
			c-7.3-6.3-17-7.2-25-2.6c3.3-9.3,9-17.4,16.6-23.8c0.1-0.1,0.1-0.1,0.2-0.2c2.1,0,4.2,0,6.3,0c1.9,0,3.8-0.1,5.7,0.5
			c2.4,0.7,5.8,3.1,3.8,6c-3.6,0-6.5-3.3-10-4.2c0,0,0,0,0,0c-0.8-0.5-2.1-0.4-2.6,0.8c-0.8,1.9-2.8,4.7-0.7,6.5
			c1.2,1,2.9,1.2,4.1,2.1c2.2,1.6,3.6,3.9,3,6.7c-0.1,0.5,0,0.9,0.2,1.2c0.2,0.9,1.2,1.8,2.3,1.1c1.2-0.7,2.4-1.4,3.6-2.1
			c-1,4.9-0.7,9.9,1,14.8c0.3,0.8,0.9,1.1,1.5,1.1c0.6,0.1,1.3,0,1.7-0.7c4-6,11.9-7.4,15.8-13.4c0.8,1.2,1.8,2.4,2.9,3.4
			c1,0.9,2.2,0.3,2.6-0.7c5.4-5.4,7.7-12.8,6.5-20.2c5.2,0.9,10.4,0.9,15.6-0.2c-0.3,0.7-0.7,1.3-1.1,1.9c-0.5,0.8-0.2,1.5,0.4,2
			c0.2,0.3,0.4,0.5,0.8,0.7c4.7,1.8,9.2,3.8,13.6,6.2c0.4,0.2,0.8,0.2,1.2,0.1c0,0,0.1,0,0.1,0c0.8,0.2,1.5-0.2,1.8-0.9c0,0,0,0,0,0
			c0,0,0-0.1,0.1-0.1c0,0.1,0,0.1-0.1,0.1c0,0,0.1-0.1,0.1-0.1c0.3,0,0.4,0,0.6,0.1c0.5,0.4,0.6,1.2,0.7,1.8
			c0.1,0.8,0.7,1.6,1.6,1.6c0.1,0,0.2,0,0.3,0c0.2,0.2,0.6,0.4,1,0.5c2.3,0.3,3.4,2.6,2.8,4.7c-0.2,0.6,0,1,0.3,1.4
			c0.2,0.5,0.7,0.9,1.4,0.8c4.8-0.6,9.5,1.1,12.5,5c0.2,0.3,0.5,0.4,0.7,0.5c0.7,1,2.5,1.1,2.8-0.4c0.5-2.6,0.5-5.2,0.2-7.9
			c0.4,0,0.8,0,1.2,0c0,0.1,0,0.1,0,0.2c2,13.5-11.1,21.3-23,20.3c2.8-7.2,2.8-14.9-0.2-22.2c-0.1-0.1-0.1-0.2-0.2-0.3
			c-0.2-0.5-0.7-0.9-1.4-0.9c-2.5,0.1-5-0.4-7.3-1.5c-0.5-0.2-1-0.2-1.4,0c-0.7,0.1-1.2,0.6-1.2,1.5c0,0.7,0,1.4-0.1,2
			c-2-1.9-4.1-3.5-6.4-5c-0.8-0.5-1.6-0.1-2,0.5c-2.3,0.8-4.6,1.5-6.9,2.3c-0.6-0.1-1.1,0.3-1.4,0.8c-0.6,0.9-0.1,2.3,0.9,2.4
			c1.4,1,2.7,2.2,3.7,3.7c-5.8-0.6-11.5-0.2-17.2,1.3c-0.5,0.1-0.8,0.4-1,0.7c-0.4,0.4-0.6,1.1-0.2,1.8c1.3,2.3,2.3,4.8,3.1,7.3
			c-10.3,3.5-17.1,12-22.3,21.2c-0.3,0.6-0.2,1.1,0,1.6c0.1,0.5,0.4,1,1,1.3c8.5,3.4,17.2,6.6,26.2,5.4c-1.1,1.8-2,3.8-2.6,5.9
			c-0.1,0.2-0.1,0.4,0,0.6c-0.7,1,0.2,2.8,1.7,2.5c4.5-0.9,8.9-2.1,13.3-3.6c0.4,0,0.8-0.2,1.1-0.5c0.2-0.2,0.3-0.4,0.4-0.6
			c0.8-1.3,1.6-2.6,2.6-3.7c0.4,2.1,0.5,4.3,0.6,6.5c-0.4,1,0.5,2.5,1.9,2.1c1.6-0.4,3.2-0.6,4.8-0.7c0.5,0,0.9-0.2,1.2-0.6
			c0.1-0.1,0.1-0.1,0.2-0.2c1.5-2.2,3.2-4.2,5.2-6c0.7,1.4,1.7,2.6,3.1,3.4c0.9,0.5,1.7,0.1,2.1-0.6c0.1-0.1,0.2-0.3,0.3-0.5
			c1.1-3.1,2.7-5.9,4.7-8.5c0.2-0.2,0.3-0.5,0.3-0.7c0.2-0.2,0.3-0.5,0.3-0.9c0.3-5.1-0.5-10.1-2.2-14.9c12-1.1,22.7-9.6,21.6-22.7
			c0.4,0.2,0.7,0.4,1.1,0.6c0.3,0.3,0.7,0.5,1.1,0.6c0.8,0.2,1.6-0.5,1.7-1.4c0.2-0.4,0.4-0.8,0.6-1.1c0.1,0,0.1,0.1,0.2,0.1
			c4.3,2.4,8.5,5.1,12.4,8.1c-1.4,6.5-3.1,13.2-1.5,19.5c1.4,5.7,7.2,11.2,13.5,9.5c4.6-1.2,6.7-5.3,7.1-9.6
			c5.2,7.1,9.5,14.9,12.7,23.2c0.7,1.9,3.7,1.1,3-0.8c-3.9-10.1-9.3-19.5-16.1-27.8c0,0,0-0.1,0-0.2c0-0.2-0.1-0.4-0.2-0.6
			c-1.3-2.9-3.6-6.4-3.5-9.6c0.1-2.9,2.7-3.8,5.1-2.3c1.2,0.7,2.1,1.9,3,3c0.2,0.3,0.5,0.4,0.7,0.5c1.5,3.4,2,7,1.2,10.7
			c-0.1,0.7,0.2,1.3,0.7,1.6c0.2,0.3,0.4,0.5,0.8,0.7c3.1,1.2,5.5,3.5,6.9,6.5c0.1,0.2,0.3,0.4,0.4,0.5c0.6,0.7,1.9,1,2.6-0.1
			c1.5-2.2,3.9-3.4,6.5-3.3c1,0,1.5-0.8,1.5-1.5c0-0.1,0-0.2,0-0.4c0-2.7,1.2-5.2,3.4-6.7c0.4-0.3,0.6-0.7,0.7-1.1
			C347.6,103.7,347.6,103,347,102.5z M57.4,99.6c-1.6-1.2-3.5-1.9-5.2-2.8c0.2-0.2,0.4-0.4,0.6-0.6c0.1-0.2,0.3-0.3,0.3-0.5
			c0.7-0.5,1.2-1.6,0.4-2.5c-1.8-2.1-3.1-4.5-4.1-7.1c0.4,0,0.9,0,1.3,0c0.6,0,1.1-0.4,1.4-0.9c0.5-0.3,0.8-0.9,0.6-1.7
			c-1-4.1-1.3-8.2-0.9-12.4c8.8,0.1,17.7,2.6,22.8,10.3c0.1,0.1,0.2,0.2,0.3,0.3c0.5,0.7,1.6,1.1,2.5,0.4c0.2-0.2,0.4-0.3,0.6-0.5
			c0.4,2.6,1.2,5.1,2.5,7.4c-1.1,0.4-2.1,0.9-3,1.5c-0.6,0.4-0.9,1.1-0.7,1.7c0,0.1-0.1,0.3-0.1,0.4c0.1,1.2,0.6,2.3,1.4,3.1
			c-0.8,0.6-1.5,1.2-2.1,1.9c-5-1-9.7,1.6-11.5,6.3c-0.9,0.2-1.8,0.3-2.8,0.4C60.7,102.7,59.3,100.9,57.4,99.6z M47.4,139.8
			c-0.7-1.3-1-2.7-0.8-4.2c0.2-0.4,0.2-0.9,0.1-1.4c-0.3-1-1.6-1.5-2.4-0.9c-5.1,0.8-10.2,1.2-14.7-1.7c-2.3-1.5-4.2-2.9-6.6-3.7
			c0.2-0.5,0.4-1,0.7-1.4c0.6-0.3,0.9-0.9,0.9-1.6c2.8-4.4,7.1-7.7,12.2-9.2c0.9-0.3,1.2-1.1,1.1-1.9c0.4-0.8,0-1.5-0.6-2
			c-0.6-0.5-1.3-1-1.9-1.5c1.4-0.6,2.8-1.3,4.3-1.8c2.9-0.9,5.3-0.1,8,0.9c1.3,0.5,2.1-0.8,1.8-1.9c0.1-0.5,0.3-1,0.5-1.5
			c1.5,1.6,3.5,2.4,5.4,3.7c3.2,2.2,4.1,5.9,4.7,9.5c-0.2,0.3-0.3,0.8-0.1,1.3c1.7,4.3,2.5,8.6,2.4,13.2c-0.6-0.3-1.2-0.6-1.8-0.9
			c-0.8-0.4-1.7-0.2-2.1,0.6c-0.1,0.2-0.2,0.5-0.2,0.7C55.9,137.3,51.2,138.5,47.4,139.8z M211.3,50.3c-2.7-1.2-2.3-4.5-1.7-7.5
			C210.9,45,211.5,47.6,211.3,50.3z M125.2,128.4c-3.4-0.9-7.3-0.5-9.9-2.8c-1-0.9-2.2-0.2-2.6,0.7c-0.3,0.3-0.5,0.8-0.3,1.4
			c0.5,1.6,0.8,3.2,1.1,4.8c-0.5-0.2-1.1-0.5-1.6-0.7c-0.5-0.2-1.1-0.2-1.5,0c-0.1,0-0.1,0.1-0.2,0.1c0,0,0,0,0,0
			c-0.3,0.2-0.5,0.5-0.6,0.8c-0.8,2.7-2.1,5.2-3.9,7.4c-1.5-2.1-2.9-4.2-4.4-6.3c-0.2-1.1-1.6-2-2.6-0.9c-1.5,1.7-2.9,3.4-4.4,5.1
			c-0.1,0.2-0.4,0.5-0.6,0.8c0-0.1-0.2-0.2-0.3-0.5c-0.6-1.1-1.4-2.2-2.1-3.2c-0.3-0.4-0.6-0.6-1-0.7c-0.4-0.2-0.9-0.2-1.4,0.2
			c-1.9,1.4-3.9,2.3-6.2,2.8c-0.9-1.6-1.8-3.2-2.8-4.8c-0.1-0.3-0.3-0.4-0.5-0.6c-0.2-0.3-0.5-0.5-0.9-0.6c-2.5-0.3-4.9-0.8-7.3-1.3
			c1.5-2.3,3.3-4.3,5.4-6c0.2,0,0.4-0.1,0.6-0.2c0.8-0.5,0.9-1.4,0.6-2.1c-0.3-0.6-0.6-1.3-0.8-1.9c0.5,0.1,1.1,0.2,1.6,0.3
			c0.6,0.2,1.1-0.1,1.5-0.4c0.6-0.2,1.2-0.6,1.3-1.4c0.3-2.1,0.5-4.1,0.8-6.2c3,0.1,6,0.1,9,0.2c2,0,2-3.1,0-3.1
			c-0.9,0-1.7,0-2.6-0.1c-1.8-1.3-3.3-2.8-4.5-4.6c2.1-1.3,3.6-3.4,4.3-5.9c1.7,0.2,3.3,0.5,5,0.7c1.8,0.3,2.7-2.3,1.2-2.9
			c-0.1-0.1-0.1-0.3-0.2-0.4c-1.2-1.5-2.4-3-3.7-4.5c1.2-0.8,2.1-1.9,2.6-3.3c2.9,2.1,6.8,1.9,9.4-0.7c2,1.6,3.9,3.3,5.7,5.1
			c0.1,0.3,0.3,0.6,0.7,0.8c0.8,0.4,1.7,0.2,2.1-0.6c0-0.1,0.1-0.1,0.1-0.2c0.7,4.3,0.4,8.6-1,12.9c-0.1,0.5-0.1,0.8,0.1,1.2
			c0.2,0.6,0.6,1.1,1.4,1.2c4,0.2,7.7,1.4,10.9,3.7c-0.1,0.1-0.3,0.2-0.4,0.4c-1.1,0.2-1.8,2-0.6,3
			C125.6,118.3,125.6,123.6,125.2,128.4z M116.8,105.6c0,0-0.1,0.1-0.1,0.1c-1-0.3-2.1-0.5-3.2-0.6c0.3-1,0.5-2.1,0.7-3.1
			c3.2-1.2,6.4-2.5,9.6-3.7C121.8,101.1,119.5,103.6,116.8,105.6z M176.7,91.7c-0.4,0.2-0.8,0.4-1.1,0.7c-1.2,0.1-2.2,1.6-1.1,2.7
			c3,2.9,5,6.3,6.1,10.2c-0.9-0.2-1.8-0.4-2.8-0.4c-0.5,0-0.8,0.2-1.1,0.4c-0.4,0.2-0.7,0.5-0.7,1c-0.6,3.8-4.6,3.6-7.6,4.7
			c-0.9-1.8-2.4-3-4-4.2c-1.6-1.2-3.2,1.5-1.6,2.7c2.6,1.9,3.3,3.6,3.2,6.7c-0.1,2-0.2,3.9,0.4,5.8c-4,3.9-8.9,7.8-11.7,12.8
			c-2-2.1-4.1-4.2-6.2-6.2c-1.3-1.2-2.6-2.2-4.2-2.5c0.3-3.8-0.8-7.3-3.1-10.3c0.4-1.8,1.3-3.5,2.6-4.9c0.3-0.3,0.4-0.6,0.4-1
			c0.4-1.2-0.8-2.8-2.2-1.9c-3.4,2.2-7.1,3.7-11.2,4.2c-0.4-2.9,0.2-5.3,1.1-8.1c0.5-1.7,0.7-3.1,0.3-4.6c0.9-0.4,2-0.7,3-0.8
			c1.4-0.1,1.8-1.6,1.3-2.5c0-0.4-0.1-0.7-0.5-1c-2.7-2.1-4.6-5-5.3-8.4c3.3-0.8,6.6-0.8,9.9,0c0.2,0,0.4,0.1,0.5,0
			c0.1,0,0.1,0,0.2,0c0.9,0,1.5-0.7,1.6-1.6c0.1-0.7,0.2-1.4,0.3-2.1c3.4,2,6,4.7,7.9,8.2c0,1.2,1.5,1.8,2.4,1.3
			c0.3,0,0.5-0.2,0.8-0.4C160.9,87.1,169.9,86.8,176.7,91.7z M152.3,87.7c-2.4-3.3-5.5-6-9.3-7.8c-0.1-0.1-0.2-0.1-0.3-0.1
			c-0.2-0.1-0.5-0.2-0.8-0.2c-0.9,0-1.5,0.7-1.6,1.6c-0.1,0.9-0.2,1.8-0.3,2.6c-3.7-0.7-7.4-0.5-11,0.5c-0.1,0-0.2,0.1-0.3,0.1
			c-0.7,0-1.4,0.5-1.3,1.5c0.2,2.5,1,4.8,2.1,6.9c-5,2-10.1,3.9-15.1,5.9c0-0.8,0-1.7,0-2.5c4-0.6,6.5-3.5,9-6.6
			c3.6-4.6,7.7-8.5,12.6-11.7c9.7-6.4,20.8-10.1,31.7-13.7c0,0,0.1,0,0.1,0C160.8,70.5,155.5,78.6,152.3,87.7z M211.9,84.3
			c-1-1.2-1.9-2.4-2.6-3.7c-0.7-1.3-2.3-0.8-2.8,0.2c-0.1,0.1-0.2,0.3-0.3,0.5c-2.4,6.3-10.2,8.3-14.9,12.9
			c-1.2-4.9-0.9-9.8,0.9-14.6c0.6-1.8-1.9-2.6-2.8-1.2c0,0-0.1,0-0.1,0.1c-1.4,0.8-2.7,1.6-4.1,2.3c-0.1-2.3-1-4.4-2.7-6.1
			c-1.3-1.3-2.8-2.1-4.4-2.9c-0.8-0.4-0.8,0.3-0.9-0.5c0-0.4,0.2-1,0.5-1.6c3.8,1.2,6.6,4.5,10.8,4.2c0.5,0.2,1,0.1,1.4-0.4
			c3.4-4.1,1.1-9.3-3.5-11.2c-6.3-2.6-15.4,1.3-20.8-2.9c0.9-0.3,1.9-0.6,2.8-0.7c0.9-0.2,1.2-0.8,1.1-1.5c0.3-0.5,0.4-1.3-0.2-1.9
			c-4.9-5-7.5-11.4-7.4-18.3c2.4,2.3,5.4,3.3,9.2,2.9c2.6-0.3,5.2-1.2,7.9-1.3c4.2-0.2,6.8,2.4,9.3,5.5c0.3,0.4,0.8,0.6,1.2,0.6
			c0.8,0.2,1.6,0,1.8-1.1c0.8-4.2-0.4-8.4-3.2-11.4c2.5-0.1,4.9,0,7.4,0.1c1.1,0.1,1.6-0.9,1.5-1.8c0.5-1.3,0.8-2.6,1.1-4
			c1.6,1.2,2.4,3.7,4,5.1c1.4,1.3,3.1,1.8,5,1.8c0.9,5-1.8,9.6-1,14.7c0.5,3,2.4,5.2,5.3,5.9c0.6,0.1,1.1-0.1,1.4-0.4
			c0.6,0,1.2-0.3,1.3-1.1c0.8-4.1,0-8-2.2-11.4c1.1,0.1,2.2,0.5,3.3,1c1.6,0.8,3-1.1,2.1-2.3c1-4.4,3.3-8.2,6.8-11.1
			c1.3,4.2,1.7,8.5,1.2,12.9c0,0.1,0,0.3,0,0.4c-0.1,1,0.7,2,1.9,1.6c0.6-0.2,1.1-0.3,1.7-0.5c-1.1,3.9-4.1,6.9-7,9.7
			c-0.8,0.8-0.5,1.7,0.2,2.3c0.1,0.2,0.3,0.5,0.6,0.6c0.8,0.4,1.7,0.8,2.5,1.1c-3,2.1-5.9,4.4-8.5,6.9c-0.6,0.6-0.6,1.3-0.3,1.8
			c0,0.1,0,0.2,0.1,0.3C218.4,72.4,216.6,79.3,211.9,84.3z M254.7,130.6c-0.5-0.6-0.8-1.3-0.9-2c0.1-0.9-0.6-1.9-1.5-1.8
			c0,0-0.1,0-0.1,0c-0.5,0-1.1,0.4-1.4,0.9c-2.6,2-4.8,4.4-6.7,7.1c-0.9,0-1.9,0.1-2.8,0.3c-0.1-2.8-0.4-5.7-1.3-8.4
			c0-0.2-0.1-0.3-0.2-0.4c-0.2-0.5-0.6-0.7-1-0.8c-0.4-0.1-0.9-0.1-1.3,0.2c-0.1,0.1-0.3,0.2-0.4,0.3c-1.9,1.7-3.5,3.7-4.7,5.9
			c-3.4,1.2-6.9,2.2-10.4,2.9c0.9-2.4,2.2-4.6,3.9-6.5c0.9-1,0.3-2.2-0.7-2.6c-0.3-0.1-0.6-0.2-1-0.1c-9.3,2.6-18.3-0.5-27-4
			c4.9-8.5,11.3-16.3,21.1-19.1c0,0,0.1,0,0.1,0c0.8-0.2,1.4-0.9,1.1-1.9c-0.7-2.7-1.7-5.4-3-7.9c5.7-1.3,11.3-1.4,17.1-0.5
			c0.9,0.5,2.2,0,2.4-0.9c0.3-0.7,0.2-1.6-0.7-1.9c-1-2-2.3-3.8-3.9-5.3c1.7-0.6,3.4-1.1,5.1-1.7c2.4,1.6,4.6,3.4,6.5,5.6
			c0.5,0.5,1,0.6,1.5,0.4c0.6-0.1,1.1-0.5,1.4-1.1c0.4-1,0.7-2.1,0.8-3.2c1.9,0.7,3.8,1,5.9,1.1c2.6,6.8,2.4,13.9-0.7,20.6
			c-0.3,0.6-0.2,1.3,0.2,1.7c0.1,0.4,0.5,0.8,1.1,0.9c1.2,0.2,2.4,0.3,3.6,0.3c1.8,4.7,2.6,9.5,2.4,14.6c-0.1,0.1-0.1,0.1-0.2,0.2
			C257.3,125.6,255.9,128,254.7,130.6z M275.2,82.1c-0.8,0.2-1.2,0.8-1.1,1.5c-0.1,0.2-0.1,0.5,0,0.8c0.3,1.5,0.4,3,0.4,4.5
			c-3.1-3-7.2-4.6-11.6-4.6c0.1-3.4-2.4-6.2-5.9-6.7c-0.3-1.6-1.2-3.2-2.8-3.8c-1.4-0.5-2.8-0.2-3.7,0.8c-4-2.1-8.1-4-12.3-5.7
			c3.6-6.5,5.2-16.8,1.3-23.3c2.1,0.4,4.2,0.8,6.3,1.3c1.6,0.3,2.4-1.5,1.7-2.5c-0.1-1.6-0.2-3.1-0.2-4.7c1,0.5,2,1.1,2.9,1.8
			c0.4,1.1,2.1,1.7,2.8,0.3c0-0.1,0.1-0.2,0.1-0.3c0.1-0.2,0.3-0.4,0.3-0.6c0.5-1.2,0.9-2.5,1.1-3.9c2.1,2,3.5,4.5,4.1,7.4
			c0,0.1,0.1,0.3,0.1,0.4c0.2,1.5,2.6,2,3,0.2c0.6-2.7,1.4-5.3,2.5-7.8c0.6,0.7,1.2,1.4,1.7,2.2c0.4,1.1,2.1,1.7,2.8,0.3
			c0.8-1.8,1.9-3.4,3.3-4.8l0,0c3.7-1.3,7.4-0.3,11.1,0.4c2.6,0.5,5.3,1,7.9,1.5c-3.6,4.3-5.2,9.9-5.3,15.5c-3.2,1.8-5.3,5-5.9,8.6
			c-1.9,0.2-3.7,0.8-5.4,1.8c-0.6,0.4-0.8,1-0.7,1.6c-0.1,0.7,0.1,1.5,1.1,1.7c6.1,1.1,11.5,3.5,16.3,7.4c-3.1,2.7-5.7,5.9-7.7,9.5
			C280.8,81.7,278,81.4,275.2,82.1z M287.8,81.7C287.8,81.7,287.8,81.7,287.8,81.7c1.7-2.6,3.9-5,6.4-7c0.7-0.5,0.7-1.3,0.3-1.8
			c0-0.4-0.1-0.7-0.5-1c-4.2-3.6-9-6.2-14.2-7.8c0.3,0,0.5-0.1,0.8-0.1c0.1,0,0.2,0,0.3,0c0.8,0,1.7-0.5,1.7-1.5
			c0.1-1.8,0.7-3.5,1.7-4.9c0.1,0.2,0.3,0.3,0.5,0.4c4.4,2.6,9,5.4,11.7,9.8c2.9,4.6,3.7,10.1,3.4,15.5c-0.1,1.9-0.4,3.9-0.7,5.9
			C295.7,86.4,291.8,83.9,287.8,81.7z M310.9,118c-4.6,2.3-9.3-2.1-10.6-6.2c-1.7-5.4-0.2-11.4,1.1-17.2c4.8,3.9,9.2,8.3,13.1,13.1
			C315.2,111.5,314.7,116.1,310.9,118z M340.1,110.9c-2.3,0.3-4.4,1.3-6.1,2.9c-1.7-2.7-4.2-4.8-7.1-6.1c0.7-4.4,0-8.7-2-12.7
			c3.6-10.2,3.1-20.9,1.8-31.5c1.9,1.9,4.1,3.5,6.5,4.8c0.5,1.9,1.6,3.6,3.1,4.9c-1.3,2.2-1.7,4.9-1.1,7.4c0,0-0.1,0-0.1,0
			c-4,3.2-7,11-2.8,15.3c4.2,4.2,7.2-1.3,8.3-5.9c0.7,0.8,1.4,1.4,2.2,2.1c-1.9,3.7-1.5,8.2,1.1,11.5
			C341.7,105.5,340.4,108.1,340.1,110.9z"/>
		<path d="M252.4,76.8C252.4,76.8,252.4,76.8,252.4,76.8C252.4,76.8,252.4,76.8,252.4,76.8C252.4,76.8,252.4,76.8,252.4,76.8z"/>
		<path d="M283.4,73.4c-4.3-3.4-9.2-5.2-14.4-6.4c-0.1,0-0.1-0.1-0.2-0.2c-0.4-0.3-0.8-0.3-1.1-0.1c-1.6-0.4-3.3-0.7-4.9-1
			c0.1-0.4,0.3-0.8,0.4-1.2c1.3-0.5,2.6-0.7,4.1-0.6c1.3,0.1,1.3-2,0-2.1c-1-0.1-2,0-3,0.2c0.3-0.7,0.6-1.4,1-2.1
			c1.2-0.4,2.4-0.6,3.7-0.5c1.3,0.1,1.3-2,0-2.1c-0.8,0-1.6,0-2.3,0.1c0.2-0.4,0.5-0.8,0.7-1.1c0.1,0,0.2-0.1,0.2-0.1
			c1.4-0.8,2.9-1.1,4.5-1c1.3,0.1,1.3-2,0-2.1c-0.9,0-1.8,0-2.7,0.2c0.4-0.6,0.9-1.2,1.4-1.7c1.2,0.1,2.4-0.1,3.5-0.3
			c1.3-0.3,0.8-2.3-0.6-2c-0.3,0.1-0.7,0.1-1,0.2c0.4-0.5,0.9-0.9,1.4-1.4c0.5,0.1,1.1,0.2,1.6,0.4c0.6,0.1,1.1-0.2,1.3-0.7
			c0.1-0.5-0.2-1.2-0.7-1.3c-0.1,0-0.2,0-0.3-0.1c0.9-0.8,1.9-1.6,2.9-2.3c1.1-0.8,0-2.6-1.1-1.8c-1.7,1.2-3.2,2.5-4.7,3.9
			c0,0-0.1,0.1-0.1,0.1c-3.7,3.5-6.7,7.5-9.1,11.9c0,0-0.1,0-0.1,0c-0.5,0.2-0.6,0.7-0.5,1.1c-0.7,1.5-1.4,3-2,4.6
			c-0.6-0.8-1.2-1.5-1.8-2.3c0.1-1.2,0.5-2.3,1.3-3.3c0.8-1.1-1-2.1-1.8-1.1c-0.4,0.6-0.8,1.2-1,1.8c-0.4-0.6-0.7-1.2-1-1.9
			c0-0.1,0-0.2,0-0.3c0-1.2,0.4-2.3,1.2-3.1c0.9-1-0.6-2.5-1.5-1.5c-0.5,0.6-0.8,1.1-1.1,1.8c-0.3-0.7-0.6-1.5-0.8-2.2
			c0,0,0,0,0.1-0.1c0.3-0.3,0.6-0.6,0.8-0.8c1-0.9-0.5-2.4-1.5-1.5c0,0-0.1,0.1-0.1,0.1c-0.1-0.3-0.2-0.7-0.3-1
			c-0.3-1.3-2.3-0.8-2,0.6c1.2,4.7,3.1,9,5.7,13c0,0,0,0.1,0,0.1c0,0.5,0.3,0.8,0.7,0.9c0.5,0.6,0.9,1.3,1.4,1.9
			c-1.1-0.1-2.2,0-3.3,0.2c0-0.1-0.1-0.1-0.1-0.2c-0.7-0.8-1.5-1.5-2.2-2.3c-0.9-1-2.4,0.5-1.5,1.5c0.4,0.5,0.9,0.9,1.3,1.4
			c-0.6,0.1-1.2,0.2-1.8,0.3c-1.3-0.6-2.3-1.6-2.8-2.9c-0.5-1.3-2.5-0.7-2,0.6c0.3,1,0.9,1.8,1.5,2.6c-1.3-0.1-2.5-0.4-3.6-1.1
			c-1.1-0.7-2.2,1.1-1.1,1.8c5.1,3.3,10.5-0.5,15.8,0.4c-0.8,1-1.5,2-2.1,3.1c-0.6,1.2,1.2,2.2,1.8,1.1c0.6-1.1,1.4-2.2,2.2-3.2
			c0.5,1.4,0.6,2.9,0.3,4.3c-0.3,1.3,1.7,1.9,2,0.6c0.1-0.4,0.1-0.8,0.2-1.2c1,1.3,1.5,2.9,1.2,4.5c-0.2,1.3,1.8,1.9,2,0.6
			c0.1-0.4,0.1-0.8,0.1-1.2c0.4,0.5,0.8,1,1.2,1.5c0.8,1,2.3-0.4,1.5-1.5c-2-2.5-4-5.1-5.9-7.7c1.3,0.2,2.5,0.5,3.8,0.8
			c1.2,1,2.1,2.2,2.9,3.7c0.6,1.2,2.4,0.1,1.8-1.1c-0.3-0.6-0.7-1.1-1-1.7c0.9,0.3,1.8,0.6,2.6,0.9c0.9,1.2,1.5,2.6,1.7,4.1
			c0.2,1.3,2.2,0.8,2-0.6c-0.1-0.8-0.3-1.5-0.6-2.2c1.6,0.8,3.1,1.7,4.6,2.9C283,75.7,284.5,74.2,283.4,73.4z"/>
		<path d="M252.9,117.5c1,0.9,2.5-0.6,1.5-1.5c-1.2-1-2.4-2-3.6-3.1c-0.1-0.1-0.3-0.2-0.4-0.2c-1.1-2.6-3.1-4.4-5-6.5
			c0.1-0.1,0.2-0.2,0.2-0.3c0.3-0.3,0.3-0.7,0.2-1c0-0.1,0-0.1,0-0.2c-0.2-1-0.1-1.9,0.1-2.9c0.1,0,0.3,0,0.4-0.1
			c0.8-0.4,1.7-0.7,2.5-1.1c0.5-0.2,0.6-1,0.4-1.4c-0.3-0.5-0.9-0.6-1.4-0.4c-0.4,0.2-0.8,0.4-1.2,0.5c0.2-0.6,0.4-1.3,0.7-1.9
			c0.8-0.4,1.6-0.9,2.4-1.3c1.2-0.6,0.1-2.4-1.1-1.8c-0.2,0.1-0.4,0.2-0.6,0.3c0.2-0.8,0.2-1.6,0.2-2.5c-0.1-1.3-2.2-1.3-2.1,0
			c0.3,4.4-2.8,8.1-2.4,12.4c-0.4-0.3-0.8-0.5-1.2-0.8c-0.1-0.1-0.1-0.2-0.2-0.3c-1.7-1.6-2.6-3.7-2.4-6c0.1-1.3-2-1.3-2.1,0
			c-0.1,1.3,0.1,2.6,0.5,3.8c-0.5-0.3-1.1-0.6-1.6-0.9c0-0.1-0.1-0.2-0.1-0.4c-0.8-1.3-1.5-2.8-2-4.3c-0.4-1.3-2.4-0.7-2,0.6
			c0.3,0.8,0.6,1.6,1,2.4c-1.4-0.7-2.8-1.3-4.2-1.9c-1.2-0.5-2.3,1.3-1.1,1.8c4.4,1.9,8.5,4,12.5,6.5c-3.9,1.4-7.7,0.8-11.8,0.8
			c-3.7,0.1-7.4,0.6-10.9,1.7c-5.7,1.9-10.6,5.3-14.2,10.2c-0.8,1.1,1,2.1,1.8,1.1c1.8-2.4,3.9-4.4,6.4-6c-0.9,1.3-1.6,2.7-2.1,4.2
			c-0.4,1.3,1.6,1.8,2,0.6c1-3.2,3.1-5.8,5.9-7.5c0.1-0.1,0.2-0.2,0.3-0.3c0.2-0.1,0.5-0.2,0.7-0.2c-1.6,1.6-2.7,3.6-3.3,5.9
			c-0.3,1.3,1.7,1.9,2,0.6c0.8-3.1,2.8-5.6,5.6-7.1c0.2-0.1,0.4-0.3,0.5-0.5c0.7-0.1,1.4-0.2,2.2-0.3c0,0,0.1,0,0.1,0
			c-2.4,2.3-4.2,5.1-5.1,8.4c-0.4,1.3,1.6,1.8,2,0.6c1-3.5,3-6.5,5.9-8.6c0.2-0.1,0.3-0.3,0.4-0.5c1.4,0,2.7,0,4,0
			c-2.2,1.6-4,3.7-5.5,6c-0.7,1.2,1.1,2.2,1.8,1.1c1.7-2.8,4-5,6.8-6.7c0.2-0.1,0.4-0.3,0.4-0.5c1.7-0.1,3.4-0.4,5.1-1.1
			c-4,4.5-8.1,9-12.2,13.5c-0.9,1,0.6,2.5,1.5,1.5c1-1.1,1.9-2.1,2.9-3.2c0.1,0.4,0.1,0.8,0.2,1.2c0.3,1.3,2.4,0.7,2-0.6
			c-0.2-1-0.3-1.9-0.2-2.9c0.4-0.5,0.9-1,1.3-1.5c0.4,1.3,1,2.6,1.8,3.8c0.7,1.1,2.5,0.1,1.8-1.1c-0.9-1.4-1.5-2.9-1.9-4.5
			c0,0,0-0.1,0-0.1c0.7-0.7,1.3-1.5,2-2.2c0.1,0.8,0.4,1.5,0.9,2.3c0.7,1.1,2.5,0.1,1.8-1.1c-0.6-0.9-0.9-2-0.7-3.1
			c0-0.1,0-0.2,0-0.3c0.3-0.4,0.7-0.8,1-1.2c1.5,1.6,3.1,3.1,4.1,5.1c0.8,1.5,1.2,3.2,1.3,4.8c-0.2,0.3-0.2,0.7,0,1.1
			c0,0.9-0.2,1.8-0.4,2.7c-0.3,1.3,1.7,1.9,2,0.6c0.1-0.5,0.2-1,0.3-1.5c0.5,0.5,0.9,1.1,1.2,1.8c0.6,1.2,2.4,0.1,1.8-1.1
			c-0.7-1.3-1.6-2.5-2.8-3.4c0-0.6-0.1-1.1-0.1-1.7C251.9,116.6,252.4,117.1,252.9,117.5z"/>
		<path d="M207.5,66.8c0.3-1.3,0.4-2.6,0.4-4c1.5-0.8,2.4-2,3.6-3.3c1.5-1.7,3.4-2.8,5.2-4.2c2.8-2,5-4.6,4.8-8.2
			c-0.1-1.3-2.2-1.3-2.1,0c0.3,4.4-3.8,6.3-6.8,8.6c-1.8,1.3-3.1,3.3-4.8,4.6c0,0-0.1-0.1-0.1-0.1c-2.2-1.2-4-2.6-5.3-4.2
			c0-0.4-0.2-0.8-0.7-1c-1.1-1.6-1.7-3.5-2-5.8c0.1-0.1,0.1-0.3,0.1-0.4c0.2-4.4,5.2-8.4,1.6-12.7c-0.9-1-2.3,0.5-1.5,1.5
			c1.7,2,0.1,4.6-0.9,6.5c0,0.1-0.1,0.1-0.1,0.2c-0.3-1.7-0.9-3.3-1.8-5c-0.6-1.2-2.4-0.1-1.8,1.1c2.3,4.4,1.3,9.3,3.2,13.7
			c-1.8-0.8-3.3-2.1-4.5-3.9c-0.7-1.1-2.5-0.1-1.8,1.1c1.9,2.8,4.6,4.8,7.9,5.6c1.4,1.8,3.2,3.2,5.1,4.4c-4,0.5-7.8-1.4-11.5-3.2
			c-0.1-0.1-0.2-0.2-0.3-0.3c-2.3-1.5-4-3.7-4.9-6.2c-0.5-1.2-2.5-0.7-2,0.6c0.5,1.4,1.2,2.6,2,3.8c-0.5-0.2-1-0.3-1.5-0.4
			c-0.6-0.1-1.3-0.3-1.9-0.5c0-0.1-0.1-0.2-0.2-0.3c-1.7-1.7-2.9-3.7-3.6-6c-0.4-1.3-2.4-0.7-2,0.6c0.5,1.6,1.1,3,2,4.3
			c-3.5-1.5-5.8-5-5.9-8.8c0-1.3-2.1-1.3-2.1,0c0.1,2.2,0.7,4.2,1.8,5.9c-1.6-1.2-3-2.7-4.3-4.6c-0.7-1.1-2.6-0.1-1.8,1.1
			c1.1,1.7,2.4,3.1,3.7,4.2c-0.3,0-0.7-0.1-1-0.2c-1.3-0.3-1.9,1.7-0.6,2c1.3,0.3,2.6,0.4,3.9,0.4c0.2,0,0.3-0.1,0.4-0.1
			c0.6,0.4,1.2,0.7,1.8,1c-0.8,0.4-1.6,0.8-2.4,1.1c-1.2,0.6-0.2,2.4,1.1,1.8c1.3-0.6,2.6-1.2,3.9-1.8c0.3,0.1,0.6,0.2,0.8,0.3
			c-0.1,0-0.2,0.1-0.3,0.1c-1.3,0.4-0.7,2.4,0.6,2c1.1-0.4,2.2-0.7,3.3-1.1c0.3,0.1,0.5,0.1,0.8,0.2c7,1.5,13.3,6.9,20.7,6.1
			c0,0.3,0,0.6,0,0.8c0,0,0,0,0,0c-1.3,2.4-3.5,4-6.1,4.5c-1.3,0.3-0.8,2.3,0.6,2c1.7-0.3,3.2-1,4.5-2c-0.7,1.5-1.6,2.9-2.6,4.3
			c-0.3-0.1-0.6,0-0.9,0.2c-0.8,0.7-1.8,1.2-2.9,1.4c-1.3,0.3-0.8,2.3,0.6,2c0.2,0,0.4-0.1,0.6-0.2c-1.3,1.7-2.6,3.5-3.6,5.5
			c-0.6,1.2,1.2,2.3,1.8,1.1c0.6-1.4,1.5-2.7,2.5-3.9c0.2,0.8,0.4,1.5,0.9,2.3c0.7,1.2,2.5,0.1,1.8-1.1c-0.6-1-0.9-2.2-0.7-3.4
			c0-0.1,0-0.2,0-0.2c0.6-0.7,1.2-1.4,1.7-2.1c0.8,1.3,1.9,2.3,3.4,2.8c1.3,0.5,1.8-1.5,0.6-2c-1.3-0.5-2.2-1.6-2.6-2.8
			c0.6-1,1.1-2,1.5-3c1,1.6,2.3,3.1,3.8,4.4c1,0.9,2.5-0.6,1.5-1.5C210,70.9,208.6,69,207.5,66.8z"/>
		<path d="M152.5,96.6c-4.5-0.4-8-3.8-12.3-4.8c-1.3-0.3-1.9,1.7-0.6,2c1.5,0.3,2.9,0.9,4.2,1.6c-0.9,0.1-1.9,0.2-2.8,0.3
			c-1.3,0.2-0.8,2.3,0.6,2c1.7-0.3,3.3-0.4,5-0.3c0.4,0,0.6-0.1,0.8-0.3c1,0.5,2,0.9,3.1,1.2c-4.9,2.8-11.5,1.7-15.2,6.8
			c-0.8,1.1,1,2.1,1.8,1.1c1.2-1.6,2.8-2.5,4.5-3.2c-0.2,0.3-0.5,0.7-0.6,1c-0.6,1.2,1.2,2.3,1.8,1.1c0.5-1.1,1.3-1.9,2.3-2.5
			c0.3-0.2,0.5-0.4,0.5-0.7c0.3-0.1,0.7-0.2,1-0.2c-0.2,0.4-0.4,0.8-0.6,1.2c-0.4,1.3,1.6,1.8,2,0.6c0.3-0.8,0.8-1.5,1.4-2
			c0.2-0.2,0.3-0.4,0.3-0.6c0.6-0.2,1.1-0.4,1.7-0.7c-0.4,2.3-0.7,4.5-1,6.8c0,0.1,0,0.2,0,0.3c0,0.2,0,0.3-0.1,0.5
			c-1.2,1.7-2.5,3.3-3.7,5c-0.8,1.1,1,2.1,1.8,1.1c0.5-0.7,1.1-1.4,1.6-2.2c-0.1,1-0.1,1.9-0.1,2.9c-0.2,0.2-0.4,0.4-0.4,0.7
			c-1,1.3-1.9,2.7-2.7,4.2c-0.6,1.2,1.2,2.2,1.8,1.1c0.4-0.8,0.9-1.6,1.4-2.3c0,0.7,0.1,1.5,0.2,2.2c-0.2,0.2-0.3,0.3-0.3,0.6
			c-0.9,1-1.5,2.2-1.9,3.5c-0.4,1.3,1.6,1.8,2,0.6c0.2-0.5,0.4-1,0.6-1.5c0.3,1.9,0.8,3.8,1.5,5.7c0.4,1.3,2.5,0.7,2-0.6
			c-0.5-1.3-0.8-2.6-1.1-4c0.7,0.4,1.5,0.8,2.4,1c1.3,0.3,1.9-1.7,0.6-2c-1.4-0.3-2.6-1.1-3.5-2.2c-0.1-1-0.2-2.1-0.3-3.1
			c1.3,1,2.8,1.8,4.4,2.2c1.3,0.3,1.9-1.7,0.6-2c-2-0.5-3.8-1.6-5.1-3.2c0-1.6,0.1-3.3,0.2-4.9c0.3,0.3,0.6,0.7,1,1
			c1.6,1.4,3.3,2.7,4.9,4.1c1,0.9,2.5-0.6,1.5-1.5c-1.4-1.2-2.8-2.3-4.1-3.5c-1.2-1-2.5-2-2.9-3.6c0.3-2.6,0.7-5.2,1.1-7.8
			c0.9,0,1.7,0.1,2.5,0.4c0,0,0.1,0.1,0.1,0.1c1,0.7,1.5,1.8,1.7,3c0.1,0.6,0.8,0.9,1.3,0.7c0.6-0.2,0.8-0.7,0.7-1.3
			c0-0.4-0.1-0.7-0.3-1c0.9,0.5,1.9,0.9,2.8,1.3c2.2,0.9,4.5,1.4,6.8,1.7c1.3,0.1,1.3-1.9,0-2.1c-0.8-0.1-1.6-0.3-2.4-0.5
			c0.4-0.2,0.8-0.5,1.3-0.7c1.2-0.7,0.1-2.5-1.1-1.8c-0.8,0.5-1.7,0.9-2.5,1.4c-0.1,0.1-0.2,0.1-0.3,0.2c-0.3-0.1-0.7-0.3-1-0.4
			c0.8-0.3,1.6-0.7,2.3-1.3c1-0.8-0.4-2.3-1.5-1.5c-1.3,1-3,1.3-4.5,0.8c-0.3-0.1-0.5-0.1-0.7,0.1c-1.2-0.5-2.5-0.8-3.8-1
			c2.1-1.5,4.4-2.4,7-2.6c1.3-0.1,1.3-2.2,0-2.1c-3.6,0.4-6.9,1.8-9.6,4.1C152.6,96.6,152.6,96.6,152.5,96.6z"/>
		<path d="M63.1,86.9c0.3,0.2,0.6,0.4,1,0.7c-1.2-0.1-2.5,0-3.8,0.4c-1.3,0.4-0.7,2.4,0.6,2c2.2-0.6,4.4-0.4,6.4,0.6
			c0.1,0,0.1,0,0.2,0.1c0.6,0.8,1,1.7,1.2,2.7c0.3,1.3,2.3,0.8,2-0.6c-0.3-1.5-1-2.7-1.9-3.8c0-0.1,0-0.2,0-0.4
			c-0.1-0.6,0.1-1.2,0.4-1.7c0.3-0.5,0.1-1.2-0.4-1.4c-0.5-0.3-1.1-0.1-1.4,0.4c-0.3,0.4-0.4,0.8-0.6,1.2c-0.1,0-0.1-0.1-0.2-0.1
			c-0.6-2.3-1.1-4.6-1.4-6.9c-0.2-1.3-2.2-0.8-2,0.6c0.2,1.5,0.5,3,0.9,4.5c-0.8-0.5-1.6-1.1-2.3-1.8c-1.7-1.7-2.8-3.8-3.9-5.8
			c-0.6-1.2-2.4-0.1-1.8,1.1c1.1,2.1,2.3,4.1,3.8,5.8c-0.7-0.1-1.5-0.3-2.2-0.4c-1.3-0.2-1.9,1.8-0.6,2c1.9,0.4,3.7,0.7,5.6,1.1
			C62.9,87,63,87,63.1,86.9z"/>
		<path d="M63,97.2c0.9,1,2.3-0.4,1.5-1.5c-1-1.3-2.5-2.1-4.1-2.4c-1.3-0.2-1.9,1.8-0.6,2C61,95.5,62.1,96.1,63,97.2z"/>
		<path d="M119.9,116.7c-1.1-0.6-2.4-0.9-3.6-0.8c-0.1,0-0.2,0-0.3,0.1c0,0,0,0-0.1,0c0.3-0.2,0.6-0.6,0.6-0.9c0-0.6-0.5-1-1-1
			c-0.9-0.1-1.9-0.1-2.8,0.1c-2.4-1.4-4.5-2.9-5.5-5.8c-0.1-0.3-0.3-0.4-0.5-0.6c-0.1-0.8-0.2-1.6-0.5-2.3c0-1.6,0.2-3.1,0.8-4.6
			c0.5-1.3-1.6-1.8-2-0.6c-0.2,0.6-0.4,1.2-0.5,1.8c-0.7-1.2-1.3-2.5-1-4c0.3-1.3-1.7-1.9-2-0.6c-0.3,1.3-0.1,2.4,0.3,3.4
			c-0.9-0.5-1.8-1-2.8-1.3c-1.3-0.5-1.8,1.5-0.6,2c1.9,0.7,3.5,1.8,4.9,3.2c0.2,0.2,0.3,0.2,0.5,0.3c0.1,0.2,0.2,0.4,0.2,0.6
			c0,0.1,0,0.3,0,0.4c0,0.3,0.1,0.5,0.3,0.7c-2.4,0.2-4.6-1.5-6.9-2c-1.8-0.4-3.6-0.4-5.4-0.1c-1.3,0.2-0.8,2.2,0.6,2
			c1.8-0.3,3.4-0.1,5,0.3c-0.4,0-0.7,0-1.1,0c-1.3,0-1.3,2.1,0,2.1c1.6,0,3.2,0,4.7,0c0.4,0,0.7-0.2,0.9-0.5
			c0.6,0.2,1.3,0.3,1.9,0.2c-0.7,2.4-2.1,4.5-3.9,6.3c-0.3-0.1-0.7-0.1-1,0.2c-1.8,1.4-4.1,1.7-6.2,0.9c-1.3-0.5-1.8,1.5-0.6,2
			c1.1,0.4,2.2,0.6,3.3,0.5c-0.9,0.6-1.7,1.1-2.7,1.6c-1.9-0.3-3.8-0.8-5.7-1.6c-1.2-0.5-2.3,1.3-1.1,1.8c1.2,0.5,2.5,1,3.8,1.3
			c-3,1.5-6.1,2.7-8.6,3.6c-1.3,0.5-0.7,2.5,0.6,2c1.4-0.5,2.9-1.1,4.5-1.8c-1,1.4-1.8,3-2.5,4.6c-0.5,1.3,1.5,1.8,2,0.6
			c1.1-2.8,2.8-5.1,5-7.1c0.1,0,0.1-0.1,0.1-0.1c0.8-0.4,1.6-0.8,2.5-1.3c-1.2,1.7-2.3,3.5-3.2,5.4c-0.6,1.2,1.2,2.3,1.8,1.1
			c1.8-3.7,4.1-7,7-10c0.1-0.1,0.2-0.3,0.3-0.4c2.5-2.1,4.6-4.4,5.8-7.2c0.1,0.2,0.1,0.5,0.2,0.7c0.1,3.8-1.6,7.3-4.6,9.7
			c-1.1,0.8,0.4,2.3,1.5,1.5c1.7-1.4,3.1-3.1,4-5c0,0.1,0.1,0.1,0.1,0.2c0,0,0,0.1,0.1,0.1c0,0.4,0,0.8,0.1,1.2
			c-0.1,0.1-0.2,0.3-0.2,0.5c-0.4,2.1-1.5,3.9-3.1,5.4c-1,0.9,0.5,2.3,1.5,1.5c0.7-0.6,1.3-1.2,1.8-1.9c-0.1,1-0.2,1.9-0.3,2.9
			c-0.2,1.3,1.8,1.9,2,0.6c0.4-2.5,0.5-5,0.5-7.4c0.5,0.4,1.1,0.8,1.7,1.1c1.2,0.6,2.3-1.2,1.1-1.8c-1.2-0.6-2.2-1.4-3-2.6
			c-0.1-1.4-0.3-2.9-0.6-4.3c0.5,0.5,1,1,1.6,1.4c2.8,1.9,6.3,2.8,7.9,6c0.6,1.2,2.4,0.2,1.8-1.1c-0.2-0.4-0.5-0.8-0.7-1.2
			c0.1,0,0.2,0.1,0.3,0.1C120.1,119,121.1,117.2,119.9,116.7z"/>
		<path d="M56.1,126.8c-1.1-0.6-1.8-1.7-1.7-3c0-0.1,0-0.2,0-0.3c0.3-0.6,0.7-1.2,1.1-1.7c0.6-0.8,0-1.7-0.7-1.8
			c-0.1-0.1-0.2-0.1-0.3-0.2c-0.3-0.1-0.6-0.2-0.9-0.3c0.1-0.9,0.2-1.7,0.3-2.6c0.1-0.6-0.5-1-1-1c-0.6,0-1,0.5-1,1
			c-0.1,0.6-0.1,1.1-0.2,1.7c-0.4-0.2-0.8-0.5-1.2-0.7c-0.3-1.1-0.2-2.1,0.1-3.2c0.4-1.3-1.6-1.8-2-0.6c-0.2,0.6-0.3,1.3-0.3,2
			c-0.8-0.7-1.5-1.5-2.1-2.4c-0.8-1.1-2.6,0-1.8,1.1c1.8,2.5,4,4.4,6.6,5.8c-1.3,0.1-2.7,0.2-4,0.4c-2.7-0.2-5.3-0.8-7.8-1.9
			c-1.2-0.5-2.3,1.3-1.1,1.8c0.8,0.4,1.7,0.7,2.5,1c-3.9,0.6-7.8,1.4-11.7,2.4c-1.3,0.3-0.8,2.3,0.6,2c1.8-0.5,3.6-0.9,5.4-1.3
			c-0.9,1-1.5,2.1-2,3.4c-0.5,1.3,1.5,1.8,2,0.6c0.8-2.1,2.3-3.7,4.3-4.7c0.1,0,0.2-0.1,0.2-0.2c1.4-0.2,2.9-0.5,4.3-0.7
			c-1.9,1.2-3.5,2.8-4.8,4.7c-0.8,1.1,1.1,2.2,1.8,1.1c1.9-2.8,4.7-4.8,7.9-5.8c0.4-0.1,0.6-0.3,0.7-0.6c1.1-0.1,2.2-0.2,3.3-0.3
			c-0.2,0.4-0.4,0.8-0.6,1.2c-0.2,0-0.3,0.1-0.5,0.3c-1.3,1.6-2.9,2.7-4.8,3.1c-1.3,0.3-0.8,2.3,0.6,2c1.3-0.3,2.6-0.9,3.7-1.7
			c-0.1,0.9-0.2,1.9-0.1,2.8c0.1,1.3,2.2,1.3,2.1,0c-0.1-1.2,0-2.3,0.2-3.4c0.5,0.7,1.1,1.4,1.9,1.8
			C56.2,129.2,57.3,127.4,56.1,126.8z"/>
	</g>
	<g>
		<path d="M832.5,97.3c-2.6,0-5.5,0.9-6.7,3.3c-0.6,1.3-0.7,2.7-0.6,4c0.1,0.9,0.3,1.8,0.5,2.7c0.4,2.9-0.1,7.7-5,5.2
			c-1.8-0.9-3.4,1.8-1.6,2.7c3.8,1.9,8.7,0.7,9.8-3.9c0.8-3-2.2-8,0.6-10.3c2.1-1.7,6.1-0.4,7.7,1.4c1.9,2,2,4.6,1.2,7
			c-0.1,0.1-0.1,0.2-0.2,0.4c-2.6,8.2-9.6,13.4-18.1,13.6c-2.9-4.6-7.1-8.1-12.3-10.1c0.8-0.6,1.6-1.2,2.4-1.8
			c0.7-0.5,1-1.3,0.6-2.1c0-0.1-0.1-0.2-0.2-0.2c-0.1-0.5-0.5-0.9-1-1c-2.8-0.9-5.4-2.6-8.3-3c-2.1-0.4-4.1,0.1-6,0.7
			c-0.3-1.1-0.8-2.2-1.5-3.1c-0.4-0.6-1.1-0.8-1.6-0.7c-0.6-0.2-1.2,0-1.6,0.7c-1.6,3.2-6,3.9-8.3,6.7c-2,2.5-2.8,5.6-3.3,8.7
			c-5-1.8-10.1-2.1-15.3-1c-0.1-0.6-0.2-1.2-0.2-1.9c4.7-2.4,8.3-6.4,10.2-11.2c0.3,0.6,0.6,1.2,0.8,1.9c0,0.4,0.2,0.8,0.6,1
			c0.2,0.2,0.5,0.3,0.8,0.3c1.7,0.4,3.4,0.6,5.1,0.6c0.9,0,1.4-0.6,1.5-1.2c1.2-2.1,2.7-3.8,4.7-5.1c2-1.3,4.4-1.9,6.3-3.3
			c1.2-0.9,0.6-2.7-0.5-3c-0.2-0.3-0.5-0.4-0.8-0.5c-0.1,0-0.4-0.2-0.3-0.1c-0.1,0-0.2-0.1-0.2-0.1c-0.1-0.1-0.3-0.3-0.1-0.1
			c-0.1-0.1-0.1-0.1-0.2-0.2c2-2.6,3.4-5.5,4.4-8.7c0.2-0.8-0.1-1.4-0.7-1.7c-0.3-0.5-0.8-0.8-1.4-0.8c-0.5,0-1,0-1.5,0
			c0.9-4.1,1.1-8.2,0.6-12.4c0-0.2-0.1-0.3-0.1-0.5c0.2-0.9-0.3-2-1.5-2c-10.1-0.2-20.1,2.6-26.3,10.9c-0.6-0.4-1.2-0.8-1.9-1.1
			c-1.1-0.5-2.3,0.1-2.4,1.4c-0.2,3.4-1.2,6.6-3,9.5c-0.5,0.8-0.1,1.6,0.5,2c0.1,0.5,0.4,0.9,1.1,1.1c0.9,0.2,1.7,0.6,2.5,1
			c0,0,0,0,0,0.1c0,0.1-0.1,0.3-0.1,0.4c0,0,0,0,0,0c0,0,0,0,0,0.1c-0.1,0.1-0.1,0.2-0.2,0.3c0,0,0,0.1-0.1,0.1
			c-0.1,0.1-0.2,0.2-0.2,0.2c-0.1,0.1-0.2,0.2-0.5,0.3c-0.6,0.3-0.9,1.1-0.7,1.8c-0.2,0.6,0,1.3,0.7,1.7c1.2,0.7,2.2,1.5,3,2.5
			c0.2,0.2,0.4,0.3,0.6,0.4c0.3,0.4,0.9,0.6,1.5,0.4c1.9-0.5,3.8-0.3,5.3,0.5c-1.4,4.4-4.3,7.9-8.2,10.2c0-0.2,0-0.3-0.1-0.5
			c-0.1-0.4-0.2-0.7-0.5-1c-0.1-0.7-0.6-1.3-1.5-1.3c-0.8,0-1.7,0-2.5,0c1.1-1.1,2.1-2.4,2.9-3.7c0.2-0.4,0.3-0.8,0.2-1.1
			c0.3-0.6,0.1-1.4-0.7-1.7c-2.2-1-4-2.9-4.2-5.4c-0.1-0.9-0.8-1.8-2-1.6c-0.9,0.1-1.7,0.2-2.6,0.4c1-1.2,1.9-2.4,2.9-3.5
			c0.6-0.7,0.4-1.6-0.1-2.2c-0.2-0.4-0.5-0.7-1-0.9c-1.4-0.4-2.5-2-2.3-3.4c0.1-0.8-0.2-1.7-1.1-1.9c-0.5-0.1-1.1,0-1.5,0.4
			c-0.3,0.1-0.7,0.3-0.9,0.6c-1.8,2.5-5.4,2.3-7.1-0.3c-0.7-1.1-2.2-0.8-2.8,0.1c-2,1.5-3.9,3.1-5.7,4.9c-0.1-0.1-0.2-0.3-0.3-0.4
			c-0.4-0.6-1.3-1-2-0.6c-0.8-0.2-1.7,0-1.9,1c-0.3,1.1-0.5,2.2-0.6,3.3c-4.7-0.8-8-7-11.1-10.4c13,0.7,27.1,0.4,38.4-6.4
			c6.8-4,11.5-10.2,11.7-18.4c0.2-10-7.2-14.9-15.7-18c-0.2-0.1-0.4-0.1-0.6-0.1c-6.8-2.2-14,2.1-17.7,7.9c-3.3,5.2-4.2,13.6,2.1,17
			c0.2,0.1,0.4,0.2,0.6,0.2c0.1,0.2,0.3,0.3,0.5,0.4c2.3,1,4.8,0.6,6.5-1.3c0.8-0.9,1.2-2,1.3-3.2c0-0.7-0.9-5.3,0.4-4.8
			c0.3,0.1,0.5,0.1,0.8,0.1c8.3,1.1,8.9,12.4,0.9,14.7c-1.9,0.6-1.1,3.6,0.8,3c4.9-1.4,8.7-6.1,8.2-11.3c-0.5-5.2-4.9-8.9-9.9-9.6
			c-2.4-0.9-4.5,1.4-4.7,3.6c-0.1,1.4,0.8,3.2,0.3,4.6c-0.4,1.2-1.9,2-3.1,1.5c-0.2-0.1-0.4-0.1-0.7-0.1c-0.1-0.2-0.3-0.3-0.5-0.4
			c-5.3-2.8-3-10.3,0-14c3.4-4.1,8.5-7,13.7-5c0.2,0.1,0.3,0.1,0.5,0.1c7.3,2.8,13.7,7.2,12.9,16c-0.6,6.6-4.5,11.3-10.1,14.5
			c-11.8,7.1-27,6.6-40.4,5.7c-2.8-2.3-5.7-4.4-8.9-6.2c-8.2-4.8-17.2-8-26.2-11c0.7-0.5,1.4-1.2,2-2.1c0.5-0.6,0.4-1.3,0.1-1.9
			c-0.1-0.5-0.6-1-1.1-1.2c-1-0.4-1.9-0.7-2.9-1c5.2-6.1,7.7-13.9,6.8-22c-0.1-0.6-0.4-1-0.8-1.2c-0.6-0.8-2-1.1-2.7,0
			c-4.9,7.2-11.6,2-18.3,2.6c-3.1,0.3-5.5,1.8-7.5,3.9c0.5-2.7,2.1-5,4.5-6.5c0.6-0.4,0.8-1,0.7-1.5c0.2-0.9-0.3-1.9-1.5-2
			c-3.2-0.2-6.4-0.2-9.5-0.1c-0.5-1.5-0.9-3-1-4.6c0-0.3-0.1-0.6-0.3-0.8c-0.3-0.6-0.9-1.1-1.8-1c-1.9,0.3-3.3,1.5-4.4,3.1
			c-1.5,2.1-2.6,4.7-5.6,4.3c-0.8-0.5-2-0.3-2.4,0.8c-0.7,2.2-0.9,4.4-0.7,6.7c-1.3,0-2.7,0.2-3.9,0.6c-1.4-5.5-4.7-10.1-9.5-13.3
			c-0.7-0.5-1.4-0.3-1.8,0.2c-0.4,0.2-0.7,0.5-0.9,0.9c-1.7,4.5-2.3,9.1-2,13.8c-0.6-0.2-1.1-0.3-1.7-0.5c-0.5-0.1-0.9-0.1-1.2,0.2
			c-0.5,0.2-1,0.7-0.9,1.4c0.4,5.2,3.4,9.1,6.9,12.6c-1.2,0.5-2.4,0.9-3.7,1.2c-0.8,0.2-1.1,0.8-1.1,1.5c0,0.5,0.1,1.1,0.7,1.4
			c3.1,1.9,6,4.1,8.7,6.5c-5.4,0.9-10.7,0.7-16.1-0.7c-2-6-2.3-13.7,1.7-17.8c0.6-0.6,0.5-1.3,0.2-1.9c-0.1-0.9-0.8-1.8-2-1.6
			c-2.4,0.5-4.8,0.9-7.1,1.4c0.1-1.9,0.2-3.8,0.3-5.7c0-0.7-0.3-1.1-0.7-1.3c-0.3-0.5-0.9-0.8-1.6-0.5c-1.7,0.7-3.2,1.5-4.6,2.5
			c-0.4-1.4-0.6-2.8-0.6-4.2c0-0.6-0.3-1.1-0.7-1.3c-0.4-0.3-0.9-0.4-1.5-0.1c-0.2,0.1-0.3,0.2-0.5,0.3c-2.5,1.6-4.5,3.9-5.8,6.5
			c-0.7-2-1.5-3.9-2.4-5.9c-0.6-1.3-2.2-0.9-2.7,0.2c-0.8,0.7-1.5,1.5-2.1,2.3c-0.8-1.2-1.6-2.3-2.6-3.3c-0.3-0.3-0.6-0.4-0.9-0.5
			c-0.1-0.1-0.2-0.1-0.4-0.2c-3.2-1.2-6.4-0.8-9.7-0.2c-4.6,0.8-9.2,1.7-13.8,2.6c-0.7,0.1-1,0.6-1.1,1.1c-0.2,0.5-0.1,1,0.4,1.5
			c4.7,4.1,6.6,10.1,6.5,16.2c-0.1,0.6,0.1,1.1,0.8,1.5c0.4,0.2,0.8,0.5,1.2,0.7c-5.6,3.4-11.1,7.1-14,13.2
			c-2.8,6-2.9,12.9-2.1,19.4c0.1,1.1,0.3,2.2,0.6,3.3c-3.1,2.5-6,5.1-8.7,7.9c0.8-2.7,0.8-5.4-1.1-7.5c-3.1-3.6-7.3-1.4-10.3,1.2
			c-3.5-11-2.2-22.7-0.7-34c0.1-1.1-0.7-1.5-1.5-1.5c-0.6-0.1-1.2,0.1-1.6,0.7c-2.4,3.5-5.7,6.2-9.4,8c-0.7,0.4-0.9,1-0.7,1.6
			c-0.5,1.5-1.3,2.8-2.6,3.7c-0.5,0.4-0.7,0.9-0.7,1.5c-0.2,0.4-0.1,0.8,0.2,1.3c1.3,1.9,1.7,4.1,1.1,6.3c-0.2,0.7,0.1,1.2,0.5,1.6
			c0,0.3,0.2,0.6,0.5,0.9c2.6,2,4.2,5.1,3.7,8.5c-0.1,0.6-0.3,2.1-0.9,2.4c-1.2,0.6-1.9-1-2.2-1.7c-0.8-1.9-1.3-3.8-1.1-5.9
			c0.1-1.1-0.8-1.6-1.6-1.5c-0.6-0.1-1.1,0.1-1.5,0.7c-1.2,2-2.7,3.6-4.5,5c-0.4,0.3-0.6,0.7-0.7,1.1c-0.2,0.4-0.1,0.8,0.2,1.3
			c2.1,3.1,1.7,7.1-1,9.7c-0.6,0.5-0.6,1.2-0.3,1.8c0,0.4,0.3,0.8,0.7,1.1c2.2,1.5,3.5,4,3.4,6.7c0,0.1,0,0.3,0,0.4
			c0,0.8,0.5,1.6,1.5,1.5c2.6-0.1,5,1.1,6.5,3.3c0.7,1,2,0.8,2.6,0.1c0.2-0.1,0.3-0.3,0.4-0.5c1.4-3,3.8-5.3,6.9-6.5
			c0.4-0.1,0.7-0.4,0.8-0.7c0.5-0.3,0.8-0.9,0.7-1.6c-0.7-3.7-0.3-7.3,1.2-10.7c0.3-0.1,0.5-0.2,0.7-0.5c0.8-0.9,1.5-1.8,2.5-2.6
			c2.3-1.8,5.6-1.4,5.6,1.9c0,3.2-2.2,6.7-3.5,9.6c-0.1,0.2-0.2,0.3-0.2,0.6c0,0,0,0.1,0,0.2c-6.8,8.3-12.2,17.7-16.1,27.8
			c-0.7,1.9,2.3,2.7,3,0.8c3.2-8.3,7.5-16.1,12.7-23.2c0.4,4.1,2.3,8,6.6,9.4c6.4,2.2,12.6-3.5,14-9.3c1.6-6.3-0.1-13-1.5-19.5
			c3.9-3,8-5.7,12.4-8.1c0.1,0,0.1-0.1,0.2-0.1c0.2,0.4,0.4,0.8,0.6,1.1c0.1,0.8,0.9,1.6,1.7,1.4c0.4-0.1,0.8-0.3,1.1-0.6
			c0.3-0.2,0.7-0.4,1.1-0.6c-1.1,13.1,9.6,21.6,21.6,22.7c-1.8,4.8-2.5,9.8-2.2,14.9c0,0.4,0.1,0.7,0.3,0.9c0,0.2,0.1,0.5,0.3,0.7
			c2,2.6,3.6,5.4,4.7,8.5c0.1,0.2,0.2,0.4,0.3,0.5c0.4,0.7,1.2,1.1,2.1,0.6c1.4-0.8,2.5-2,3.1-3.4c2,1.7,3.7,3.8,5.1,6
			c0.1,0.1,0.1,0.1,0.2,0.2c0.3,0.3,0.6,0.6,1.2,0.6c1.6,0,3.2,0.2,4.8,0.7c1.4,0.4,2.2-1.1,1.9-2.1c0.1-2.2,0.2-4.4,0.6-6.5
			c1,1.1,1.9,2.3,2.6,3.7c0.1,0.2,0.2,0.4,0.4,0.6c0.3,0.4,0.7,0.5,1.1,0.5c4.3,1.5,8.7,2.7,13.3,3.6c1.5,0.3,2.4-1.5,1.7-2.5
			c0-0.2,0-0.4-0.1-0.6c-0.6-2.1-1.5-4.1-2.6-5.9c9.1,1.2,17.8-2,26.2-5.4c0.6-0.2,0.9-0.7,1-1.3c0.3-0.4,0.4-1,0-1.6
			c-5.2-9.2-12-17.8-22.3-21.2c0.8-2.6,1.8-5,3.1-7.3c0.4-0.7,0.2-1.4-0.2-1.8c-0.2-0.3-0.5-0.6-1-0.8c-5.7-1.5-11.5-1.9-17.2-1.3
			c1-1.4,2.2-2.7,3.7-3.7c1-0.2,1.5-1.6,0.9-2.4c-0.3-0.5-0.8-0.9-1.4-0.8c-2.3-0.8-4.6-1.5-6.9-2.3c-0.4-0.6-1.2-1-2-0.5
			c-2.3,1.4-4.5,3.1-6.4,5c-0.1-0.7-0.2-1.3-0.1-2c0-0.9-0.5-1.4-1.2-1.5c-0.4-0.2-0.9-0.3-1.4,0c-2.3,1.1-4.7,1.5-7.3,1.5
			c-0.7,0-1.2,0.4-1.4,0.9c-0.1,0.1-0.1,0.2-0.2,0.3c-3.1,7.2-3,15-0.2,22.2c-11.9,1.1-25-6.8-23-20.3c0-0.1,0-0.1,0-0.2
			c0.4,0,0.8,0,1.2,0c-0.4,2.6-0.3,5.2,0.2,7.9c0.3,1.5,2.1,1.4,2.8,0.4c0.3-0.1,0.5-0.3,0.7-0.5c3-3.9,7.7-5.6,12.5-5
			c0.7,0.1,1.2-0.3,1.4-0.8c0.3-0.3,0.4-0.8,0.3-1.4c-0.7-2.1,0.5-4.4,2.8-4.7c0.4-0.1,0.7-0.2,1-0.5c0.1,0,0.2,0,0.3,0
			c0.9,0,1.5-0.7,1.6-1.6c0.1-0.6,0.2-1.4,0.7-1.8c0.2-0.1,0.3-0.1,0.5-0.2c0.2,0,0.3,0.3,0.2-0.1c0.3,0.8,1,1.3,1.9,1.1
			c0,0,0.1,0,0.1,0c0.3,0.1,0.7,0.1,1.2-0.1c4.4-2.4,8.9-4.5,13.6-6.2c0.4-0.1,0.7-0.4,0.8-0.7c0.6-0.4,0.9-1.2,0.4-2
			c-0.4-0.6-0.7-1.2-1.1-1.9c5.2,1,10.4,1.1,15.6,0.2c-1.3,7.4,1.1,14.9,6.5,20.2c0.3,1,1.6,1.6,2.6,0.7c1.1-1,2-2.2,2.9-3.4
			c3.9,6,11.8,7.4,15.8,13.4c0.4,0.6,1.1,0.8,1.7,0.7c0.6,0,1.3-0.3,1.5-1.1c1.7-4.9,2-9.9,1-14.8c1.2,0.7,2.4,1.4,3.6,2.1
			c1.1,0.6,2.1-0.2,2.3-1.1c0.2-0.3,0.3-0.7,0.2-1.2c-0.5-2.4,0.5-4.7,2.4-6.3c1.4-1.2,3.4-1.4,4.8-2.6c2.1-1.7,0.1-4.6-0.7-6.5
			c-0.5-1.1-1.8-1.2-2.6-0.8c0,0,0,0,0,0c-3.5,0.9-6.4,4.2-10,4.2c-3.7-5.2,6.8-6.5,9.5-6.5c2.1,0,4.2,0,6.3,0
			c0.1,0.1,0.1,0.1,0.2,0.2c7.6,6.4,13.3,14.5,16.6,23.8c-8-4.6-17.7-3.7-25,2.6c-0.8,0.7-0.6,1.7,0.1,2.2c0.1,0.6,0.5,1.1,1.1,1.2
			c0.3,0.1,0.8,0.2,1,0.3c0,0,0.1,0,0.1,0.1c-3,3.5-5.1,7.6-6,12.2c-0.2,0.9,0.4,1.6,1,1.8c0.5,0.5,1.3,0.6,1.9,0.3
			c0.8-0.3,1.5-0.5,2.4-0.6c0.5,1.8,1.8,3.3,3.5,4.2c2,0.9,4.2,0.9,6.2,1.9c-0.1,2.5,0.5,5.1-0.3,7.5c-0.2,0.6,0,1.1,0.3,1.4
			c0,0.3,0.1,0.7,0.5,1c4.3,4.3,10,8.6,12.4,14.3c0.5,1.2,1.8,0.9,2.5,0.1c0.1,0,0.1-0.1,0.2-0.2c1.6-1.6,3.2-3.2,4.7-4.7
			c1.3-1.3,3.7-4.8,5.8-4.3c1.3,0.3,2.1-0.9,1.9-1.9c0.1-0.2,0.1-0.5,0.1-0.8c-0.5-3.3,0.6-6.6,2.7-9.1c0.3-0.3,0.4-0.6,0.4-0.9
			c0.1-0.2,0.1-0.5,0-0.8c-0.2-0.8-0.4-1.6-0.7-2.3c2.7,1.1,5.7,1.8,8.7,2.1c0.7,0.1,1.2-0.3,1.4-0.8c0.3-0.2,0.6-0.5,0.7-1
			c0.4-1.9,0.6-3.8,0.3-5.7c-0.3-2.3-2.5-5.7-1.6-7.8c0.4-0.9,0-1.7-0.6-2.1c-0.1-0.5-0.3-0.9-0.7-1.2c-0.6-0.3-1.2-0.5-1.8-0.7
			c0.3-0.3,0.7-0.7,1-1c0.1,0,0.2,0.1,0.3,0.1c0.9,0.3,1.7,0.7,2.6,1c0,0.1,0.1,0.2,0.1,0.3c2.2,3.9,5,7.3,8.3,10.2
			c-2.1,0.9-4.1,2.2-6,3.7c-0.1,0.1-0.2,0.2-0.3,0.4c-0.2,0.2-0.3,0.4-0.3,0.6c-0.2,0.8,0.2,1.7,1.1,1.9c0.2,0,0.4,0.1,0.5,0.2
			c0,0,0.1,0,0.1,0c0.1,0.1,0.2,0.1,0.3,0.2c-4,4.3-4.1,10.3-3.4,16.1c-0.3,0.9,0.4,2.1,1.3,2.2c0.7,0.2,1.5,0,1.8-0.7
			c2.9-1.3,6.1-1.1,9-2c-0.4,1.7-0.6,3.5-0.8,5.2c-0.1,1.1,0.8,1.6,1.6,1.5c0.4,0.1,0.8,0,1.2-0.1c0.7-0.3,1.4-0.6,2-0.9
			c1.1,3.1,2.9,5.9,5.2,8.3c0.6,0.6,1.3,0.6,1.9,0.2c0.4-0.1,0.8-0.3,1-0.7c1.5-2.1,2.9-4.2,4.4-6.3c0.7,0.8,1.4,1.6,2,2.4
			c0.9,1,1.8,2.4,3.1,2.9c2.3,0.7,3.9-1.9,5-3.9c1.9,1.2,4,2,6.2,2.4c0.7,0.6,1.8,0.8,2.4-0.3c1.1-1.9,2.2-3.8,3.3-5.7
			c3-0.4,6-1,8.9-1.7c0.8-0.2,1.1-0.8,1.1-1.4c0.1-0.4,0.1-0.8-0.1-1.2c-1.7-3.2-4-6-6.9-8.3c0.3-0.8,0.7-1.5,1-2.3c0,0,0-0.1,0-0.1
			c3.3-0.1,6.6,0.4,9.8,1.6c-1.6,4.6-2.2,9.3-1.9,14.2c0.1,0.8,0.6,1.3,1.3,1.5c0.4,0.4,1.1,0.6,1.8,0.3c0.6-0.3,1.2-0.6,1.8-0.9
			c3.1,4,8.9,5.4,13.4,7.1c1,0.4,1.7-0.3,1.9-1.2c1.1-1.7,1.7-3.6,1.7-5.5c3.6,0.5,7.2,0.9,10.7-0.1c4.4-1.2,7.5-5.5,12-6
			c1.4-0.2,1.8-1.8,1.2-2.6c0,0,0,0,0-0.1c-0.2-0.5-0.4-0.9-0.6-1.4c9-0.9,16.4-6.7,19.4-15.6c0.1-0.1,0.1-0.2,0.2-0.4
			C843.5,104.2,839.4,97.4,832.5,97.3z M765.8,97.9c-0.6-0.7-1.4-1.4-2.1-1.9c0.8-0.9,1.2-2,1.4-3.1c0-0.2,0-0.3-0.1-0.4
			c0.2-0.7-0.1-1.3-0.7-1.7c-0.9-0.6-2-1.2-3-1.5c1.2-2.3,2.1-4.8,2.5-7.4c0.2,0.2,0.4,0.3,0.6,0.5c0.9,0.7,2,0.3,2.5-0.4
			c0.1-0.1,0.2-0.2,0.3-0.3c5.1-7.7,14-10.3,22.8-10.3c0.4,4.2,0.1,8.3-0.9,12.4c-0.2,0.7,0.1,1.3,0.6,1.7c0.3,0.5,0.8,0.9,1.4,0.9
			c0.4,0,0.9,0,1.3,0c-1,2.6-2.3,5-4.1,7.1c-0.7,0.9-0.3,2,0.4,2.5c0.1,0.2,0.2,0.4,0.3,0.6c0.2,0.2,0.4,0.4,0.6,0.6
			c-1.8,0.9-3.6,1.6-5.2,2.8c-1.8,1.4-3.3,3.1-4.4,5c-0.9-0.1-1.8-0.2-2.7-0.4C775.5,99.5,770.8,96.9,765.8,97.9z M507.9,113.8
			c-1.7-1.6-3.8-2.6-6.1-2.9c-0.3-2.9-1.6-5.4-3.7-7.3c2.6-3.2,3-7.8,1.1-11.5c0.8-0.6,1.5-1.3,2.2-2.1c1.1,4.6,4.1,10.1,8.3,5.9
			c4.3-4.3,1.3-12.1-2.8-15.3c0,0-0.1,0-0.1,0c0.6-2.5,0.2-5.1-1.1-7.4c1.5-1.3,2.5-3,3.1-4.9c2.4-1.3,4.6-2.9,6.5-4.8
			c-1.2,10.6-1.8,21.3,1.8,31.5c-2,4-2.7,8.3-2,12.7C512.1,109,509.6,111.1,507.9,113.8z M605.3,82.3c1.7,0.6,3.4,1.1,5.1,1.7
			c-1.6,1.5-2.9,3.3-3.9,5.3c-0.8,0.3-1,1.2-0.7,1.9c0.1,0.9,1.4,1.4,2.4,0.9c5.7-1,11.4-0.8,17.1,0.5c-1.3,2.5-2.3,5.1-3,7.9
			c-0.3,1,0.4,1.7,1.1,1.9c0,0,0.1,0,0.1,0c9.8,2.8,16.2,10.6,21.1,19.1c-8.6,3.5-17.6,6.6-27,4c-0.4-0.1-0.8-0.1-1,0.1
			c-0.9,0.4-1.6,1.6-0.7,2.6c1.8,1.9,3.1,4.1,3.9,6.5c-3.5-0.8-7-1.8-10.4-2.9c-1.3-2.2-2.8-4.2-4.7-5.9c-0.1-0.1-0.2-0.2-0.4-0.3
			c-0.4-0.3-0.9-0.3-1.3-0.2c-0.4,0.1-0.8,0.4-1,0.8c-0.1,0.1-0.1,0.3-0.2,0.4c-0.9,2.7-1.2,5.5-1.3,8.4c-0.9-0.2-1.8-0.3-2.8-0.3
			c-1.9-2.7-4.1-5.1-6.7-7.1c-0.3-0.5-0.9-0.9-1.4-0.9c0,0-0.1,0-0.1,0c-0.9-0.1-1.6,0.9-1.5,1.8c-0.1,0.8-0.5,1.4-0.9,2
			c-1.1-2.6-2.5-5-4.2-7.3c-0.1-0.1-0.1-0.2-0.2-0.2c-0.2-5.1,0.6-9.9,2.4-14.6c1.2,0,2.4-0.1,3.6-0.3c0.6-0.1,1-0.4,1.1-0.9
			c0.4-0.4,0.5-1.1,0.2-1.7c-3.1-6.6-3.2-13.8-0.7-20.6c2-0.1,4-0.4,5.9-1.1c0.1,1.1,0.4,2.2,0.8,3.2c0.2,0.6,0.7,1.1,1.4,1.1
			c0.5,0.2,1.1,0.1,1.5-0.4C600.7,85.7,602.9,83.9,605.3,82.3z M541.6,111.9c-1.3,4.1-6.1,8.5-10.6,6.2c-3.8-1.9-4.3-6.5-3.6-10.2
			c3.9-4.8,8.3-9.2,13.1-13.1C541.8,100.5,543.3,106.5,541.6,111.9z M554,81.7c-4,2.2-7.8,4.7-11.5,7.4c-0.3-1.7-0.6-3.4-0.7-5.1
			c-0.3-5.3,0.3-10.9,3-15.6c2.8-4.7,7.5-7.6,12.1-10.4c0.2-0.1,0.4-0.3,0.5-0.4c1,1.4,1.7,3.1,1.7,4.9c0,1,0.9,1.5,1.7,1.5
			c0.1,0,0.2,0,0.3,0c0.3,0,0.5,0,0.8,0.1c-5.2,1.6-10,4.2-14.2,7.8c-0.4,0.3-0.5,0.7-0.5,1c-0.4,0.5-0.4,1.3,0.3,1.8
			C550.1,76.8,552.3,79.1,554,81.7C554.1,81.7,554.1,81.7,554,81.7z M591.6,74.6c-0.9-0.9-2.3-1.3-3.7-0.8c-1.7,0.6-2.5,2.1-2.8,3.8
			c-3.5,0.5-6,3.4-5.9,6.7c-4.4-0.1-8.4,1.6-11.6,4.6c0-1.5,0.1-3,0.4-4.5c0.1-0.3,0-0.6,0-0.8c0-0.7-0.3-1.3-1.1-1.5
			c-2.8-0.6-5.6-0.3-8.1,0.9c-2-3.6-4.6-6.8-7.7-9.5c4.8-3.8,10.3-6.3,16.3-7.4c0.9-0.2,1.2-0.9,1.1-1.7c0.1-0.6-0.1-1.2-0.7-1.6
			c-1.6-1-3.5-1.7-5.4-1.8c-0.6-3.6-2.7-6.7-5.9-8.6c-0.1-5.6-1.7-11.2-5.3-15.5c2.6-0.5,5.3-1,7.9-1.5c3.7-0.7,7.4-1.7,11.1-0.4
			c0,0,0,0,0,0c1.3,1.4,2.4,3,3.3,4.8c0.7,1.4,2.4,0.8,2.8-0.3c0.5-0.8,1-1.5,1.7-2.2c1,2.5,1.9,5.1,2.5,7.8c0.4,1.7,2.8,1.3,3-0.2
			c0.1-0.1,0.1-0.2,0.1-0.4c0.6-2.9,2-5.5,4.1-7.4c0.2,1.3,0.6,2.6,1.1,3.9c0,0.2,0.1,0.4,0.3,0.6c0,0.1,0.1,0.2,0.1,0.3
			c0.7,1.4,2.4,0.8,2.8-0.3c0.9-0.7,1.9-1.3,2.9-1.8c-0.1,1.6-0.2,3.1-0.2,4.7c-0.7,1,0.2,2.8,1.7,2.5c2.1-0.4,4.2-0.8,6.3-1.3
			c-3.9,6.6-2.3,16.9,1.3,23.3C599.6,70.6,595.5,72.4,591.6,74.6z M630.6,50.3c-0.3-2.7,0.3-5.3,1.7-7.5
			C633,45.8,633.3,49.1,630.6,50.3z M655.4,62c-4.7,1.9-6.9,7.1-3.5,11.2c0.4,0.5,1,0.6,1.4,0.4c4.2,0.3,7-2.9,10.7-4.1
			c0.2,0.4,0.3,0.8,0.4,1.1c0.4,1.8,0.3,0.4-0.7,1c-1.6,0.9-3.1,1.6-4.4,2.9c-1.7,1.7-2.6,3.9-2.7,6.1c-1.4-0.8-2.7-1.6-4.1-2.3
			c0,0-0.1,0-0.1-0.1c-0.9-1.4-3.5-0.6-2.8,1.2c1.7,4.8,2,9.7,0.9,14.6c-4.7-4.6-12.5-6.5-14.9-12.9c-0.1-0.2-0.2-0.3-0.3-0.5
			c-0.5-1-2.1-1.5-2.8-0.2c-0.7,1.4-1.6,2.6-2.6,3.7c-4.7-5.1-6.4-11.9-4.6-18.7c0-0.1,0-0.2,0.1-0.3c0.3-0.5,0.3-1.2-0.3-1.8
			c-2.7-2.5-5.5-4.8-8.5-6.9c0.9-0.3,1.7-0.7,2.5-1.1c0.3-0.2,0.5-0.4,0.6-0.6c0.7-0.5,0.9-1.5,0.2-2.3c-2.9-2.8-5.9-5.8-7-9.7
			c0.6,0.2,1.1,0.3,1.7,0.5c1.2,0.4,2-0.7,1.9-1.6c0-0.1,0-0.2,0-0.4c-0.5-4.4-0.1-8.7,1.2-12.9c3.5,2.8,5.8,6.7,6.8,11.1
			c-0.9,1.1,0.5,3.1,2.1,2.3c1.1-0.6,2.2-0.9,3.3-1c-2.2,3.3-2.9,7.3-2.2,11.4c0.1,0.8,0.7,1.1,1.3,1.1c0.3,0.3,0.8,0.5,1.4,0.4
			c3-0.6,4.8-2.9,5.3-5.9c0.8-5-1.9-9.6-1-14.7c1.8,0.1,3.5-0.5,5-1.8c1.5-1.4,2.3-3.8,4-5.1c0.2,1.4,0.6,2.7,1.1,4
			c-0.2,0.9,0.3,1.9,1.5,1.8c2.5-0.1,4.9-0.2,7.4-0.1c-2.8,3-4.1,7.2-3.2,11.4c0.2,1,1.1,1.3,1.8,1.1c0.4,0,0.9-0.2,1.2-0.6
			c2.4-3.2,5-5.7,9.3-5.5c2.7,0.1,5.2,1,7.9,1.3c3.8,0.4,6.8-0.6,9.2-2.9c0.1,6.9-2.4,13.3-7.4,18.3c-0.6,0.6-0.5,1.3-0.2,1.9
			c-0.1,0.7,0.3,1.3,1.1,1.5c1,0.2,1.9,0.4,2.8,0.7C670.8,63.3,661.7,59.4,655.4,62z M697.6,126.3c-1.6,0.2-2.9,1.2-4.2,2.5
			c-2.1,2-4.1,4.1-6.2,6.2c-2.8-5-7.7-8.9-11.7-12.8c0.6-1.9,0.4-3.8,0.4-5.8c-0.1-3.2,0.6-4.9,3.2-6.7c1.6-1.2,0.1-3.9-1.6-2.7
			c-1.7,1.2-3.2,2.5-4,4.2c-3-1.1-7-0.9-7.6-4.7c-0.1-0.5-0.4-0.9-0.7-1c-0.3-0.3-0.6-0.4-1.1-0.4c-1,0-1.9,0.1-2.8,0.4
			c1.1-3.9,3.1-7.4,6.1-10.2c1.1-1.1,0.1-2.6-1.1-2.7c-0.4-0.3-0.7-0.5-1.1-0.7c6.9-4.8,15.8-4.5,22.4,1c0.2,0.2,0.5,0.3,0.8,0.4
			c0.9,0.5,2.4-0.1,2.4-1.3c1.9-3.5,4.6-6.2,7.9-8.2c0.1,0.7,0.2,1.4,0.3,2.1c0.1,0.8,0.6,1.6,1.6,1.6c0.1,0,0.1,0,0.2,0
			c0.2,0,0.3,0,0.5,0c3.3-0.8,6.6-0.8,9.9,0c-0.6,3.4-2.5,6.2-5.3,8.4c-0.4,0.3-0.6,0.7-0.5,1c-0.5,0.9-0.1,2.4,1.3,2.5
			c1,0.1,2.1,0.3,3,0.8c-0.4,1.5-0.2,2.9,0.3,4.6c0.9,2.8,1.6,5.2,1.1,8.1c-4-0.5-7.7-1.9-11.2-4.2c-1.4-0.9-2.7,0.7-2.2,1.9
			c0,0.3,0.1,0.7,0.4,1c1.3,1.4,2.2,3,2.6,4.9C698.4,119,697.4,122.5,697.6,126.3z M714.5,85.9c0.1-1-0.6-1.4-1.3-1.5
			c-0.1,0-0.2-0.1-0.3-0.1c-3.7-1-7.3-1.1-11-0.5c-0.1-0.9-0.2-1.8-0.3-2.6c-0.1-0.8-0.6-1.6-1.6-1.6c-0.3,0-0.5,0.1-0.8,0.2
			c-0.1,0-0.2,0.1-0.3,0.1c-3.7,1.8-6.9,4.4-9.3,7.8c-3.2-9.1-8.4-17.2-15.5-23.8c0,0,0.1,0,0.1,0c10.9,3.6,22,7.3,31.7,13.7
			c4.9,3.2,9,7.2,12.6,11.7c2.5,3.1,5,6,9,6.6c0,0.9,0,1.7,0,2.5c-5-2-10.1-3.9-15.1-5.9C713.5,90.6,714.2,88.3,714.5,85.9z
			 M725.1,105.6c-2.7-2.1-5-4.5-7-7.3c3.2,1.2,6.4,2.5,9.6,3.7c0.2,1,0.4,2.1,0.7,3.1c-1.1,0.1-2.1,0.3-3.2,0.6
			C725.2,105.7,725.2,105.7,725.1,105.6z M764.2,121.9c-0.3,0.8-0.2,1.7,0.6,2.1c0.2,0.1,0.4,0.2,0.6,0.2c2.1,1.7,3.9,3.7,5.4,6
			c-2.4,0.5-4.9,1-7.3,1.3c-0.5,0.1-0.8,0.3-0.9,0.6c-0.2,0.1-0.4,0.3-0.5,0.6c-0.9,1.6-1.8,3.2-2.8,4.8c-2.3-0.5-4.3-1.4-6.2-2.8
			c-0.5-0.4-1-0.4-1.4-0.2c-0.4,0.1-0.7,0.3-1,0.7c-0.6,1-1.3,1.9-1.9,2.9c-0.1,0.1-0.3,0.5-0.5,0.7c-0.2-0.2-0.5-0.6-0.7-0.7
			c-1.5-1.7-2.9-3.4-4.4-5.1c-1-1.1-2.4-0.3-2.6,0.9c-1.5,2.1-2.9,4.2-4.4,6.3c-1.8-2.2-3.1-4.6-3.9-7.4c-0.1-0.4-0.3-0.7-0.6-0.8
			c0,0-0.1-0.1-0.2-0.1c0,0,0,0-0.1,0c-0.5-0.2-1-0.2-1.5,0c-0.5,0.2-1.1,0.5-1.6,0.7c0.2-1.6,0.6-3.2,1.1-4.8
			c0.2-0.6,0-1.1-0.3-1.4c-0.4-0.9-1.6-1.5-2.6-0.7c-2.6,2.3-6.6,1.9-9.9,2.8c-0.4-4.8-0.4-10.1,3.7-13.2c1.2-0.9,0.5-2.8-0.6-3
			c-0.1-0.1-0.3-0.3-0.4-0.4c3.2-2.2,6.9-3.5,10.9-3.7c0.8,0,1.3-0.6,1.4-1.2c0.2-0.3,0.2-0.7,0.1-1.2c-1.4-4.3-1.7-8.6-1-12.9
			c0,0.1,0.1,0.1,0.1,0.2c0.4,0.7,1.4,1,2.1,0.6c0.3-0.2,0.5-0.5,0.6-0.8c1.8-1.8,3.7-3.6,5.8-5.1c2.6,2.5,6.5,2.7,9.4,0.7
			c0.5,1.3,1.4,2.5,2.6,3.3c-1.2,1.5-2.4,3-3.7,4.5c-0.1,0.1-0.2,0.3-0.2,0.4c-1.5,0.6-0.6,3.2,1.2,2.9c1.7-0.2,3.3-0.5,5-0.7
			c0.7,2.4,2.1,4.5,4.3,5.9c-1.2,1.8-2.8,3.3-4.5,4.6c-0.9,0-1.7,0-2.6,0.1c-2,0-2,3.2,0,3.1c3-0.1,6-0.1,9-0.2
			c0.3,2.1,0.5,4.1,0.8,6.2c0.1,0.8,0.6,1.2,1.3,1.4c0.3,0.4,0.9,0.6,1.5,0.4c0.5-0.1,1.1-0.2,1.6-0.3
			C764.8,120.6,764.5,121.2,764.2,121.9z M797.6,133.3c-0.8-0.6-2.2-0.1-2.4,1c-0.2,0.5-0.2,1,0.1,1.4c0.2,1.5-0.1,2.9-0.8,4.2
			c-3.8-1.3-8.5-2.5-10.7-5.8c-0.1-1-1.2-1.9-2.4-1.3c-0.6,0.3-1.2,0.6-1.8,0.9c-0.1-4.5,0.7-8.9,2.4-13.2c0.2-0.5,0.1-1-0.1-1.3
			c0.6-3.6,1.5-7.3,4.7-9.5c1.9-1.3,3.9-2.1,5.4-3.7c0.2,0.5,0.3,1,0.5,1.5c-0.3,1.1,0.5,2.4,1.8,1.9c2.7-1.1,5.1-1.9,8-0.9
			c1.5,0.5,2.9,1.2,4.3,1.8c-0.6,0.5-1.3,1-1.9,1.5c-0.6,0.5-1,1.3-0.6,2c-0.2,0.7,0.1,1.6,1.1,1.9c5.1,1.5,9.4,4.8,12.2,9.2
			c0,0.6,0.3,1.3,0.9,1.6c0.2,0.5,0.5,1,0.7,1.4c-2.4,0.8-4.4,2.2-6.6,3.7C807.8,134.5,802.8,134.2,797.6,133.3z"/>
		<path d="M596.9,65c-1.1,0.7-2.3,1-3.6,1.1c0.7-0.7,1.2-1.6,1.5-2.6c0.5-1.3-1.6-1.8-2-0.6c-0.5,1.3-1.5,2.3-2.8,2.9
			c-0.6-0.1-1.2-0.2-1.8-0.3c0.4-0.5,0.9-0.9,1.3-1.4c0.9-1-0.5-2.4-1.5-1.5c-0.7,0.8-1.5,1.5-2.2,2.3c0,0-0.1,0.1-0.1,0.2
			c-1.1-0.2-2.2-0.3-3.3-0.2c0.5-0.6,1-1.3,1.4-1.9c0.4-0.1,0.7-0.4,0.7-0.9c0,0,0-0.1,0-0.1c2.6-3.9,4.5-8.3,5.7-13
			c0.3-1.3-1.7-1.9-2-0.6c-0.1,0.3-0.2,0.7-0.3,1c0,0-0.1-0.1-0.1-0.1c-1-0.9-2.4,0.5-1.5,1.5c0.3,0.3,0.6,0.6,0.8,0.8
			c0,0,0,0,0.1,0.1c-0.3,0.7-0.5,1.5-0.8,2.2c-0.3-0.6-0.7-1.2-1.1-1.8c-0.9-1-2.3,0.5-1.5,1.5c0.8,0.9,1.1,2,1.2,3.1
			c0,0.1,0,0.2,0,0.3c-0.3,0.6-0.7,1.3-1,1.9c-0.3-0.7-0.6-1.3-1-1.8c-0.8-1.1-2.6,0-1.8,1.1c0.8,1,1.2,2.1,1.3,3.3
			c-0.6,0.8-1.1,1.6-1.8,2.3c-0.6-1.6-1.3-3.1-2-4.6c0.1-0.4,0-0.9-0.5-1.1c0,0-0.1,0-0.1,0c-2.4-4.4-5.4-8.4-9.1-11.9
			c0-0.1-0.1-0.1-0.2-0.2c-1.5-1.4-3-2.7-4.7-3.9c-1.1-0.8-2.1,1-1.1,1.8c1,0.7,2,1.5,2.9,2.3c-0.1,0-0.2,0-0.3,0.1
			c-0.6,0.1-0.9,0.8-0.7,1.3c0.2,0.6,0.7,0.9,1.3,0.7c0.5-0.1,1.1-0.2,1.6-0.4c0.5,0.4,0.9,0.9,1.4,1.4c-0.3,0-0.7-0.1-1-0.2
			c-1.3-0.3-1.9,1.7-0.6,2c1.2,0.3,2.3,0.4,3.5,0.3c0.5,0.6,0.9,1.1,1.4,1.7c-0.9-0.2-1.8-0.3-2.7-0.2c-1.3,0.1-1.3,2.2,0,2.1
			c1.6-0.1,3.1,0.2,4.5,1c0.1,0,0.2,0.1,0.2,0.1c0.2,0.4,0.5,0.8,0.7,1.1c-0.8-0.1-1.5-0.2-2.3-0.1c-1.3,0.1-1.3,2.2,0,2.1
			c1.3-0.1,2.5,0.1,3.7,0.5c0.4,0.7,0.7,1.4,1,2.1c-1-0.2-2-0.3-3-0.2c-1.3,0.1-1.3,2.2,0,2.1c1.4-0.1,2.7,0.1,4.1,0.6
			c0.1,0.4,0.3,0.8,0.4,1.2c-1.7,0.3-3.3,0.6-4.9,1c-0.3-0.1-0.8-0.1-1.1,0.1c-0.1,0-0.1,0.1-0.2,0.2c-5.2,1.2-10.1,3-14.4,6.4
			c-1.1,0.8,0.4,2.3,1.5,1.5c1.4-1.2,3-2.1,4.6-2.9c-0.3,0.7-0.5,1.5-0.6,2.2c-0.2,1.3,1.8,1.9,2,0.6c0.2-1.5,0.8-2.9,1.7-4.1
			c0.9-0.3,1.7-0.6,2.6-0.9c-0.4,0.5-0.7,1.1-1,1.7c-0.6,1.2,1.2,2.2,1.8,1.1c0.7-1.4,1.7-2.6,2.9-3.7c1.3-0.3,2.5-0.5,3.8-0.8
			c-1.9,2.6-3.9,5.2-5.9,7.7c-0.8,1,0.6,2.5,1.5,1.5c0.4-0.5,0.8-1,1.2-1.5c0,0.4,0.1,0.8,0.1,1.2c0.2,1.3,2.3,0.8,2-0.6
			c-0.3-1.7,0.2-3.3,1.2-4.5c0,0.4,0.1,0.8,0.2,1.2c0.3,1.3,2.3,0.8,2-0.6c-0.3-1.5-0.2-2.9,0.3-4.3c0.9,1,1.6,2,2.2,3.2
			c0.6,1.2,2.5,0.1,1.8-1.1c-0.6-1.1-1.3-2.1-2.1-3.1c5.4-0.9,10.8,2.9,15.8-0.4C599.1,66.1,598,64.3,596.9,65z"/>
		<path d="M598.1,104.7c0.4-4.4-2.7-8.1-2.4-12.4c0.1-1.3-2-1.3-2.1,0c-0.1,0.9,0,1.7,0.2,2.5c-0.2-0.1-0.4-0.2-0.6-0.3
			c-1.2-0.6-2.2,1.2-1.1,1.8c0.8,0.4,1.6,0.9,2.4,1.3c0.2,0.6,0.5,1.3,0.7,1.9c-0.4-0.2-0.8-0.4-1.2-0.5c-0.5-0.2-1.1-0.2-1.4,0.4
			c-0.3,0.4-0.1,1.2,0.4,1.4c0.8,0.4,1.7,0.7,2.5,1.1c0.1,0.1,0.3,0.1,0.4,0.1c0.2,0.9,0.2,1.9,0.1,2.9c0,0.1,0,0.1,0,0.2
			c-0.1,0.3-0.1,0.7,0.2,1c0.1,0.1,0.2,0.2,0.2,0.3c-1.8,2.1-3.8,3.9-5,6.5c-0.1,0-0.3,0.1-0.4,0.2c-1.2,1-2.4,2-3.6,3.1
			c-1,0.9,0.5,2.3,1.5,1.5c0.5-0.4,1-0.9,1.6-1.3c-0.1,0.6-0.1,1.1-0.1,1.7c-1.2,0.9-2.1,2-2.8,3.4c-0.6,1.2,1.2,2.3,1.8,1.1
			c0.3-0.7,0.7-1.2,1.2-1.8c0.1,0.5,0.2,1,0.3,1.5c0.3,1.3,2.3,0.8,2-0.6c-0.2-0.9-0.3-1.8-0.4-2.7c0.2-0.3,0.2-0.8,0-1.1
			c0.1-1.7,0.5-3.3,1.3-4.8c1-1.9,2.7-3.4,4.1-5.1c0.3,0.4,0.7,0.8,1,1.1c0,0.1,0,0.2,0,0.3c0.2,1.1-0.1,2.2-0.7,3.1
			c-0.7,1.1,1.1,2.2,1.8,1.1c0.4-0.7,0.7-1.5,0.9-2.3c0.7,0.7,1.3,1.5,2,2.2c0,0,0,0,0,0.1c-0.4,1.6-1,3.1-1.9,4.5
			c-0.7,1.1,1.1,2.2,1.8,1.1c0.8-1.2,1.3-2.4,1.8-3.8c0.4,0.5,0.9,1,1.3,1.5c0.1,1,0,1.9-0.2,2.9c-0.3,1.3,1.7,1.9,2,0.6
			c0.1-0.4,0.2-0.8,0.2-1.2c1,1.1,1.9,2.1,2.9,3.2c0.9,1,2.4-0.5,1.5-1.5c-4.1-4.5-8.1-9-12.2-13.5c1.7,0.6,3.4,0.9,5.1,1.1
			c0.1,0.2,0.2,0.4,0.4,0.5c2.8,1.7,5.1,3.9,6.8,6.7c0.7,1.1,2.5,0.1,1.8-1.1c-1.4-2.4-3.3-4.4-5.5-6c1.3,0,2.7,0,4,0
			c0.1,0.2,0.2,0.3,0.4,0.5c2.9,2.2,4.9,5.2,5.9,8.6c0.4,1.3,2.4,0.7,2-0.6c-0.9-3.3-2.7-6.1-5.1-8.4c0,0,0.1,0,0.1,0
			c0.7,0.1,1.4,0.2,2.2,0.3c0.1,0.2,0.2,0.4,0.5,0.5c2.8,1.5,4.8,4,5.6,7.1c0.3,1.3,2.4,0.7,2-0.6c-0.6-2.2-1.7-4.2-3.3-5.9
			c0.2,0.1,0.5,0.2,0.7,0.2c0.1,0.1,0.2,0.2,0.3,0.3c2.8,1.8,4.9,4.4,5.9,7.5c0.4,1.3,2.4,0.7,2-0.6c-0.5-1.5-1.2-3-2.1-4.2
			c2.4,1.6,4.6,3.6,6.4,6c0.8,1.1,2.6,0,1.8-1.1c-3.6-4.9-8.4-8.3-14.2-10.2c-3.5-1.1-7.2-1.7-10.9-1.7c-4.2-0.1-7.9,0.6-11.8-0.8
			c4-2.5,8.2-4.7,12.5-6.5c1.2-0.5,0.2-2.3-1.1-1.8c-1.4,0.6-2.8,1.2-4.2,1.9c0.4-0.8,0.7-1.6,1-2.4c0.4-1.3-1.6-1.8-2-0.6
			c-0.5,1.5-1.2,2.9-2,4.3c-0.1,0.1-0.1,0.3-0.1,0.4c-0.5,0.3-1.1,0.6-1.6,0.9c0.4-1.2,0.6-2.5,0.5-3.8c-0.1-1.3-2.2-1.3-2.1,0
			c0.2,2.3-0.6,4.4-2.4,6c-0.1,0.1-0.2,0.2-0.2,0.3C598.9,104.2,598.5,104.4,598.1,104.7z"/>
		<path d="M670.2,51.4c-0.3,0.1-0.7,0.1-1,0.2c1.3-1.2,2.6-2.6,3.7-4.2c0.8-1.1-1.1-2.2-1.8-1.1c-1.3,1.9-2.7,3.4-4.3,4.6
			c1.1-1.7,1.7-3.8,1.8-5.9c0-1.3-2-1.3-2.1,0c-0.1,3.8-2.4,7.3-5.9,8.8c0.9-1.3,1.6-2.8,2-4.3c0.4-1.3-1.6-1.8-2-0.6
			c-0.7,2.3-1.9,4.3-3.6,6c-0.1,0.1-0.2,0.2-0.2,0.3c-0.6,0.2-1.2,0.3-1.9,0.4c-0.5,0.1-1,0.3-1.5,0.4c0.8-1.1,1.5-2.4,2-3.8
			c0.5-1.3-1.5-1.8-2-0.6c-1,2.6-2.7,4.7-4.9,6.2c-0.1,0.1-0.2,0.2-0.3,0.3c-3.7,1.8-7.5,3.6-11.5,3.2c1.9-1.2,3.8-2.6,5.1-4.4
			c3.3-0.8,6-2.7,7.9-5.6c0.7-1.1-1.1-2.2-1.8-1.1c-1.1,1.7-2.7,3-4.5,3.9c1.8-4.4,0.8-9.3,3.2-13.7c0.6-1.2-1.2-2.2-1.8-1.1
			c-0.9,1.7-1.4,3.3-1.8,5c0-0.1-0.1-0.1-0.1-0.2c-0.9-1.9-2.5-4.5-0.9-6.5c0.9-1-0.6-2.5-1.5-1.5c-3.6,4.3,1.4,8.3,1.6,12.7
			c0,0.2,0,0.3,0.1,0.4c-0.3,2.3-1,4.2-2,5.8c-0.5,0.1-0.7,0.5-0.7,0.9c-1.3,1.7-3.1,3-5.3,4.2c-0.1,0-0.1,0.1-0.1,0.1
			c-1.7-1.3-3.1-3.3-4.8-4.6c-3-2.2-7.1-4.2-6.8-8.6c0.1-1.3-2-1.3-2.1,0c-0.2,3.6,2,6.2,4.8,8.2c1.8,1.3,3.7,2.5,5.2,4.2
			c1.2,1.3,2.1,2.5,3.6,3.3c0,1.4,0.1,2.7,0.4,4c-1.1,2.2-2.5,4.1-4.4,5.7c-1,0.9,0.5,2.4,1.5,1.5c1.5-1.3,2.7-2.8,3.8-4.4
			c0.4,1,0.9,2,1.5,3c-0.4,1.3-1.3,2.3-2.6,2.8c-1.2,0.5-0.7,2.5,0.6,2c1.4-0.6,2.6-1.5,3.4-2.8c0.5,0.7,1.1,1.4,1.7,2.1
			c0,0.1,0,0.2,0,0.2c0.2,1.2-0.1,2.3-0.7,3.4c-0.7,1.2,1.1,2.2,1.8,1.1c0.4-0.7,0.7-1.5,0.9-2.3c1,1.2,1.8,2.5,2.5,3.9
			c0.6,1.2,2.4,0.2,1.8-1.1c-0.9-2-2.2-3.8-3.6-5.5c0.2,0.1,0.4,0.1,0.6,0.2c1.3,0.3,1.9-1.7,0.6-2c-1.1-0.3-2-0.7-2.9-1.4
			c-0.3-0.2-0.6-0.3-0.9-0.2c-1-1.4-1.9-2.8-2.6-4.3c1.3,1,2.8,1.7,4.5,2c1.3,0.3,1.9-1.7,0.6-2c-2.7-0.5-4.8-2.1-6.1-4.5
			c0,0,0,0,0,0c0-0.3,0-0.6,0-0.8c7.4,0.9,13.7-4.6,20.7-6.1c0.3-0.1,0.5-0.1,0.8-0.2c1.1,0.4,2.2,0.7,3.3,1.1
			c1.3,0.4,1.8-1.6,0.6-2c-0.1,0-0.2-0.1-0.3-0.1c0.3-0.1,0.6-0.2,0.8-0.3c1.3,0.6,2.6,1.2,3.9,1.8c1.2,0.6,2.3-1.2,1.1-1.8
			c-0.8-0.4-1.6-0.8-2.4-1.1c0.6-0.3,1.2-0.6,1.8-1c0.1,0.1,0.3,0.1,0.4,0.1c1.3,0.1,2.6,0,3.9-0.4C672,53.1,671.5,51.1,670.2,51.4z
			"/>
		<path d="M699,105.1c0.6,1.2,2.4,0.1,1.8-1.1c-0.2-0.4-0.4-0.7-0.6-1c1.8,0.7,3.4,1.6,4.5,3.2c0.8,1.1,2.6,0,1.8-1.1
			c-3.7-5.1-10.3-4-15.2-6.8c1.1-0.3,2.1-0.7,3.1-1.2c0.2,0.2,0.4,0.4,0.8,0.3c1.7-0.1,3.3,0,5,0.3c1.3,0.2,1.9-1.8,0.6-2
			c-0.9-0.2-1.9-0.3-2.8-0.3c1.4-0.7,2.7-1.3,4.2-1.6c1.3-0.3,0.8-2.3-0.6-2c-4.3,1-7.8,4.4-12.3,4.8c0,0-0.1,0-0.1,0
			c-2.7-2.4-6-3.8-9.6-4.1c-1.3-0.1-1.3,2,0,2.1c2.6,0.3,4.9,1.2,7,2.6c-1.3,0.2-2.5,0.5-3.8,1c-0.2-0.1-0.4-0.1-0.7-0.1
			c-1.6,0.5-3.2,0.2-4.5-0.8c-1-0.8-2.5,0.6-1.5,1.5c0.7,0.6,1.5,1,2.3,1.3c-0.3,0.1-0.7,0.3-1,0.4c-0.1-0.1-0.2-0.2-0.3-0.2
			c-0.8-0.5-1.7-0.9-2.5-1.4c-1.2-0.7-2.2,1.2-1.1,1.8c0.4,0.2,0.8,0.5,1.3,0.7c-0.8,0.2-1.6,0.4-2.4,0.5c-1.3,0.1-1.3,2.2,0,2.1
			c2.4-0.3,4.6-0.8,6.8-1.7c1-0.4,1.9-0.9,2.8-1.3c-0.1,0.3-0.2,0.7-0.3,1c-0.1,0.6,0.1,1.1,0.7,1.3c0.5,0.1,1.2-0.2,1.3-0.7
			c0.2-1.2,0.7-2.3,1.7-3c0,0,0.1,0,0.1-0.1c0.8-0.2,1.6-0.4,2.5-0.4c0.4,2.6,0.8,5.2,1.1,7.8c-0.5,1.5-1.7,2.6-2.9,3.6
			c-1.4,1.2-2.8,2.3-4.1,3.5c-1,0.9,0.5,2.3,1.5,1.5c1.6-1.4,3.3-2.7,4.9-4.1c0.4-0.3,0.7-0.6,1-1c0.1,1.6,0.2,3.3,0.2,4.9
			c-1.3,1.6-3.1,2.6-5.1,3.2c-1.3,0.3-0.7,2.4,0.6,2c1.6-0.4,3.1-1.2,4.4-2.2c-0.1,1-0.2,2.1-0.3,3.1c-0.9,1.1-2.1,1.9-3.5,2.2
			c-1.3,0.3-0.8,2.3,0.6,2c0.9-0.2,1.7-0.5,2.4-1c-0.3,1.3-0.7,2.7-1.1,4c-0.4,1.3,1.6,1.8,2,0.6c0.6-1.9,1.1-3.8,1.5-5.7
			c0.3,0.5,0.5,1,0.6,1.5c0.4,1.3,2.4,0.7,2-0.6c-0.4-1.3-1-2.5-1.9-3.5c0-0.2-0.1-0.4-0.3-0.6c0.1-0.7,0.1-1.5,0.2-2.2
			c0.5,0.7,0.9,1.5,1.4,2.3c0.6,1.2,2.4,0.1,1.8-1.1c-0.8-1.5-1.7-2.9-2.7-4.2c0-0.3-0.2-0.5-0.4-0.7c0-1,0-1.9-0.1-2.9
			c0.5,0.7,1.1,1.4,1.6,2.2c0.8,1.1,2.6,0,1.8-1.1c-1.2-1.7-2.5-3.3-3.7-5c0-0.2,0-0.3-0.1-0.5c0-0.1,0-0.2,0-0.3
			c-0.3-2.3-0.6-4.5-1-6.8c0.5,0.3,1.1,0.5,1.7,0.7c0,0.2,0.1,0.5,0.3,0.6c0.7,0.5,1.2,1.2,1.4,2c0.4,1.3,2.4,0.7,2-0.6
			c-0.1-0.4-0.3-0.8-0.6-1.2c0.3,0.1,0.7,0.2,1,0.2c0,0.3,0.2,0.5,0.5,0.7C697.7,103.2,698.5,104,699,105.1z"/>
		<path d="M781,90c1.3,0.4,1.8-1.6,0.6-2c-1.3-0.4-2.5-0.5-3.8-0.4c0.3-0.2,0.6-0.4,0.9-0.7c0.1,0,0.2,0,0.3,0
			c1.9-0.4,3.7-0.7,5.6-1.1c1.3-0.3,0.8-2.3-0.6-2c-0.7,0.1-1.5,0.3-2.2,0.4c1.6-1.7,2.7-3.7,3.8-5.8c0.6-1.2-1.2-2.2-1.8-1.1
			c-1,1.9-2,3.9-3.5,5.5c-0.8,0.8-1.7,1.5-2.6,2.2c0.3-1.5,0.6-3,0.9-4.5c0.2-1.3-1.8-1.9-2-0.6c-0.4,2.3-0.8,4.6-1.4,6.9
			c-0.1,0-0.1,0.1-0.2,0.1c-0.1-0.4-0.3-0.8-0.6-1.2c-0.3-0.5-0.9-0.7-1.4-0.4c-0.5,0.3-0.7,1-0.4,1.4c0.4,0.5,0.5,1.1,0.4,1.7
			c0,0.1,0,0.2,0,0.4c-0.9,1.1-1.6,2.3-1.9,3.8c-0.3,1.3,1.7,1.9,2,0.6c0.2-1.1,0.7-1.9,1.2-2.7c0.1,0,0.1,0,0.2-0.1
			C776.6,89.6,778.8,89.4,781,90z"/>
		<path d="M781.6,93.3c-1.6,0.3-3.1,1.2-4.1,2.4c-0.9,1,0.6,2.5,1.5,1.5c0.8-1,1.9-1.6,3.2-1.9C783.5,95,782.9,93,781.6,93.3z"/>
		<path d="M760.4,125.3c-2.5-0.9-5.5-2.1-8.6-3.6c1.3-0.3,2.6-0.8,3.8-1.3c1.2-0.5,0.2-2.3-1.1-1.8c-1.8,0.8-3.7,1.3-5.7,1.6
			c-0.9-0.5-1.8-1-2.7-1.6c1.1,0.1,2.2-0.1,3.3-0.5c1.2-0.5,0.7-2.5-0.6-2c-2.1,0.8-4.4,0.6-6.2-0.9c-0.3-0.3-0.7-0.3-1-0.2
			c-1.8-1.9-3.3-4-3.9-6.3c0.7,0,1.3-0.1,1.9-0.2c0.2,0.3,0.4,0.5,0.9,0.5c1.6,0,3.2,0,4.7,0c1.3,0,1.3-2.1,0-2.1
			c-0.4,0-0.7,0-1.1,0c1.6-0.5,3.1-0.6,5-0.3c1.3,0.2,1.9-1.8,0.6-2c-1.8-0.3-3.6-0.4-5.4,0.1c-2.3,0.5-4.4,2.2-6.9,2
			c0.2-0.2,0.3-0.4,0.3-0.7c0-0.1,0-0.3,0-0.4c0.1-0.2,0.2-0.4,0.2-0.6c0.2,0,0.3-0.1,0.5-0.3c1.4-1.4,3.1-2.5,4.9-3.2
			c1.2-0.5,0.7-2.5-0.6-2c-1,0.4-1.9,0.8-2.8,1.3c0.4-1.1,0.6-2.2,0.3-3.4c-0.3-1.3-2.3-0.8-2,0.6c0.3,1.4-0.3,2.7-1,4
			c-0.1-0.6-0.3-1.2-0.5-1.8c-0.5-1.3-2.5-0.7-2,0.6c0.5,1.5,0.8,3,0.8,4.6c-0.3,0.7-0.4,1.5-0.5,2.3c-0.2,0.1-0.4,0.3-0.5,0.6
			c-1.1,2.9-3.1,4.4-5.5,5.8c-0.9-0.1-1.8-0.2-2.8-0.1c-0.6,0.1-1,0.4-1,1c0,0.4,0.2,0.8,0.6,0.9c0,0,0,0-0.1,0c-0.1,0-0.2,0-0.3,0
			c-1.3,0-2.5,0.3-3.6,0.8c-1.2,0.6-0.2,2.4,1.1,1.8c0.1,0,0.2-0.1,0.3-0.1c-0.3,0.4-0.5,0.8-0.7,1.2c-0.6,1.2,1.2,2.3,1.8,1.1
			c1.6-3.3,5.1-4.1,7.9-6c0.6-0.4,1.1-0.9,1.6-1.4c-0.3,1.4-0.5,2.9-0.6,4.3c-0.7,1.1-1.7,2-3,2.6c-1.2,0.6-0.2,2.4,1.1,1.8
			c0.6-0.3,1.2-0.7,1.7-1.1c0,2.5,0.1,4.9,0.5,7.4c0.2,1.3,2.2,0.8,2-0.6c-0.1-1-0.2-1.9-0.3-2.9c0.5,0.7,1.1,1.4,1.8,1.9
			c1,0.9,2.5-0.6,1.5-1.5c-1.7-1.4-2.7-3.2-3.1-5.4c0-0.2-0.1-0.3-0.2-0.5c0-0.4,0-0.8,0.1-1.2c0,0,0-0.1,0.1-0.1
			c0-0.1,0.1-0.1,0.1-0.2c0.9,1.9,2.2,3.7,4,5c1,0.8,2.5-0.6,1.5-1.5c-3-2.4-4.7-5.8-4.6-9.7c0.1-0.2,0.1-0.5,0.2-0.7
			c1.2,2.7,3.3,5.1,5.8,7.2c0,0.2,0.1,0.3,0.3,0.4c2.9,2.9,5.2,6.2,7,10c0.6,1.2,2.4,0.2,1.8-1.1c-0.9-1.9-2-3.7-3.2-5.4
			c0.8,0.4,1.6,0.9,2.5,1.3c0,0,0.1,0.1,0.1,0.1c2.2,2,3.9,4.4,5,7.1c0.5,1.2,2.5,0.7,2-0.6c-0.6-1.7-1.5-3.2-2.5-4.6
			c1.6,0.7,3.1,1.2,4.5,1.8C761.1,127.8,761.7,125.8,760.4,125.3z"/>
		<path d="M813.1,124c-3.9-1-7.8-1.8-11.7-2.4c0.9-0.3,1.7-0.6,2.5-1c1.2-0.5,0.2-2.3-1.1-1.8c-2.5,1.1-5.1,1.7-7.8,1.9
			c-1.3-0.1-2.7-0.3-4-0.4c2.6-1.4,4.8-3.3,6.6-5.8c0.8-1.1-1-2.1-1.8-1.1c-0.6,0.9-1.4,1.7-2.1,2.4c0-0.7-0.1-1.3-0.3-2
			c-0.4-1.3-2.4-0.7-2,0.6c0.3,1.1,0.3,2.1,0.1,3.2c-0.4,0.2-0.8,0.5-1.2,0.7c-0.1-0.6-0.1-1.1-0.2-1.7c-0.1-0.6-0.4-1-1-1
			c-0.5,0-1.1,0.5-1,1c0.1,0.9,0.2,1.7,0.3,2.6c-0.3,0.1-0.6,0.2-0.9,0.3c-0.1,0-0.2,0.1-0.3,0.2c-0.7,0.1-1.3,1.1-0.7,1.8
			c0.4,0.6,0.8,1.1,1.1,1.7c0,0.1,0,0.2,0,0.3c0,1.3-0.6,2.4-1.7,3c-1.2,0.6-0.1,2.4,1.1,1.8c0.8-0.4,1.4-1.1,1.9-1.8
			c0.2,1.1,0.3,2.2,0.2,3.4c-0.1,1.3,2,1.3,2.1,0c0.1-1,0-1.9-0.1-2.8c1.1,0.8,2.3,1.4,3.7,1.7c1.3,0.3,1.9-1.7,0.6-2
			c-2-0.5-3.6-1.6-4.8-3.1c-0.1-0.2-0.3-0.3-0.5-0.3c-0.2-0.4-0.4-0.8-0.6-1.2c1.1,0.1,2.2,0.2,3.3,0.3c0.1,0.3,0.3,0.5,0.7,0.6
			c3.3,1,6,3,7.9,5.8c0.7,1.1,2.6,0.1,1.8-1.1c-1.3-1.9-2.9-3.5-4.8-4.7c1.4,0.2,2.9,0.4,4.3,0.7c0.1,0.1,0.1,0.1,0.2,0.2
			c2,1,3.5,2.6,4.3,4.7c0.5,1.2,2.5,0.7,2-0.6c-0.5-1.3-1.1-2.4-2-3.4c1.8,0.4,3.6,0.8,5.4,1.3C813.8,126.4,814.4,124.4,813.1,124z"
			/>
	</g>
	<path d="M466.7,52c-0.1-2-0.7-4.2-2.5-5.3c-1.9-1.2-4.8-1-7-0.9c0,0,0,0-0.1,0c-22.1,0-44.3,0-66.4,0c-3.3,0-6.6,0-10,0
		c0,0,0,0-0.1,0c-2.1-0.1-5-0.3-6.8,0.8c-1.9,1.1-2.6,3.4-2.7,5.5c-0.2,4.6,3.7,8,7.9,8.6c-1.2,23.8-0.3,47.9-0.3,71.7
		c0,0.3,0.1,0.5,0.2,0.8c0.2,1.9,0.8,3.7,1.9,5.3c2.4,3.2,7.2,5.7,10.6,7.7c4.5,2.7,9.1,5.1,13.7,7.7c4.4,2.4,10.1,4.8,11.6,10
		c0.3,1.1,1.4,1.3,2.2,0.9c0.8,0.4,1.9,0.1,2.2-0.9c1.4-5,6.7-7.3,10.9-9.6c4.8-2.7,9.7-5.2,14.4-8.1c3.3-2,7.7-4.3,10.2-7.3
		c1.4-1.7,2-3.6,2.3-5.7c0.1-0.2,0.2-0.5,0.2-0.8c0-23.8,0.9-47.9-0.3-71.7C463,59.9,466.9,56.5,466.7,52z M381.7,74.7
		c11.7,12.4,23.7,24.4,35.3,36.8c0.1,0.1,0.2,0.2,0.4,0.3c0,3.6,0,7.1,0,10.7c-11.6-12.1-23.7-23.5-35.2-35.6
		c-0.2-0.2-0.4-0.4-0.6-0.5C381.6,82.6,381.7,78.7,381.7,74.7z M417.4,94.6c0,3.8,0,7.5,0,11.3c-11.6-12.3-23.5-24.3-35.1-36.6
		c-0.1-0.2-0.3-0.3-0.5-0.4c0.1-2.8,0.2-5.5,0.3-8.3c11.8,0,23.5,0,35.3,0C416.9,71.9,417.5,83.4,417.4,94.6z M402.6,148.7
		c-4.2-2.3-8.5-4.6-12.5-7.3c-1.9-1.3-4.7-2.7-6.3-4.5c-1.7-1.9-1.9-4.6-1.9-7c0,0,0,0,0,0c0-12.5-0.3-25-0.3-37.6
		c11.6,12.2,23.9,23.7,35.5,35.9c0.1,0.1,0.2,0.2,0.3,0.3c0,6.9,0,13.8,0,20.7c0,3,0.1,6,0,9.1C413.8,153.9,407.4,151.4,402.6,148.7
		z M454.1,137c-1.6,1.8-4.3,3.1-6.3,4.5c-4,2.7-8.3,4.9-12.5,7.3c-4.7,2.6-11,5.1-14.7,9.5c0.4-10.1-0.1-20.4-0.1-30.5
		c0-0.2,0-0.3,0-0.5c0.1-0.3,0.1-0.6,0-1c0-5.3,0-10.6,0-15.9c0-0.2,0.1-0.5,0-0.7c0-12.2,0-24.4,0.1-36.7c0-4.1-0.1-8.2,0-12.3
		c8.8,0,17.7,0,26.5,0c2.8,0,5.6,0,8.5,0c1.2,23,0.4,46.2,0.3,69.2c0,0,0,0,0,0C455.9,132.4,455.8,135.1,454.1,137z M456.3,57.5
		c-0.2,0-0.5,0-0.7,0.1c-21.7,0-43.3,0-65,0c-2.8,0-5.7,0-8.5,0c-0.2-0.1-0.4-0.1-0.7-0.1c-3.3,0.4-7.4-1.7-7.2-5.6
		c0.1-1.4,0.4-2.6,1.8-3c1.5-0.3,3.3-0.2,4.7-0.2c0.1,0,0.1,0,0.2,0c22,0,44.1,0,66.1,0c3.2,0,6.4,0,9.5,0c0.1,0,0.1,0,0.2,0
		c1.4,0,3-0.1,4.4,0.2c1.6,0.3,2.1,1.4,2.1,3C463.7,55.8,459.7,57.9,456.3,57.5z"/>
	<g>
		<path class="st3" d="M392.1,30.4c-1.3,0-1.3,2.1,0,2.1C393.4,32.5,393.4,30.4,392.1,30.4z"/>
		<path class="st3" d="M403.6,28c-1.3,0-1.3,2.1,0,2.1C405,30.1,405,28,403.6,28z"/>
		<path class="st3" d="M462.8,24.3c0.3-0.6,0.2-1.3-0.6-1.5c-3.1-0.5-6.1-1-9.2-1.3c-0.4,0-0.7,0.1-0.8,0.4
			c-0.1,0.1-0.1,0.1-0.2,0.2c-1.1,1.5-2.2,3-3.3,4.6c0-1.9,0-3.7-0.1-5.6c-0.1-1-1.3-1.3-1.9-0.7c-2.5,1.2-5.4,2.2-7.8,3.7
			c0.2-2.1,0.3-4.3,0.4-6.4c1.7,0,3.4-0.9,4.1-2.7c0.9-2.1-0.2-4.7-2.3-5.6c0,0-0.1,0-0.1,0c-0.1-0.1-0.2-0.1-0.3-0.2
			c-2.4-0.9-5.1,0.1-6.1,2.6c-0.9,2.3,0.2,4.2,2.1,5.2c-1.6,1.8-3.1,3.7-4.7,5.5c-0.8-1.9-1.5-3.9-2.3-5.8c-0.2-0.6-0.9-0.8-1.4-0.7
			c-0.1,0-0.2,0.1-0.3,0.1c0,0,0,0,0,0c0,0,0,0,0,0c-0.1,0-0.1,0.1-0.1,0.1c0,0,0,0,0,0c-1.5,1.8-3,3.7-4.5,5.5
			c-0.8-2.7-1.5-5.5-2.3-8.2c2.3,0.3,4.7-1.1,5.2-3.4c0.3-1.5-0.1-3.1-1.1-4.2c-0.4-0.5-1.1-1-1.9-1.3c0.3-1,0.2-2-0.4-3
			c-1-1.5-2.7-1.9-4.4-1.7c-0.2,0-0.3,0.1-0.4,0.1c-2.3,0.2-3.6,2.5-3.1,4.5c-2.3,0.4-4,2.7-3.5,5.1c0.7,2.9,3.5,4.1,6.1,3.5
			c-0.9,2.9-1.7,5.8-2.8,8.6c-1.5-1.9-3.1-3.7-4.6-5.6c0,0,0,0,0,0c0,0-0.1-0.1-0.1-0.1c0,0,0,0-0.1,0c0,0,0,0,0,0
			c-0.1-0.1-0.2-0.1-0.3-0.2c-0.5-0.1-1.1,0-1.4,0.7c-0.8,1.9-1.5,3.9-2.3,5.8c-1.6-1.8-3.1-3.7-4.7-5.5c1.9-1,3-2.8,2.2-5.1
			c-0.9-2.5-3.7-3.6-6.2-2.7c-0.1,0-0.2,0.1-0.3,0.2c0,0-0.1,0-0.1,0c-2,0.9-3.2,3.3-2.4,5.5c0.7,1.8,2.4,2.8,4.2,2.8
			c0.1,2.1,0.2,4.3,0.4,6.4c-2.4-1.5-5.3-2.5-7.8-3.7c-0.5-0.6-1.8-0.3-1.9,0.7c-0.1,1.9-0.2,3.7-0.1,5.6c-1.1-1.5-2.2-3-3.3-4.6
			c-0.1-0.1-0.1-0.2-0.2-0.2c-0.2-0.3-0.4-0.4-0.8-0.4c-3.1,0.3-6.2,0.8-9.2,1.3c-0.8,0.1-0.9,0.9-0.6,1.5c0,0.2,0.1,0.5,0.3,0.7
			c3,2.8,6.3,5.2,9.8,7.4c0,0.2,0.1,0.3,0.2,0.5c0.6,1,1.3,1.9,1.9,2.9c-0.5,1.3-0.2,2.8,0.8,3.9c1.1,1.1,3,1.3,4.3,0.5
			c8.6-2.8,17.4-4.4,26.4-4.7c9,0.4,17.8,1.9,26.4,4.7c1.4,0.8,3.2,0.6,4.3-0.5c1-1,1.3-2.5,0.8-3.9c0.6-1,1.3-1.9,1.9-2.9
			c0.1-0.2,0.2-0.3,0.2-0.5c3.5-2.2,6.8-4.7,9.8-7.4C462.7,24.8,462.8,24.5,462.8,24.3z M453.4,23.7c2.1,0.2,4.3,0.6,6.4,0.9
			c-2.6,2.2-5.3,4.3-8.2,6.1c-0.5-0.6-1.1-1.1-1.7-1.6c0-0.2,0-0.3-0.1-0.4C451,27,452.2,25.3,453.4,23.7z M448.9,34.6
			c-9.5-3.2-19.4-4.8-29.4-5.3c-0.1,0-0.2,0-0.3,0c0,0-0.1,0-0.1,0c0,0-0.1,0-0.1,0c-0.1,0-0.2,0-0.3,0c-10,0.6-19.9,2.1-29.4,5.3
			c-0.5-0.7-1-1.4-1.5-2.2c0.8-0.9,1.7-1.8,2.7-2.5c9.4-2.3,18.9-3.7,28.6-4.2l0,0l0,0c9.7,0.5,19.2,1.9,28.6,4.2
			c1,0.7,1.9,1.5,2.7,2.5C449.9,33.1,449.4,33.8,448.9,34.6z M405.4,25c-1.3,0.2-2.6,0.4-3.9,0.6c-0.2-1.9-0.3-3.9-0.4-5.8
			c1.4,1.7,2.8,3.3,4.3,5C405.4,24.8,405.4,24.9,405.4,25z M391.6,27.5c-0.1-1.6-0.1-3.2,0-4.8c2.3,1,4.9,1.9,6.9,3.4
			C396.2,26.5,393.9,27,391.6,27.5z M446.6,27.5c-2.3-0.5-4.6-1-6.9-1.4c2-1.4,4.6-2.4,6.9-3.4C446.6,24.3,446.6,25.9,446.6,27.5z
			 M432.8,25c0-0.1,0-0.1,0-0.2c1.4-1.7,2.8-3.3,4.3-5c-0.1,1.9-0.2,3.9-0.4,5.8C435.3,25.4,434.1,25.2,432.8,25z M436.5,12.6
			c0.6-1.5,2-1.9,3.4-1.4c0,0,0.1,0,0.1,0.1c2.6,1.2,1.6,5-1.3,4.3C437.2,15.3,435.9,14.3,436.5,12.6z M430.6,24.7
			c-2.1-0.3-4.3-0.5-6.4-0.7c1.4-1.7,2.8-3.4,4.2-5.1C429.1,20.9,429.9,22.8,430.6,24.7z M413.7,9.6c-0.6-1.7,1-3.3,2.7-2.7
			c0.9,0.3,1.4-0.5,1.2-1.3c0-0.3,0-0.6-0.3-0.8c-1.1-1.2,0-2.6,1.4-2.5c0.3,0,0.6-0.1,0.7-0.3c0.6,0,1.2,0.2,1.6,0.7
			c0.4,0.6,0.3,1.3-0.1,1.9c-0.4,0.5-0.2,1.2,0.2,1.6c0.2,0.6,1,1,1.5,0.5c0,0,0.1,0.1,0.3,0.1c0.2,0.1,0.3,0.2,0.5,0.4
			c0.3,0.3,0.5,0.7,0.6,1.1c0.2,0.7,0.2,1.5-0.1,2.1c-0.8,1.3-2.5,1.5-3.8,0.8c-0.1-0.2-0.3-0.3-0.6-0.3c0,0,0,0-0.1,0
			c-0.2,0-0.3,0-0.5,0c-0.2-0.1-0.5-0.1-0.8,0.1C416.7,11.9,414.4,11.6,413.7,9.6z M419.3,15.3c0.8,2.8,1.5,5.6,2.3,8.4
			c0,0.1,0,0.1,0.1,0.2c-0.8-0.1-1.6-0.1-2.4-0.2c-0.1,0-0.2,0-0.3,0c0,0,0,0,0,0h0l0,0c0,0,0,0,0,0c-0.1,0-0.2,0-0.3,0
			c-0.8,0-1.6,0.1-2.4,0.2c0-0.1,0.1-0.1,0.1-0.2C417.6,20.9,418.4,18.1,419.3,15.3z M409.8,19c1.4,1.7,2.8,3.4,4.2,5.1
			c-2.1,0.2-4.3,0.4-6.4,0.7C408.3,22.8,409,20.9,409.8,19z M398.1,11.3C398.2,11.3,398.2,11.3,398.1,11.3c1.4-0.5,2.8-0.2,3.4,1.1
			c0.9,1.7-0.5,2.8-2.1,3.2C396.6,16.3,395.5,12.5,398.1,11.3z M388.3,28.6c-0.1,0.1-0.1,0.3-0.1,0.4c-0.6,0.5-1.2,1-1.7,1.6
			c-2.9-1.8-5.6-3.9-8.2-6.1c2.1-0.3,4.3-0.7,6.4-0.9C385.9,25.3,387.1,27,388.3,28.6z M446.8,38.4c-0.1-0.1-0.2-0.2-0.4-0.2
			c0,0-0.1,0-0.1,0c-0.1,0-0.2-0.1-0.3-0.1c-8.6-2.8-17.3-4.3-26.3-4.7c-0.1,0-0.2-0.1-0.4,0c-0.1,0-0.2,0-0.3,0c-0.1,0-0.2,0-0.3,0
			c-0.1,0-0.3,0-0.4,0c-9,0.4-17.8,2-26.3,4.7c-0.1,0-0.2,0-0.3,0.1c0,0-0.1,0-0.1,0c-0.2,0-0.3,0.1-0.4,0.2c-1.2,0.5-2.3-0.6-2-1.7
			c0.1,0,0.2,0,0.3-0.1c9.5-3.2,19.3-4.8,29.3-5.3c10,0.5,19.8,2.1,29.3,5.3c0.1,0,0.2,0.1,0.3,0.1
			C449.1,37.8,447.9,38.8,446.8,38.4z"/>
		<path class="st3" d="M446.1,30.4c-1.3,0-1.3,2.1,0,2.1C447.4,32.5,447.4,30.4,446.1,30.4z"/>
		<path class="st3" d="M434.5,28c-1.3,0-1.3,2.1,0,2.1C435.9,30.1,435.9,28,434.5,28z"/>
		<path class="st3" d="M418.7,26.6c-1.3,0-1.3,2.1,0,2.1C420,28.7,420,26.6,418.7,26.6z"/>
	</g>
	<g>
		<path class="st4" d="M439.9,69.6l1.2,3.7c0.1,0.5,0.6,0.8,1.1,0.8h3.9c1.1,0,1.5,1.4,0.7,2l-3.2,2.3c-0.4,0.3-0.6,0.8-0.4,1.3
			l1.2,3.7c0.3,1-0.8,1.9-1.7,1.3l-3.2-2.3c-0.4-0.3-0.9-0.3-1.3,0l-3.2,2.3c-0.9,0.6-2.1-0.2-1.7-1.3l1.2-3.7c0.1-0.5,0-1-0.4-1.3
			l-3.2-2.3c-0.9-0.6-0.4-2,0.7-2h3.9c0.5,0,0.9-0.3,1.1-0.8l1.2-3.7C438.1,68.5,439.5,68.5,439.9,69.6z"/>
		<path d="M443.3,85.7c-0.4,0-0.8-0.1-1.2-0.4L439,83c-0.1-0.1-0.2-0.1-0.3,0l-3.2,2.3c-0.7,0.5-1.6,0.5-2.3,0
			c-0.7-0.5-1-1.4-0.7-2.2l1.2-3.7c0-0.1,0-0.2-0.1-0.3l-3.2-2.3c-0.7-0.5-1-1.4-0.7-2.2c0.3-0.8,1-1.4,1.9-1.4h3.9
			c0.1,0,0.2-0.1,0.3-0.2l1.2-3.8c0.3-0.8,1-1.3,1.9-1.3h0c0.9,0,1.6,0.5,1.9,1.3l1.2,3.7c0,0.1,0.1,0.2,0.3,0.2h3.9
			c0.9,0,1.6,0.5,1.9,1.4c0.3,0.8,0,1.7-0.7,2.2l-3.2,2.3c-0.1,0.1-0.1,0.2-0.1,0.3l1.2,3.7c0.3,0.8,0,1.7-0.7,2.2
			C444.1,85.6,443.7,85.7,443.3,85.7z M438.8,81.3c0.4,0,0.8,0.1,1.2,0.4l3.2,2.3c0.1,0.1,0.2,0.1,0.3,0c0.1,0,0.2-0.2,0.1-0.3
			l-1.2-3.7c-0.3-0.8,0-1.7,0.7-2.2l3.2-2.3c0.1-0.1,0.1-0.2,0.1-0.3c0-0.1-0.1-0.2-0.3-0.2h-3.9c-0.9,0-1.6-0.6-1.9-1.4l-1.2-3.7
			c-0.1-0.2-0.2-0.2-0.3-0.2l0,0c-0.1,0-0.2,0-0.3,0.2l-1.2,3.7c-0.2,0.8-1,1.4-1.9,1.4h-3.9c-0.2,0-0.2,0.1-0.3,0.2
			c0,0.1,0,0.2,0.1,0.3l3.2,2.3c0.7,0.5,1,1.4,0.7,2.2l-1.2,3.7c0,0.1,0,0.2,0.1,0.3c0.1,0,0.2,0.1,0.3,0l3.2-2.3
			C438,81.4,438.4,81.3,438.8,81.3z"/>
	</g>
	<g>
		<path class="st4" d="M439.9,90.5l1.2,3.7c0.1,0.5,0.6,0.8,1.1,0.8h3.9c1.1,0,1.5,1.4,0.7,2l-3.2,2.3c-0.4,0.3-0.6,0.8-0.4,1.3
			l1.2,3.7c0.3,1-0.8,1.9-1.7,1.3l-3.2-2.3c-0.4-0.3-0.9-0.3-1.3,0l-3.2,2.3c-0.9,0.6-2.1-0.2-1.7-1.3l1.2-3.7c0.1-0.5,0-1-0.4-1.3
			l-3.2-2.3c-0.9-0.6-0.4-2,0.7-2h3.9c0.5,0,0.9-0.3,1.1-0.8l1.2-3.7C438.1,89.4,439.5,89.4,439.9,90.5z"/>
		<path d="M443.3,106.6c-0.4,0-0.8-0.1-1.2-0.4l-3.2-2.3c-0.1-0.1-0.2-0.1-0.3,0l-3.2,2.3c-0.7,0.5-1.6,0.5-2.3,0
			c-0.7-0.5-1-1.4-0.7-2.2l1.2-3.7c0-0.1,0-0.2-0.1-0.3l-3.2-2.3c-0.7-0.5-1-1.4-0.7-2.2c0.3-0.8,1-1.4,1.9-1.4h3.9
			c0.1,0,0.2-0.1,0.3-0.2l1.2-3.8c0.3-0.8,1-1.3,1.9-1.3h0c0.9,0,1.6,0.5,1.9,1.3l1.2,3.7c0,0.1,0.1,0.2,0.3,0.2h3.9
			c0.9,0,1.6,0.5,1.9,1.4c0.3,0.8,0,1.7-0.7,2.2L444,100c-0.1,0.1-0.1,0.2-0.1,0.3l1.2,3.7c0.3,0.8,0,1.7-0.7,2.2
			C444.1,106.5,443.7,106.6,443.3,106.6z M438.8,102.2c0.4,0,0.8,0.1,1.2,0.4l3.2,2.3c0.1,0.1,0.2,0.1,0.3,0c0.1,0,0.2-0.2,0.1-0.3
			l-1.2-3.7c-0.3-0.8,0-1.7,0.7-2.2l3.2-2.3c0.1-0.1,0.1-0.2,0.1-0.3c0-0.1-0.1-0.2-0.3-0.2h-3.9c-0.9,0-1.6-0.6-1.9-1.4l-1.2-3.7
			c-0.1-0.2-0.2-0.2-0.3-0.2l0,0c-0.1,0-0.2,0-0.3,0.2l-1.2,3.7c-0.2,0.8-1,1.4-1.9,1.4h-3.9c-0.2,0-0.2,0.1-0.3,0.2
			c0,0.1,0,0.2,0.1,0.3l3.2,2.3c0.7,0.5,1,1.4,0.7,2.2l-1.2,3.7c0,0.1,0,0.2,0.1,0.3c0.1,0,0.2,0.1,0.3,0l3.2-2.3
			C438,102.3,438.4,102.2,438.8,102.2z"/>
	</g>
	<g>
		<path class="st4" d="M439.9,112.2l1.2,3.7c0.1,0.5,0.6,0.8,1.1,0.8h3.9c1.1,0,1.5,1.4,0.7,2l-3.2,2.3c-0.4,0.3-0.6,0.8-0.4,1.3
			l1.2,3.7c0.3,1-0.8,1.9-1.7,1.3l-3.2-2.3c-0.4-0.3-0.9-0.3-1.3,0l-3.2,2.3c-0.9,0.6-2.1-0.2-1.7-1.3l1.2-3.7c0.1-0.5,0-1-0.4-1.3
			l-3.2-2.3c-0.9-0.6-0.4-2,0.7-2h3.9c0.5,0,0.9-0.3,1.1-0.8l1.2-3.7C438.1,111.2,439.5,111.2,439.9,112.2z"/>
		<path d="M443.3,128.3c-0.4,0-0.8-0.1-1.2-0.4l-3.2-2.3c-0.1-0.1-0.2-0.1-0.3,0l-3.2,2.3c-0.7,0.5-1.6,0.5-2.3,0
			c-0.7-0.5-1-1.4-0.7-2.2l1.2-3.7c0-0.1,0-0.2-0.1-0.3l-3.2-2.3c-0.7-0.5-1-1.4-0.7-2.2c0.3-0.8,1-1.4,1.9-1.4h3.9
			c0.1,0,0.2-0.1,0.3-0.2l1.2-3.8c0.3-0.8,1-1.3,1.9-1.3h0c0.9,0,1.6,0.5,1.9,1.3l1.2,3.7c0,0.1,0.1,0.2,0.3,0.2h3.9
			c0.9,0,1.6,0.5,1.9,1.4c0.3,0.8,0,1.7-0.7,2.2l-3.2,2.3c-0.1,0.1-0.1,0.2-0.1,0.3l1.2,3.7c0.3,0.8,0,1.7-0.7,2.2
			C444.1,128.2,443.7,128.3,443.3,128.3z M438.8,123.9c0.4,0,0.8,0.1,1.2,0.4l3.2,2.3c0.1,0.1,0.2,0.1,0.3,0c0.1,0,0.2-0.2,0.1-0.3
			l-1.2-3.7c-0.3-0.8,0-1.7,0.7-2.2l3.2-2.3c0.1-0.1,0.1-0.2,0.1-0.3c0-0.1-0.1-0.2-0.3-0.2h-3.9c-0.9,0-1.6-0.6-1.9-1.4l-1.2-3.7
			c-0.1-0.2-0.2-0.2-0.3-0.2l0,0c-0.1,0-0.2,0-0.3,0.2l-1.2,3.7c-0.2,0.8-1,1.4-1.9,1.4h-3.9c-0.2,0-0.2,0.1-0.3,0.2
			c0,0.1,0,0.2,0.1,0.3l3.2,2.3c0.7,0.5,1,1.4,0.7,2.2l-1.2,3.7c0,0.1,0,0.2,0.1,0.3c0.1,0,0.2,0.1,0.3,0l3.2-2.3
			C438,124,438.4,123.9,438.8,123.9z"/>
	</g>
</g>
<g>
	<g>
		<path class="st5" d="M452,256h9.6c5.1,0,8.5,0.5,10.4,1.4c1.9,0.9,2.9,2.2,3,3.8c0.1,1.6,0.1,3.5,0,5.7v13
			c0.1,4.6-1.1,7.7-3.6,9.3c-2.5,1.6-7.1,2.4-13.8,2.3H452V256L452,256z M463.1,341.4v-4H452v-41.5h5.8c5.2-0.2,8.8,1.1,10.8,3.7
			s3,7.9,3,15.7c0.1,10.2,1.8,17.4,5.1,21.7c3.3,4.3,9,6.4,17.1,6.2c2.5,0,5.2-0.4,8-1.2c2.9-0.8,5.4-1.8,7.6-2.9l-0.8-2.8
			c-3.3,0.7-5.7,0.9-7.3,0.6c-1.6-0.3-2.6-0.6-3-1.2c-0.9-0.9-1.6-2.8-1.9-5.6c-0.3-2.8-0.5-6.9-0.5-12.4c0.1-6.4-2-11.5-6.2-15.3
			c-4.2-3.9-10.9-6.6-20.1-8.3c3.9-0.6,8.1-1.5,12.7-2.8c4.6-1.3,8.5-3.4,11.9-6.2c3.3-2.8,5.1-6.7,5.2-11.5
			c-0.1-5.2-1.5-9.4-4.1-12.6c-2.7-3.2-6.1-5.5-10.2-6.9c-4.1-1.4-8.5-2.2-13-2.1h-53.1v4h10.7v81.3h-10.4v4H463.1L463.1,341.4z"/>
		<path class="st5" d="M361.3,279.6l11.9,32.8h-24.1L361.3,279.6L361.3,279.6z M353.3,341.4v-4l-4,0.1c-1.9,0.1-3.7,0-5.4-0.4
			c-1.7-0.3-2.6-1-2.7-2.1c0-0.7,0.3-1.8,0.8-3.5c0.5-1.7,1.1-3.5,1.9-5.6l3.5-9.6h27.4l7.2,21h-10.3v4h42.4v-4h-8L373,250h-5.2
			l-31.6,83.5c-0.9,1.9-2.4,3.1-4.6,3.4c-2.2,0.4-4.2,0.5-5.9,0.4v4H353.3L353.3,341.4z"/>
		<path class="st6" d="M228.2,255.9c-2.8-1.7-5.6-3.1-8.7-4.2c-3-1.1-6.2-1.6-9.4-1.7c-7.8,0.2-14.4,2.7-19.8,7.7
			c-5.3,4.9-8.1,11.3-8.3,19.1c0.1,6.7,1.4,11.9,3.8,15.7c2.5,3.8,5.7,6.7,9.6,8.7c3.9,2,8.1,3.5,12.5,4.5c4.4,1,8.5,2,12.4,3
			c3.9,1,7.1,2.4,9.6,4.3c2.5,1.9,3.8,4.7,3.8,8.5c0,4.4-1.6,8.5-5.1,12.1c-3.4,3.6-8.8,5.6-16.2,5.8c-6.8-0.2-12.3-2.5-16.7-6.9
			c-4.4-4.4-7.4-9.8-9.3-16.2h-4.8v25.9h4.8l6.8-5.1c2.8,2.1,5.7,3.7,8.7,4.7c3,1,6.3,1.5,9.7,1.5c7.3-0.1,13.2-1.7,17.8-4.8
			c4.6-3.1,8-7,10.2-11.8c2.2-4.8,3.3-9.9,3.3-15.2c-0.1-7.7-1.5-13.5-4.3-17.6c-2.7-4-6.2-6.9-10.3-8.5c-3.3-1.4-7.2-2.7-11.9-3.9
			c-4.6-1.2-8.8-2.2-12.4-3c-3.4-0.6-6.2-1.7-8.5-3.3c-2.3-1.6-3.5-4.3-3.6-8.2c0.1-2.9,1.1-5.4,2.9-7.3c1.9-1.9,4.2-3.4,6.9-4.3
			c2.7-1,5.3-1.4,7.8-1.4c5.9,0.2,11,2.5,15.2,6.7c4.2,4.3,6.8,9.2,8,14.9h4.3V252h-4.1L228.2,255.9L228.2,255.9z"/>
		<path class="st6" d="M311.9,257.2c-3.2-2.5-6.6-4.4-10.2-5.5c-3.6-1.2-7.4-1.7-11.4-1.7c-6.1,0.1-11.7,1.7-16.9,4.8
			c-5.1,3.1-9.6,7.1-13.4,11.8c-3.8,4.8-6.8,9.8-8.9,15c-2.1,5.2-3.2,9.9-3.2,14.2c0.1,9,2.1,17.1,6.1,24.2
			c3.9,7.1,9.2,12.8,15.8,16.9c6.6,4.1,13.9,6.3,21.9,6.4c3.8,0,7.5-0.7,11.1-1.9c3.6-1.3,7-2.9,10.2-5l5.2,4.9h4.8v-26.5h-4.5
			c-2.1,7-5.2,12.8-9.5,17.4c-4.3,4.6-10.2,7-17.7,7.1c-5.6,0.1-9.6-1.2-12.1-3.8c-2.5-2.6-4-7.1-4.5-13.4
			c-0.5-6.3-0.8-15.1-0.7-26.3c0-12.4,0.5-21.6,1.6-27.6c1.1-6,2.8-9.9,5.3-11.8c2.5-1.8,5.7-2.7,9.9-2.5c7.3,0.2,12.9,2.4,16.9,6.8
			c4,4.3,7.2,9.7,9.6,16.1h3.9V252h-4.5L311.9,257.2L311.9,257.2z"/>
		<path class="st5" d="M544.8,256h9.2c5.4-0.1,9.3,0.6,11.6,2.2c2.4,1.6,3.6,5,3.5,10.1v14.4c0.1,4.4-0.9,7.7-3.1,9.9
			c-2.2,2.2-6.2,3.3-12,3.3h-9.2V256L544.8,256z M556.8,341.4v-4h-12.1V300h8c5.5,0.1,11.4-0.5,17.8-1.7c6.3-1.2,11.7-3.7,16.3-7.3
			c4.5-3.6,6.9-9,7.1-16.1c0-3.6-1-7.1-3.2-10.6c-2.2-3.5-5.6-6.4-10.3-8.7c-4.7-2.3-10.9-3.5-18.5-3.6h-49.5v4h9.8v81.3h-10v4
			H556.8L556.8,341.4z"/>
		<path class="st5" d="M600.5,341.4v-4c-0.7,0-2.1,0.1-3.9,0.1c-1.9,0.1-3.7,0-5.4-0.4c-1.7-0.3-2.6-1-2.7-2.1
			c0-0.7,0.3-1.8,0.8-3.5c0.5-1.7,1.1-3.5,1.9-5.6l3.5-9.6h27.4l7.2,21H619v4h42.4v-4h-8L620.2,250H615l-31.6,83.5
			c-0.9,1.9-2.4,3.1-4.6,3.4c-2.2,0.4-4.2,0.5-5.9,0.4v4H600.5L600.5,341.4z M608.6,279.6l11.9,32.8h-24.1L608.6,279.6L608.6,279.6z
			"/>
	</g>
	<g>
		<g>
			<path d="M192.2,211.9l3.9,11.5h-8L192.2,211.9L192.2,211.9z M189.3,232.7v-1h-4.2l2.6-7.3h8.9l2.5,7.3h-4.3v1h13.1v-1h-3.3
				l-9.4-27.1h-1.4l-9.8,27.1h-3.3v1H189.3L189.3,232.7z"/>
			<polygon points="232.7,206.3 236.9,206.3 236.9,205.2 227.5,205.2 227.5,206.3 231.4,206.3 231.4,223.2 219.2,205.2 208.7,205.2 
				208.7,206.3 212.7,206.3 212.7,231.7 208.7,231.7 208.7,232.7 218.1,232.7 218.1,231.7 214,231.7 214,207.1 231.5,233.3 
				232.7,233.3 232.7,206.3 			"/>
			<path d="M258.3,232.7v-1H254v-25.5c2.8-0.1,4.9,0.5,6.1,1.8c1.2,1.3,2,3.3,2.3,6h1.3l-0.5-8.8h-23.6l-0.5,8.8h1.3
				c0.3-2.6,1.1-4.6,2.3-6c1.2-1.3,3.2-1.9,6.1-1.8v25.5h-4.3v1H258.3L258.3,232.7z"/>
			<polygon points="275.7,206.3 279.8,206.3 279.8,205.2 266.4,205.2 266.4,206.3 270.4,206.3 270.4,231.7 266.4,231.7 266.4,232.7 
				279.8,232.7 279.8,231.7 275.7,231.7 275.7,206.3 			"/>
			<path d="M304.4,224.6c-0.6,2.3-1.5,4.2-2.9,5.7c-1.3,1.5-3.3,2.2-5.8,2.1c-1.6-0.1-2.8-0.6-3.8-1.4c-1-0.8-1.7-1.9-2-3.2
				c-0.4-1.4-0.6-2.8-0.6-4.2c-0.1-1.5-0.1-2.8-0.1-4c-0.1-1.7,0-3.6,0-5.7c0.1-2.1,0.6-3.9,1.5-5.4c0.7-1.1,1.4-1.8,2.3-2.2
				c0.8-0.4,1.9-0.6,3.2-0.6c2.1,0,3.8,0.7,5.2,2c1.4,1.3,2.3,3.1,2.6,5.3h1.2V205h-0.9l-1.6,1.7c-0.9-0.7-1.9-1.3-3-1.6
				c-1.1-0.3-2.2-0.5-3.4-0.5c-1,0-1.9,0.1-2.9,0.3c-1,0.2-1.9,0.6-2.7,1c-2.3,1.4-4.1,3.3-5.5,5.6c-1.3,2.3-2,4.8-2,7.6
				c0,2.3,0.6,4.6,1.7,6.7c1.1,2.2,2.6,3.9,4.5,5.3c1.9,1.4,4.1,2.1,6.5,2.2c1.2,0,2.5-0.2,3.7-0.6c1.3-0.4,2.4-1,3.3-1.8l1.7,2h0.9
				v-8.4H304.4L304.4,224.6z"/>
			<path d="M320.4,211.9l3.9,11.5h-8L320.4,211.9L320.4,211.9z M317.4,232.7v-1h-4.2l2.6-7.3h8.9l2.5,7.3h-4.3v1H336v-1h-3.3
				l-9.4-27.1h-1.4l-9.8,27.1h-3.3v1H317.4L317.4,232.7z"/>
			<path d="M369.8,224.6c-0.6,2.3-1.5,4.2-2.9,5.7c-1.3,1.5-3.3,2.2-5.8,2.1c-1.6-0.1-2.8-0.6-3.8-1.4c-1-0.8-1.7-1.9-2-3.2
				c-0.4-1.4-0.6-2.8-0.6-4.2c-0.1-1.5-0.1-2.8-0.1-4c-0.1-1.7,0-3.6,0-5.7c0.1-2.1,0.6-3.9,1.5-5.4c0.7-1.1,1.4-1.8,2.3-2.2
				c0.8-0.4,1.9-0.6,3.2-0.6c2,0,3.8,0.7,5.2,2c1.4,1.3,2.3,3.1,2.6,5.3h1.2V205h-0.9l-1.6,1.7c-0.9-0.7-1.9-1.3-3-1.6
				c-1.1-0.3-2.2-0.5-3.4-0.5c-1,0-1.9,0.1-2.9,0.3c-1,0.2-1.9,0.6-2.7,1c-2.3,1.4-4.1,3.3-5.5,5.6c-1.3,2.3-2,4.8-2,7.6
				c0,2.3,0.6,4.6,1.7,6.7c1.1,2.2,2.6,3.9,4.5,5.3c1.9,1.4,4.1,2.1,6.5,2.2c1.2,0,2.5-0.2,3.7-0.6c1.2-0.4,2.4-1,3.3-1.8l1.7,2h0.9
				v-8.4H369.8L369.8,224.6z"/>
			<path d="M385.7,211.9l3.9,11.5h-8L385.7,211.9L385.7,211.9z M382.8,232.7v-1h-4.2l2.6-7.3h8.9l2.5,7.3h-4.3v1h13.1v-1H398
				l-9.4-27.1h-1.4l-9.8,27.1H374v1H382.8L382.8,232.7z"/>
			<path d="M406.9,231.3c0.8,0.7,1.7,1.2,2.7,1.5c1.1,0.4,2.1,0.6,3.1,0.6c2.7,0,4.8-0.9,6.3-2.6c1.5-1.7,2.3-3.8,2.3-6.5
				c0-1.8-0.3-3.5-1-4.8c-0.7-1.4-1.9-2.4-3.6-3.3c-0.4-0.2-0.9-0.4-1.4-0.5c-0.5-0.2-0.9-0.3-1.3-0.4c-0.3-0.1-0.7-0.2-1.2-0.4
				c-0.4-0.1-0.9-0.3-1.4-0.4c-1.3-0.3-2.4-0.7-3.3-1.2c-0.9-0.5-1.4-1.5-1.4-3c0-1.4,0.6-2.5,1.6-3.4c1-0.9,2.2-1.3,3.5-1.3
				c2.1,0.1,3.7,0.8,4.9,2.1c1.2,1.4,1.9,3,2.2,5.1h1.3V205h-0.7l-1.6,1.6c-0.9-0.7-1.9-1.3-2.8-1.6c-1-0.3-2-0.5-3.2-0.5
				c-2.2,0-4,0.8-5.4,2.1c-1.4,1.4-2.1,3.2-2.1,5.4c0,2,0.5,3.6,1.4,5c1,1.4,2.4,2.3,4.3,2.9c0.4,0.1,0.8,0.3,1.2,0.4
				c0.4,0.1,0.8,0.3,1.2,0.4c1.1,0.3,2.1,0.7,3.1,1.1c1,0.4,1.8,0.9,2.4,1.6c0.6,0.7,1,1.7,1,2.9c0,1.7-0.7,3.1-1.8,4.2
				c-1.2,1-2.6,1.6-4.3,1.6c-1.5,0-2.7-0.4-3.7-1.1c-1-0.7-1.9-1.6-2.5-2.8c-0.6-1.1-1.1-2.4-1.4-3.7h-1.2v8.2h0.7L406.9,231.3
				L406.9,231.3z"/>
			<path d="M436.1,211.9l3.9,11.5h-8L436.1,211.9L436.1,211.9z M433.1,232.7v-1h-4.2l2.5-7.3h8.9l2.5,7.3h-4.3v1h13.1v-1h-3.3
				l-9.4-27.1h-1.4l-9.8,27.1h-3.3v1H433.1L433.1,232.7z"/>
			<polygon points="486.1,206.3 489.5,206.3 489.5,205.2 480.6,205.2 480.6,206.3 484.9,206.3 477.9,225.5 470.9,206.3 475.2,206.3 
				475.2,205.2 462.1,205.2 462.1,206.3 465.5,206.3 475.3,233.4 476.6,233.4 486.1,206.3 			"/>
			<polygon points="500.2,206.3 504.3,206.3 504.3,205.2 490.9,205.2 490.9,206.3 495,206.3 495,231.7 490.9,231.7 490.9,232.7 
				504.3,232.7 504.3,231.7 500.2,231.7 500.2,206.3 			"/>
			<polygon points="530.4,206.3 534.6,206.3 534.6,205.2 525.2,205.2 525.2,206.3 529.1,206.3 529.1,223.2 516.9,205.2 506.4,205.2 
				506.4,206.3 510.4,206.3 510.4,231.7 506.4,231.7 506.4,232.7 515.8,232.7 515.8,231.7 511.7,231.7 511.7,207.1 529.2,233.3 
				530.4,233.3 530.4,206.3 			"/>
			<polygon points="545.9,206.3 550,206.3 550,205.2 536.6,205.2 536.6,206.3 540.6,206.3 540.6,231.7 536.6,231.7 536.6,232.7 
				550,232.7 550,231.7 545.9,231.7 545.9,206.3 			"/>
			<path d="M574.6,224.6c-0.6,2.3-1.5,4.2-2.9,5.7c-1.3,1.5-3.3,2.2-5.8,2.1c-1.6-0.1-2.8-0.6-3.8-1.4c-1-0.8-1.6-1.9-2-3.2
				c-0.4-1.4-0.6-2.8-0.6-4.2c-0.1-1.5-0.1-2.8-0.1-4c-0.1-1.7,0-3.6,0-5.7c0.1-2.1,0.6-3.9,1.5-5.4c0.7-1.1,1.4-1.8,2.3-2.2
				c0.8-0.4,1.9-0.6,3.2-0.6c2.1,0,3.8,0.7,5.2,2c1.4,1.3,2.3,3.1,2.6,5.3h1.2V205h-0.9l-1.6,1.7c-0.9-0.7-1.9-1.3-3-1.6
				c-1.1-0.3-2.2-0.5-3.4-0.5c-1,0-1.9,0.1-2.9,0.3c-1,0.2-1.9,0.6-2.7,1c-2.3,1.4-4.1,3.3-5.5,5.6c-1.3,2.3-2,4.8-2,7.6
				c0,2.3,0.6,4.6,1.7,6.7c1.1,2.2,2.6,3.9,4.5,5.3c1.9,1.4,4.1,2.1,6.5,2.2c1.2,0,2.5-0.2,3.7-0.6c1.3-0.4,2.4-1,3.3-1.8l1.7,2h0.9
				v-8.4H574.6L574.6,224.6z"/>
			<path d="M593.6,233.4c2.7,0,5-0.8,6.9-2.2c1.9-1.4,3.4-3.3,4.3-5.6c1-2.3,1.5-4.7,1.5-7.3c0-2.3-0.6-4.5-1.8-6.6
				c-1.2-2.1-2.7-3.8-4.6-5.1c-1.9-1.3-4.1-2-6.4-2c-2.3,0-4.5,0.7-6.4,2c-1.9,1.3-3.5,3-4.7,5.1c-1.2,2.1-1.8,4.3-1.8,6.6
				c0,2.6,0.5,5,1.5,7.3c1,2.3,2.5,4.1,4.4,5.6C588.6,232.6,590.9,233.3,593.6,233.4L593.6,233.4z M600.4,222.9c0,0.8,0,1.6-0.1,2.4
				c-0.1,0.8-0.2,1.5-0.3,2.2c-0.3,1.4-1,2.6-2,3.5c-1,0.9-2.4,1.3-4.4,1.3c-1.9,0-3.4-0.5-4.3-1.3c-1-0.9-1.7-2-2-3.5
				c-0.2-0.7-0.3-1.5-0.4-2.2c-0.1-0.8-0.1-1.6-0.1-2.4v-9c0-0.7,0.1-1.5,0.2-2.2c0.1-0.7,0.3-1.3,0.4-2c0.4-1.3,1-2.3,2-3
				c1-0.7,2.4-1.1,4.2-1.1c1.8,0,3.2,0.4,4.1,1.1c1,0.7,1.6,1.7,2,3c0.2,0.6,0.4,1.3,0.5,2c0.1,0.7,0.2,1.4,0.2,2.2V222.9
				L600.4,222.9z"/>
			<path d="M632.3,232.7l0.4-9.3h-1.3c0,2.4-0.6,4.4-1.7,5.9c-1.1,1.5-2.9,2.3-5.5,2.3h-5.4v-25.5h4.3v-1h-13.6v1h4.1v25.5h-4.1v1
				H632.3L632.3,232.7z"/>
			<path d="M645.5,211.9l3.9,11.5h-8L645.5,211.9L645.5,211.9z M642.5,232.7v-1h-4.2l2.6-7.3h8.9l2.5,7.3H648v1h13.1v-1h-3.3
				l-9.4-27.1h-1.4l-9.8,27.1h-3.3v1H642.5L642.5,232.7z"/>
		</g>
		<g>
			<polygon points="230.3,360 234.4,360 234.4,359 225,359 225,360 229,360 229,377 216.8,359 206.3,359 206.3,360 210.3,360 
				210.3,385.4 206.3,385.4 206.3,386.5 215.6,386.5 215.6,385.4 211.6,385.4 211.6,360.8 229.1,387 230.3,387 230.3,360 			"/>
			<polygon points="245.8,360 249.9,360 249.9,359 236.4,359 236.4,360 240.5,360 240.5,385.4 236.4,385.4 236.4,386.5 249.9,386.5 
				249.9,385.4 245.8,385.4 245.8,360 			"/>
			<path d="M255.4,366.4c0.4-1.9,1-3.4,1.8-4.3c0.9-0.9,1.9-1.5,3.1-1.8c0.6-0.1,1.2-0.2,1.9-0.2c0.7,0,1.4,0,2.1,0h4.4l-16,25.4
				v1.1h21.6l0.3-8.9h-1.1c-0.3,1.7-0.7,3.2-1.2,4.3c-0.5,1.2-1.3,2-2.3,2.6c-1,0.6-2.5,0.9-4.4,0.9h-6.9l15.9-25.3V359h-19.9
				l-0.6,7.4H255.4L255.4,366.4z"/>
			<path d="M280.6,366.4c0.4-1.9,1-3.4,1.8-4.3c0.9-0.9,1.9-1.5,3.1-1.8c0.6-0.1,1.2-0.2,1.9-0.2c0.7,0,1.4,0,2.1,0h4.4l-16,25.4
				v1.1h21.6l0.3-8.9h-1.1c-0.3,1.7-0.7,3.2-1.2,4.3c-0.5,1.2-1.3,2-2.3,2.6c-1,0.6-2.5,0.9-4.4,0.9h-6.9l15.9-25.3V359H280
				l-0.6,7.4H280.6L280.6,366.4z"/>
			<path d="M313.4,365.6l3.9,11.5h-8L313.4,365.6L313.4,365.6z M310.4,386.5v-1h-4.2l2.6-7.3h8.9l2.5,7.3h-4.3v1h13.1v-1h-3.3
				l-9.4-27.1h-1.4l-9.8,27.1h-3.3v1H310.4L310.4,386.5z"/>
			<polygon points="368.8,360 372.9,360 372.9,359 362.5,359 356.5,377.8 350.7,359 340.1,359 340.1,360 344.2,360 344.2,385.4 
				340.1,385.4 340.1,386.5 349.5,386.5 349.5,385.4 345.5,385.4 345.5,360.7 345.6,360.7 353.8,386.5 355.2,386.5 363.4,360.7 
				363.6,360.7 363.6,385.4 359.5,385.4 359.5,386.5 372.9,386.5 372.9,385.4 368.8,385.4 368.8,360 			"/>
			<path d="M388.5,387.1c2.7,0,5-0.8,6.9-2.2c1.9-1.4,3.4-3.3,4.4-5.6c1-2.3,1.5-4.7,1.5-7.3c0-2.3-0.6-4.5-1.8-6.6
				c-1.2-2.1-2.7-3.8-4.6-5.1c-1.9-1.3-4.1-2-6.4-2c-2.3,0.1-4.5,0.7-6.4,2c-1.9,1.3-3.5,3-4.7,5.1c-1.2,2.1-1.8,4.3-1.8,6.6
				c0,2.6,0.5,5,1.5,7.3c1,2.3,2.5,4.1,4.4,5.6C383.5,386.3,385.8,387,388.5,387.1L388.5,387.1z M395.3,376.6c0,0.8,0,1.6-0.1,2.4
				c-0.1,0.8-0.2,1.5-0.3,2.2c-0.3,1.4-1,2.6-2,3.5c-1,0.9-2.4,1.3-4.4,1.3c-1.9,0-3.4-0.5-4.3-1.3c-1-0.9-1.7-2-2-3.5
				c-0.2-0.7-0.3-1.5-0.4-2.2c-0.1-0.8-0.1-1.6-0.1-2.4v-9c0-0.7,0.1-1.5,0.2-2.2c0.1-0.7,0.3-1.3,0.4-2c0.4-1.3,1-2.3,2-3
				c1-0.7,2.4-1.1,4.2-1.1c1.8,0,3.2,0.4,4.1,1.1c1,0.7,1.6,1.8,2,3c0.2,0.6,0.4,1.3,0.5,2c0.1,0.7,0.2,1.4,0.2,2.2V376.6
				L395.3,376.6z"/>
			<polygon points="428.2,360 432.3,360 432.3,359 422.9,359 422.9,360 426.9,360 426.9,377 414.7,359 404.1,359 404.1,360 
				408.2,360 408.2,385.4 404.1,385.4 404.1,386.5 413.5,386.5 413.5,385.4 409.5,385.4 409.5,360.8 427,387 428.2,387 428.2,360 
							"/>
			<path d="M438.2,385.4h-4.1v1h13.4v-1h-4.1v-12.6c2.2-0.1,3.7,0.2,4.7,1c0.9,0.8,1.5,2.2,1.6,4.5h1.1v-11.5h-1.1
				c-0.1,2.1-0.7,3.5-1.7,4.2c-1,0.6-2.6,0.9-4.5,0.9V360h4.5c0.9,0,1.7,0,2.4,0.1c0.7,0.1,1.4,0.2,1.8,0.4c1.3,0.7,2.2,1.6,2.8,2.9
				c0.5,1.3,0.9,2.6,1.2,4h1.1l-0.3-8.4h-22.8v1h4.1V385.4L438.2,385.4z"/>
			<path d="M473.4,360c0.7,0,1.3,0,1.9,0.1c0.6,0,1.2,0.1,1.7,0.3c1.1,0.3,2,0.8,2.7,1.8c0.8,0.9,1.4,2.3,1.8,4.3h1.1l-0.2-7.4
				h-22.8v1h4.1v25.5h-4.1v1h23.4l0.4-8.9h-1.2c-0.3,1.6-0.6,2.9-1.1,4.1c-0.5,1.2-1.2,2.1-2.2,2.7c-1,0.7-2.3,1-4.1,1H469v-12.6
				c2.2-0.1,3.7,0.2,4.7,1c0.9,0.8,1.5,2.2,1.6,4.5h1.2v-11.5h-1.2c-0.1,2.1-0.7,3.5-1.7,4.2c-1,0.6-2.6,0.9-4.5,0.9V360H473.4
				L473.4,360z"/>
			<path d="M496.9,360h3.6c1.8,0,3.1,0.3,3.9,1.2c0.8,0.8,1.2,2.4,1.1,4.6c0,1.8-0.4,3.2-1.2,4.1c-0.8,0.9-2.2,1.3-4,1.3h-3.4V360
				L496.9,360z M496.9,372.3h2.3c0.6,0,1.3,0.1,1.9,0.4c0.6,0.3,1.2,0.6,1.8,1.1c0.5,0.5,0.9,1.3,1.2,2.5c0.3,1.2,0.4,2.7,0.4,4.4
				c0,2.1,0.5,3.7,1.6,4.7c1.1,1.1,2.6,1.6,4.7,1.6c0.6,0,1.2,0,1.8-0.1c0.6-0.1,1.2-0.2,1.7-0.4v-1c-1.3,0.2-2.2,0.2-2.8,0
				c-0.6-0.2-0.9-0.5-1.1-1c-0.1-0.4-0.2-0.9-0.2-1.4c0-2.2-0.2-4.1-0.6-5.7c-0.4-1.5-1.2-2.8-2.4-3.7c-1.1-0.9-2.8-1.5-4.9-1.8
				v-0.1c1.3-0.1,2.6-0.4,4-0.9c1.3-0.5,2.5-1.1,3.4-2.1c0.9-0.9,1.4-2.2,1.4-3.7c0-1.9-0.6-3.3-1.6-4.2c-1-0.9-2.2-1.5-3.7-1.7
				c-1.5-0.3-3-0.4-4.5-0.4h-13.8v1h4.1v25.5h-4.1v1H501v-1h-4.1V372.3L496.9,372.3z"/>
			<path d="M526.6,360h3.6c1.8,0,3.1,0.3,3.9,1.2c0.8,0.8,1.2,2.4,1.1,4.6c0,1.8-0.4,3.2-1.2,4.1c-0.8,0.9-2.2,1.3-4,1.3h-3.4V360
				L526.6,360z M526.6,372.3h2.3c0.6,0,1.3,0.1,1.9,0.4c0.6,0.3,1.2,0.6,1.8,1.1c0.5,0.5,0.9,1.3,1.2,2.5c0.3,1.2,0.4,2.7,0.4,4.4
				c0,2.1,0.5,3.7,1.6,4.7c1.1,1.1,2.6,1.6,4.7,1.6c0.6,0,1.2,0,1.8-0.1c0.6-0.1,1.2-0.2,1.7-0.4v-1c-1.3,0.2-2.2,0.2-2.8,0
				c-0.6-0.2-0.9-0.5-1.1-1c-0.1-0.4-0.2-0.9-0.2-1.4c0-2.2-0.2-4.1-0.6-5.7c-0.4-1.5-1.2-2.8-2.4-3.7c-1.1-0.9-2.8-1.5-4.9-1.8
				v-0.1c1.3-0.1,2.6-0.4,4-0.9c1.3-0.5,2.4-1.1,3.3-2.1c0.9-0.9,1.4-2.2,1.4-3.7c0-1.9-0.6-3.3-1.6-4.2c-1-0.9-2.2-1.5-3.7-1.7
				c-1.5-0.3-3-0.4-4.6-0.4h-13.8v1h4.1v25.5h-4.1v1h13.4v-1h-4.1V372.3L526.6,372.3z"/>
			<path d="M556.9,365.6l3.9,11.5h-8L556.9,365.6L556.9,365.6z M554,386.5v-1h-4.2l2.5-7.3h8.9l2.5,7.3h-4.3v1h13.1v-1h-3.3
				l-9.4-27.1h-1.4l-9.8,27.1h-3.3v1H554L554,386.5z"/>
			<path d="M591.4,386.5v-1h-4.3V360c2.8-0.1,4.9,0.5,6.1,1.8c1.2,1.3,1.9,3.3,2.3,6h1.3l-0.4-8.8h-23.6l-0.5,8.8h1.3
				c0.3-2.6,1.1-4.6,2.3-6c1.2-1.3,3.2-1.9,6.1-1.8v25.5h-4.3v1H591.4L591.4,386.5z"/>
			<path d="M613,387.1c2.7,0,5-0.8,6.9-2.2c1.9-1.4,3.4-3.3,4.4-5.6c1-2.3,1.5-4.7,1.5-7.3c0-2.3-0.6-4.5-1.8-6.6
				c-1.2-2.1-2.7-3.8-4.6-5.1c-1.9-1.3-4.1-2-6.4-2c-2.3,0.1-4.5,0.7-6.4,2c-1.9,1.3-3.5,3-4.7,5.1c-1.2,2.1-1.8,4.3-1.8,6.6
				c0,2.6,0.5,5,1.5,7.3c1,2.3,2.5,4.1,4.4,5.6C608,386.3,610.3,387,613,387.1L613,387.1z M619.8,376.6c0,0.8,0,1.6-0.1,2.4
				c-0.1,0.8-0.2,1.5-0.3,2.2c-0.3,1.4-1,2.6-2,3.5c-1,0.9-2.4,1.3-4.4,1.3c-1.9,0-3.4-0.5-4.3-1.3c-1-0.9-1.7-2-2-3.5
				c-0.2-0.7-0.3-1.5-0.4-2.2c-0.1-0.8-0.1-1.6-0.1-2.4v-9c0-0.7,0.1-1.5,0.2-2.2c0.1-0.7,0.3-1.3,0.5-2c0.3-1.3,1-2.3,2-3
				c1-0.7,2.4-1.1,4.2-1.1c1.8,0,3.2,0.4,4.1,1.1c1,0.7,1.6,1.8,2,3c0.2,0.6,0.4,1.3,0.5,2c0.1,0.7,0.2,1.4,0.2,2.2V376.6
				L619.8,376.6z"/>
		</g>
	</g>
</g>
</svg>
