<?xml version="1.0" encoding="UTF-8" standalone="no"?>
<svg width="71px" height="70px" viewBox="0 0 71 70" version="1.1" xmlns="http://www.w3.org/2000/svg" xmlns:xlink="http://www.w3.org/1999/xlink">
    <!-- Generator: Sketch 3.6.1 (26313) - http://www.bohemiancoding.com/sketch -->
    <title>pin</title>
    <desc>Created with Sketch.</desc>
    <defs></defs>
    <g id="Page-1" stroke="none" stroke-width="1" fill="none" fill-rule="evenodd">
        <g id="Background" transform="translate(-214.000000, -15.000000)" fill="#FFFFFF">
            <g id="scarpa_social" transform="translate(10.000000, 15.000000)">
                <path d="M239.260124,0 C219.931481,0 204.259,15.6699806 204.259,34.9994379 C204.259,49.330421 212.87774,61.6433516 225.209981,67.0555547 C225.111045,64.6125307 225.191993,61.6782037 225.819342,59.0193213 C226.491662,56.1783081 230.322088,39.9484445 230.322088,39.9484445 C230.322088,39.9484445 229.204553,37.7134092 229.204553,34.4103239 C229.204553,29.2240978 232.210881,25.3498868 235.954737,25.3498868 C239.137578,25.3498868 240.675594,27.7411946 240.675594,30.604693 C240.675594,33.8043461 238.635024,38.5914588 237.584945,43.0255529 C236.708006,46.73787 239.446755,49.7666351 243.109663,49.7666351 C249.740674,49.7666351 254.207444,41.249217 254.207444,31.1578305 C254.207444,23.4869826 249.040247,17.7453704 239.643504,17.7453704 C229.026916,17.7453704 222.411645,25.6635562 222.411645,34.5070106 C222.411645,37.5560124 223.31107,39.7067279 224.719795,41.3717617 C225.367381,42.1362607 225.457323,42.4443088 225.222348,43.3223584 C225.054831,43.9665612 224.669202,45.5169202 224.509554,46.1307679 C224.276828,47.0178115 223.558412,47.3348538 222.7568,47.0065689 C217.8673,45.0110017 215.589507,39.6561361 215.589507,33.6357066 C215.589507,23.6938471 223.974396,11.77216 240.60364,11.77216 C253.966847,11.77216 262.7621,21.4419479 262.7621,31.8211458 C262.7621,45.5506481 255.12823,55.8084255 243.876423,55.8084255 C240.097714,55.8084255 236.543861,53.7656393 235.326264,51.4462843 C235.326264,51.4462843 233.293564,59.5095 232.864088,61.0666046 C232.122063,63.7659605 230.669491,66.463068 229.340591,68.5643159 C232.488578,69.4940816 235.814202,70 239.260124,70 C258.587643,70 274.259,54.3300194 274.259,34.9994379 C274.259,15.6699806 258.587643,0 239.260124,0" id="pin"></path>
            </g>
        </g>
    </g>
</svg>