<?xml version="1.0" encoding="UTF-8" standalone="no"?>
<svg width="56px" height="56px" viewBox="0 0 56 56" version="1.1" xmlns="http://www.w3.org/2000/svg" xmlns:xlink="http://www.w3.org/1999/xlink">
    <!-- Generator: Sketch 3.8.1 (29687) - http://www.bohemiancoding.com/sketch -->
    <title>Slice 1</title>
    <desc>Created with Sketch.</desc>
    <defs>
        <polygon id="path-1" points="0.06 0.254284762 0.06 47.827 22.8603227 47.827 22.8603227 0.254284762 0.06 0.254284762"></polygon>
    </defs>
    <g id="Page-1" stroke="none" stroke-width="1" fill="none" fill-rule="evenodd">
        <g id="season_icons" transform="translate(9.000000, -8.000000)">
            <g id="Group-4" transform="translate(0.000000, 16.000000)">
                <mask id="mask-2" fill="white">
                    <use xlink:href="#path-1"></use>
                </mask>
                <g id="Clip-2"></g>
                <path d="M22.618,24.685 C22.749,24.466 22.924,24.204 22.837,23.942 C22.793,23.811 22.662,23.724 22.575,23.637 C19.824,21.803 17.99,18.222 16.549,14.642 C15.064,11.061 13.798,7.219 11.702,4.25 C9.868,1.674 7.205,-0.117 4.628,0.32 C4.104,0.407 3.886,1.019 4.235,1.412 C5.414,2.634 6.375,4.293 6.943,6.171 C7.816,9.009 7.772,12.153 8.034,15.166 C8.296,18.179 8.908,21.41 10.654,23.375 C11.353,24.161 12.182,24.685 13.056,25.078 C14.628,25.82 16.287,26.257 17.946,26.344 L17.946,46.735 C17.946,47.347 18.426,47.827 19.038,47.827 C19.649,47.827 20.129,47.347 20.129,46.735 L20.129,26.169 C21.09,25.951 21.963,25.558 22.618,24.685" id="Fill-1" fill="#FFFFFF" mask="url(#mask-2)"></path>
                <path d="M0,28.396 L0,28.396 C0,37.391 7.292,44.727 16.331,44.727 C16.331,35.688 9.039,28.396 0,28.396" id="Fill-3" fill="#FFFFFF" mask="url(#mask-2)"></path>
            </g>
            <path d="M38.163,44.396 C29.168,44.396 21.832,51.688 21.832,60.727 C30.827,60.727 38.163,53.391 38.163,44.396" id="Fill-5" fill="#FFFFFF"></path>
            <path d="M17.771,27.673 C18.033,28.371 18.339,29.07 18.601,29.769 C18.776,30.162 18.907,30.555 19.081,30.948 C19.256,30.598 19.387,30.205 19.562,29.812 C19.824,29.114 20.129,28.415 20.391,27.716 C21.57,24.704 22.793,21.56 24.671,18.983 C25.063,18.459 25.456,17.979 25.893,17.499 L19.605,9.072 C19.343,8.722 18.819,8.722 18.557,9.072 L12.313,17.455 C12.75,17.892 13.143,18.416 13.536,18.94 C15.37,21.56 16.592,24.66 17.771,27.673" id="Fill-6" fill="#FFFFFF"></path>
            <path d="M20.348,33.524 C21.308,35.27 22.444,36.842 23.797,37.759 C24.015,37.89 24.627,38.327 24.933,39.113 C25.107,39.593 25.151,40.073 25.063,40.554 C26.155,40.292 27.116,39.768 27.509,39.331 C29.255,37.366 29.91,34.179 30.129,31.122 C30.391,28.109 30.347,24.966 31.22,22.127 C31.788,20.25 32.748,18.59 33.927,17.368 C34.277,16.975 34.058,16.364 33.534,16.276 C30.958,15.84 28.295,17.674 26.461,20.206 C24.365,23.219 23.099,27.018 21.614,30.642 C21.221,31.603 20.784,32.607 20.348,33.524" id="Fill-7" fill="#FFFFFF"></path>
        </g>
    </g>
</svg>
