<?xml version="1.0" encoding="UTF-8" standalone="no"?>
<svg width="63px" height="63px" viewBox="0 0 63 63" version="1.1" xmlns="http://www.w3.org/2000/svg" xmlns:xlink="http://www.w3.org/1999/xlink">
    <!-- Generator: Sketch 3.8.1 (29687) - http://www.bohemiancoding.com/sketch -->
    <title>summer</title>
    <desc>Created with Sketch.</desc>
    <defs>
        <polygon id="path-1" points="222.7 62.5 222.7 0.524 0.602249803 0.524 0.602249803 62.5 222.7 62.5"></polygon>
    </defs>
    <g id="Page-1" stroke="none" stroke-width="1" fill="none" fill-rule="evenodd">
        <g id="season_icons" transform="translate(-77.000000, 0.000000)">
            <g id="Group-12" transform="translate(77.000000, 0.000000)">
                <mask id="mask-2" fill="white">
                    <use xlink:href="#path-1"></use>
                </mask>
                <g id="Clip-9"></g>
                <path d="M31.565,52.767 C31.483,52.782 31.402,52.802 31.323,52.827 C30.422,53.029 29.789,53.839 29.812,54.762 L29.812,60.566 C29.812,61.634 30.678,62.5 31.746,62.5 C32.815,62.5 33.681,61.634 33.681,60.566 L33.681,54.762 C33.719,53.694 32.884,52.798 31.816,52.76 C31.732,52.757 31.648,52.759 31.565,52.767 L31.565,52.767 Z M15.06,46.056 C14.627,46.102 14.222,46.294 13.911,46.599 L9.86,50.711 C9.028,51.38 8.896,52.598 9.566,53.431 C10.235,54.263 11.453,54.395 12.286,53.725 C12.394,53.638 12.493,53.539 12.58,53.431 L16.691,49.38 C17.474,48.652 17.518,47.428 16.791,46.645 C16.349,46.17 15.699,45.948 15.058,46.054 L15.06,46.056 L15.06,46.056 Z M48.009,45.996 C47.927,46.011 47.846,46.031 47.767,46.056 C46.716,46.246 46.018,47.253 46.208,48.304 C46.283,48.718 46.491,49.096 46.8,49.381 L50.911,53.433 C51.581,54.265 52.798,54.397 53.631,53.727 C54.463,53.057 54.595,51.839 53.925,51.007 C53.838,50.898 53.739,50.8 53.631,50.713 L49.58,46.601 C49.176,46.17 48.596,45.947 48.007,45.996 L48.009,45.996 L48.009,45.996 Z M54.598,29.612 C53.53,29.712 52.745,30.66 52.845,31.728 C52.946,32.797 53.893,33.581 54.962,33.481 L60.766,33.481 C61.834,33.481 62.7,32.615 62.7,31.546 C62.7,30.478 61.834,29.612 60.766,29.612 L54.962,29.612 C54.901,29.609 54.841,29.609 54.78,29.612 C54.719,29.609 54.659,29.609 54.598,29.612 L54.598,29.612 Z M2.363,29.612 C1.295,29.712 0.51,30.66 0.611,31.728 C0.711,32.797 1.659,33.581 2.727,33.481 L8.531,33.481 C9.599,33.481 10.466,32.615 10.466,31.546 C10.466,30.478 9.599,29.612 8.531,29.612 L2.727,29.612 C2.666,29.609 2.606,29.609 2.545,29.612 C2.485,29.609 2.424,29.609 2.363,29.612 L2.363,29.612 Z M31.746,16.069 C23.234,16.069 16.269,23.034 16.269,31.546 C16.269,40.059 23.234,47.023 31.746,47.023 C40.259,47.023 47.223,40.059 47.223,31.546 C47.223,23.034 40.259,16.069 31.746,16.069 L31.746,16.069 Z M52.06,9.056 C51.619,9.12 51.213,9.334 50.911,9.662 L46.8,13.713 C46.032,14.481 46.032,15.727 46.8,16.495 C47.568,17.263 48.814,17.263 49.582,16.495 L53.633,12.384 C54.401,11.641 54.423,10.417 53.68,9.648 C53.305,9.259 52.783,9.045 52.242,9.058 C52.181,9.055 52.121,9.055 52.06,9.058 L52.06,9.056 L52.06,9.056 Z M11.009,9.056 C9.946,9.159 9.167,10.104 9.27,11.168 C9.314,11.63 9.524,12.061 9.86,12.382 L13.911,16.493 C14.679,17.261 15.925,17.261 16.693,16.493 C17.461,15.725 17.461,14.479 16.693,13.711 L12.582,9.66 C12.22,9.277 11.718,9.058 11.191,9.054 C11.13,9.051 11.07,9.051 11.009,9.054 L11.009,9.056 L11.009,9.056 Z M31.565,0.532 C31.483,0.547 31.402,0.567 31.323,0.592 C30.422,0.794 29.789,1.604 29.812,2.527 L29.812,8.331 C29.812,9.399 30.678,10.265 31.746,10.265 C32.815,10.265 33.681,9.399 33.681,8.331 L33.681,2.527 C33.719,1.459 32.884,0.563 31.816,0.525 C31.732,0.522 31.648,0.524 31.565,0.532 L31.565,0.532 Z" id="Fill-8" fill="#FFFFFF" mask="url(#mask-2)"></path>
            </g>
        </g>
    </g>
</svg>
