<?xml version="1.0" encoding="UTF-8" standalone="no"?>
<svg width="67px" height="54px" viewBox="0 0 67 54" version="1.1" xmlns="http://www.w3.org/2000/svg" xmlns:xlink="http://www.w3.org/1999/xlink">
    <!-- Generator: Sketch 3.6.1 (26313) - http://www.bohemiancoding.com/sketch -->
    <title>tw</title>
    <desc>Created with Sketch.</desc>
    <defs></defs>
    <g id="Page-1" stroke="none" stroke-width="1" fill="none" fill-rule="evenodd">
        <g id="Background" transform="translate(-112.000000, -23.000000)" fill="#000000">
            <g id="scarpa_social" transform="translate(10.000000, 15.000000)">
                <path d="M168.514,14.3926212 C166.069518,15.4777883 163.441233,16.2109252 160.683143,16.5401099 C163.498347,14.852649 165.660374,12.1807493 166.678043,8.99689999 C164.043527,10.55871 161.125517,11.6937221 158.019551,12.3053618 C155.532493,9.65526935 151.989344,8 148.067166,8 C140.537456,8 134.432482,14.1039355 134.432482,21.6346842 C134.432482,22.7032364 134.55294,23.7437507 134.78555,24.7416891 C123.453082,24.1726254 113.4062,18.7447127 106.681278,10.4953653 C105.507844,12.5088956 104.834937,14.8516105 104.834937,17.3500911 C104.834937,22.0801739 107.242035,26.2536541 110.90045,28.6991744 C108.665732,28.6285607 106.562896,28.0148441 104.724862,26.9940601 C104.723824,27.0501357 104.723824,27.1072497 104.723824,27.1654022 C104.723824,33.7719415 109.423792,39.2818908 115.661686,40.5352849 C114.517328,40.8468161 113.31274,41.0129661 112.068692,41.0129661 C111.190174,41.0129661 110.336578,40.9278142 109.503751,40.7689333 C111.23898,46.1854232 116.274364,50.1283704 122.241226,50.2374063 C117.574488,53.8947831 111.694855,56.0744634 105.307426,56.0744634 C104.206682,56.0744634 103.121515,56.0100803 102.054001,55.8833909 C108.088361,59.752609 115.255657,62.0101721 122.955671,62.0101721 C148.034974,62.0101721 161.750657,41.2331149 161.750657,23.215186 C161.750657,22.6243151 161.737157,22.0365595 161.711196,21.4508808 C164.374788,19.528733 166.68635,17.1278655 168.514,14.3926212" id="tw"></path>
            </g>
        </g>
    </g>
</svg>
