<?xml version="1.0" encoding="UTF-8" standalone="no"?>
<svg width="48px" height="51px" viewBox="0 0 48 51" version="1.1" xmlns="http://www.w3.org/2000/svg" xmlns:xlink="http://www.w3.org/1999/xlink">
    <!-- Generator: Sketch 3.8.1 (29687) - http://www.bohemiancoding.com/sketch -->
    <title>season_icons</title>
    <desc>Created with Sketch.</desc>
    <defs>
        <polygon id="path-1" points="222.7 62.5 222.7 0.524 0.602249803 0.524 0.602249803 62.5 222.7 62.5"></polygon>
    </defs>
    <g id="Page-1" stroke="none" stroke-width="1" fill="none" fill-rule="evenodd">
        <g id="season_icons" transform="translate(-252.000000, -10.000000)">
            <g id="Group-12" transform="translate(77.000000, 0.000000)">
                <mask id="mask-2" fill="white">
                    <use xlink:href="#path-1"></use>
                </mask>
                <g id="Clip-9"></g>
                <path d="M222.547,40.074 C222.359,38.931 222.215,38.006 221.355,38.145 L210.137,39.167 L203.364,35.257 L210.13,31.351 L221.353,32.368 C222.214,32.507 222.358,31.582 222.545,30.439 C222.735,29.301 222.91,28.377 222.039,28.232 L216.312,27.781 L220.869,25.15 C221.872,24.571 221.307,23.813 220.727,22.811 C220.148,21.808 219.775,20.94 218.773,21.519 L214.216,24.15 L216.688,18.965 C217,18.143 216.11,17.827 215.029,17.423 C213.947,17.015 213.073,16.677 212.763,17.491 L208.04,27.717 L201.269,31.626 L201.269,23.807 L207.763,14.604 C208.313,13.928 207.584,13.341 206.688,12.607 C205.798,11.874 205.08,11.26 204.524,11.942 L201.269,16.675 L201.269,11.413 C201.269,10.256 200.331,10.366 199.173,10.366 C198.015,10.366 197.077,10.256 197.077,11.413 L197.077,16.675 L193.822,11.942 C193.262,11.26 192.549,11.874 191.658,12.607 C190.762,13.341 190.033,13.928 190.584,14.604 L197.077,23.814 L197.077,31.626 L190.306,27.717 L185.582,17.492 C185.271,16.678 184.399,17.016 183.315,17.424 C182.234,17.828 181.344,18.143 181.657,18.966 L184.129,24.151 L179.572,21.52 C178.57,20.941 178.196,21.809 177.617,22.812 C177.039,23.814 176.474,24.572 177.476,25.151 L182.033,27.781 L176.306,28.233 C175.436,28.378 175.611,29.302 175.8,30.44 C175.988,31.583 176.132,32.507 176.992,32.369 L188.215,31.352 L194.98,35.257 L188.21,39.166 L176.992,38.145 C176.131,38.007 175.988,38.931 175.799,40.074 C175.61,41.212 175.438,42.14 176.306,42.281 L182.033,42.733 L177.476,45.364 C176.473,45.943 177.038,46.7 177.617,47.703 C178.196,48.705 178.57,49.573 179.572,48.995 L184.128,46.363 L181.656,51.549 C181.346,52.375 182.235,52.686 183.314,53.09 C184.398,53.499 185.27,53.837 185.581,53.022 L190.311,42.794 L197.077,38.887 L197.077,46.7 L190.584,55.91 C190.033,56.586 190.762,57.173 191.658,57.907 C192.549,58.641 193.262,59.254 193.822,58.573 L197.077,53.839 L197.077,59.101 C197.077,60.258 198.015,60.148 199.173,60.148 C200.331,60.148 201.269,60.258 201.269,59.101 L201.269,53.839 L204.524,58.572 C205.08,59.254 205.798,58.641 206.688,57.907 C207.584,57.173 208.313,56.586 207.763,55.91 L201.269,46.707 L201.269,38.888 L208.035,42.794 L212.764,53.022 C213.075,53.837 213.948,53.5 215.031,53.091 C216.112,52.686 216.999,52.375 216.69,51.549 L214.218,46.364 L218.774,48.995 C219.776,49.573 220.15,48.706 220.728,47.703 C221.307,46.7 221.873,45.943 220.87,45.364 L216.314,42.733 L222.04,42.282 C222.908,42.141 222.736,41.212 222.547,40.074" id="Fill-11" fill="#FFFFFF" mask="url(#mask-2)"></path>
            </g>
        </g>
    </g>
</svg>
